<svg width="76" height="43" viewBox="0 0 76 43" fill="none" xmlns="http://www.w3.org/2000/svg">
<rect width="76" height="43" rx="5" fill="#F4F4F4"/>
<path d="M33.6448 23.0063H43.3552C43.7913 23.0059 44.2094 22.8324 44.5177 22.5241C44.8261 22.2157 44.9995 21.7976 45 21.3615V14.2768C44.9995 13.8407 44.8261 13.4226 44.5177 13.1142C44.2094 12.8059 43.7913 12.6324 43.3552 12.632H43.1407V10.6406C43.1407 8.08201 41.0588 6.00006 38.4998 6.00006C35.9409 6.00006 33.8593 8.08201 33.8593 10.6406V12.632H33.6448C33.2087 12.6324 32.7906 12.8059 32.4822 13.1142C32.1739 13.4226 32.0005 13.8407 32 14.2768V21.3615C32.0005 21.7976 32.1739 22.2157 32.4822 22.5241C32.7906 22.8324 33.2087 23.0059 33.6448 23.0063ZM34.7159 10.6406C34.7254 9.64322 35.1282 8.68989 35.8368 7.98795C36.5455 7.28601 37.5026 6.89223 38.5 6.89223C39.4974 6.89223 40.4545 7.28601 41.1632 7.98795C41.8718 8.68989 42.2746 9.64322 42.2841 10.6406V12.632H40.4984V10.5071C40.4915 9.98175 40.278 9.48021 39.904 9.1111C39.5301 8.74199 39.0258 8.53503 38.5003 8.53503C37.9749 8.53503 37.4706 8.74199 37.0967 9.1111C36.7227 9.48021 36.5092 9.98175 36.5023 10.5071V12.6337H34.7166L34.7159 10.6406ZM37.3583 10.5044C37.3583 10.2017 37.4785 9.91129 37.6926 9.6972C37.9067 9.48311 38.1971 9.36284 38.4998 9.36284C38.8026 9.36284 39.093 9.48311 39.3071 9.6972C39.5211 9.91129 39.6414 10.2017 39.6414 10.5044V12.631H37.3583V10.5044ZM32.857 14.2768C32.8572 14.0679 32.9403 13.8676 33.088 13.7199C33.2357 13.5721 33.4359 13.489 33.6448 13.4886H43.3552C43.5642 13.4888 43.7646 13.5719 43.9125 13.7196C44.0603 13.8674 44.1435 14.0678 44.1437 14.2768V21.3615C44.1438 21.5707 44.0609 21.7713 43.9132 21.9193C43.7655 22.0674 43.565 22.1507 43.3559 22.1511H33.6448C33.4358 22.1509 33.2354 22.0678 33.0875 21.92C32.9397 21.7723 32.8565 21.5719 32.8563 21.3629L32.857 14.2768Z" fill="#808080"/>
<path d="M38.5005 20.4562C38.8567 20.4558 39.1981 20.3141 39.4499 20.0623C39.7017 19.8106 39.8435 19.4692 39.844 19.1131V17.4029C39.8469 17.2247 39.8142 17.0477 39.748 16.8823C39.6817 16.7168 39.5832 16.5662 39.4582 16.4391C39.3332 16.3121 39.1842 16.2112 39.0198 16.1424C38.8554 16.0735 38.6789 16.0381 38.5007 16.0381C38.3225 16.0381 38.146 16.0735 37.9816 16.1424C37.8173 16.2112 37.6682 16.3121 37.5432 16.4391C37.4182 16.5662 37.3197 16.7168 37.2534 16.8823C37.1872 17.0477 37.1546 17.2247 37.1574 17.4029V19.1131C37.1578 19.4692 37.2995 19.8105 37.5513 20.0623C37.8031 20.3141 38.1445 20.4558 38.5005 20.4562ZM38.014 17.4029C38.0123 17.3379 38.0236 17.2732 38.0473 17.2127C38.071 17.1521 38.1066 17.0969 38.1519 17.0504C38.1973 17.0038 38.2515 16.9668 38.3114 16.9415C38.3713 16.9162 38.4357 16.9032 38.5007 16.9032C38.5657 16.9032 38.6301 16.9162 38.69 16.9415C38.7499 16.9668 38.8041 17.0038 38.8495 17.0504C38.8949 17.0969 38.9304 17.1521 38.9541 17.2127C38.9778 17.2732 38.9891 17.3379 38.9874 17.4029V19.1131C38.9891 19.1781 38.9778 19.2428 38.9541 19.3033C38.9304 19.3639 38.8949 19.4191 38.8495 19.4656C38.8041 19.5122 38.7499 19.5492 38.69 19.5745C38.6301 19.5998 38.5657 19.6128 38.5007 19.6128C38.4357 19.6128 38.3713 19.5998 38.3114 19.5745C38.2515 19.5492 38.1973 19.5122 38.1519 19.4656C38.1066 19.4191 38.071 19.3639 38.0473 19.3033C38.0236 19.2428 38.0123 19.1781 38.014 19.1131V17.4029Z" fill="#808080"/>
<path d="M6.18994 27.2066L5.81396 27.8423L5.32861 27.5689L5.05518 28.1089L4.41943 27.7603L4.7749 27.1588L5.28076 27.4117L5.57812 26.8887L6.18994 27.2066ZM6.97949 31.9986H6.53174C6.44971 31.9986 6.37451 31.9815 6.30615 31.9473C6.17399 31.8812 6.06234 31.7605 5.97119 31.585C5.84814 31.3435 5.76839 31.0131 5.73193 30.5938C5.57699 30.7852 5.45622 30.9208 5.36963 31.0005C5.2443 31.1168 5.13949 31.1749 5.05518 31.1749C5.01188 31.1749 4.95719 31.168 4.89111 31.1544L4.47412 31.0723C4.29639 31.0359 4.18701 31.0097 4.146 30.9937C4.10498 30.9778 4.08447 30.9493 4.08447 30.9083C4.08447 30.8467 4.16309 30.6531 4.32031 30.3272C4.47982 29.9991 4.59489 29.7963 4.66553 29.7188C4.72249 29.6573 4.82389 29.5775 4.96973 29.4796C5.05632 29.4203 5.17936 29.344 5.33887 29.2505L5.52002 29.1446C5.51318 29.1127 5.50749 29.0808 5.50293 29.0489C5.50065 29.0147 5.49951 28.9828 5.49951 28.9532C5.49951 28.8666 5.51888 28.7584 5.55762 28.6285C5.59863 28.4963 5.67041 28.3334 5.77295 28.1397L6.10107 30.2725C6.15348 30.6075 6.22184 30.8342 6.30615 30.9527C6.36084 31.0302 6.43604 31.0689 6.53174 31.0689H6.97949V31.9986ZM5.6499 30.0674L5.58154 29.6573C5.50863 29.6915 5.45166 29.7188 5.41064 29.7393C5.28532 29.8054 5.18506 29.8669 5.10986 29.9239C5.05518 29.9695 5.0096 30.0116 4.97314 30.0504C4.92757 30.1005 4.90479 30.1381 4.90479 30.1631C4.90479 30.195 4.94466 30.2201 5.02441 30.2383C5.10417 30.2566 5.18278 30.2657 5.26025 30.2657C5.31038 30.2657 5.36279 30.252 5.41748 30.2247C5.47217 30.195 5.54964 30.1426 5.6499 30.0674ZM8.87988 31.9986H6.74023V31.0689H8.53809C8.51302 30.914 8.46745 30.7829 8.40137 30.6758C8.36719 30.6166 8.28743 30.5141 8.16211 30.3682L8.43555 29.5547C8.60645 29.7484 8.72266 29.9512 8.78418 30.1631C8.84798 30.3751 8.87988 30.6895 8.87988 31.1065V31.9986ZM8.8252 32.6002L8.44922 33.2974L7.96387 33.024L7.69043 33.564L7.05469 33.2154L7.41016 32.5523L7.91602 32.8052L8.20312 32.2515L8.8252 32.6002ZM12.0381 31.7628C12.0381 32.1547 11.8717 32.5421 11.5391 32.9249C11.2064 33.3077 10.8783 33.4991 10.5547 33.4991C10.3656 33.4991 10.1582 33.4387 9.93262 33.3179C9.70931 33.1972 9.36523 32.959 8.90039 32.6036L9.04395 32.4053C9.29004 32.5694 9.4917 32.6788 9.64893 32.7335C9.77881 32.779 9.92578 32.8018 10.0898 32.8018C10.3109 32.8018 10.5296 32.7403 10.7461 32.6172C11.0013 32.4714 11.2656 32.2367 11.5391 31.9131C11.4434 31.9268 11.3636 31.9337 11.2998 31.9337C11.0742 31.9337 10.8942 31.8607 10.7598 31.7149C10.6276 31.5668 10.5615 31.3663 10.5615 31.1133C10.5615 30.7715 10.6401 30.4423 10.7974 30.1255C10.9683 29.7815 11.1631 29.6094 11.3818 29.6094C11.5641 29.6094 11.7191 29.7336 11.8467 29.982C11.9743 30.2304 12.0381 30.53 12.0381 30.8809V31.7628ZM11.6279 31.0689C11.5641 30.702 11.4342 30.5186 11.2383 30.5186C11.1676 30.5186 11.1107 30.5471 11.0674 30.6041C11.0264 30.6588 11.0059 30.7191 11.0059 30.7852C11.0059 30.8672 11.0503 30.9356 11.1392 30.9903C11.2303 31.0427 11.3499 31.0689 11.498 31.0689H11.6279ZM15.1963 31.9986H14.499C14.4466 31.9986 14.3931 31.9997 14.3384 32.002C14.2837 32.002 14.2028 32.0066 14.0957 32.0157C14.1777 32.0635 14.2598 32.1102 14.3418 32.1558C14.4193 32.2151 14.458 32.2914 14.458 32.3848C14.458 32.4737 14.4455 32.5683 14.4204 32.6685C14.4067 32.7255 14.3737 32.8269 14.3213 32.9727C14.2256 33.2575 14.1367 33.4501 14.0547 33.5504C13.9727 33.6529 13.8678 33.7042 13.7402 33.7042C13.4235 33.7042 13.1501 33.5367 12.9199 33.2017C12.6921 32.869 12.5781 32.468 12.5781 31.9986H11.7988V31.0689H12.1064C12.2295 31.0689 12.3548 31.0575 12.4824 31.0347C12.626 31.0028 12.7262 30.9812 12.7832 30.9698C13.0361 30.2839 13.2594 29.7883 13.4531 29.483C13.624 29.2164 13.7812 29.0831 13.9248 29.0831C14.041 29.0831 14.1413 29.197 14.2256 29.4249C14.2985 29.6208 14.335 29.8145 14.335 30.0059C14.335 30.2702 14.2826 30.4958 14.1777 30.6827C14.0638 30.8878 13.8929 31.0381 13.665 31.1339C13.8314 31.1065 13.9829 31.0894 14.1196 31.0826C14.2563 31.0735 14.3828 31.0689 14.499 31.0689H15.1963V31.9986ZM13.8018 30.4366C13.8018 30.3773 13.7801 30.3044 13.7368 30.2178C13.6935 30.1312 13.6491 30.088 13.6035 30.088C13.5443 30.088 13.4748 30.1529 13.395 30.2828C13.3175 30.4104 13.223 30.612 13.1113 30.8878C13.3734 30.7966 13.5534 30.7191 13.6514 30.6553C13.7516 30.5893 13.8018 30.5163 13.8018 30.4366ZM13.9453 32.7266C13.9453 32.599 13.8724 32.4783 13.7266 32.3643C13.5511 32.2276 13.2982 32.1251 12.9678 32.0567C13.0042 32.2572 13.109 32.4315 13.2822 32.5797C13.4554 32.7278 13.6423 32.8018 13.8428 32.8018C13.9111 32.8018 13.9453 32.7768 13.9453 32.7266ZM16.8369 31.9986H14.957V31.0689H16.4268L16.0132 28.7481L15.7944 28.6046C15.7944 28.4701 15.8149 28.3345 15.856 28.1978C15.9084 28.0246 15.9972 27.8184 16.1226 27.5792L16.2798 27.6612C16.2798 27.6749 16.2752 27.7113 16.2661 27.7706C16.2661 27.8458 16.314 27.9187 16.4097 27.9893C16.494 28.0531 16.6284 28.1238 16.813 28.2012C16.7925 28.3471 16.7617 28.4895 16.7207 28.6285C16.682 28.7675 16.6375 28.8917 16.5874 29.001L16.4644 28.9532L16.8369 31.0689V31.9986ZM18.1016 31.004C18.1016 31.2068 18.0776 31.3925 18.0298 31.5611C17.9819 31.7274 17.8896 31.9519 17.7529 32.2344L17.5479 32.1524C17.6025 31.8607 17.6299 31.6238 17.6299 31.4415C17.6299 31.3025 17.6185 31.0985 17.5957 30.8297C17.5729 30.5608 17.5444 30.2953 17.5103 30.0333C17.4761 29.7689 17.4202 29.4545 17.3428 29.0899C17.3154 28.9623 17.3018 28.8746 17.3018 28.8267C17.3018 28.7561 17.3371 28.6365 17.4077 28.4678C17.4784 28.2969 17.5775 28.0907 17.7051 27.8492L17.9102 29.0591C17.9854 29.5194 18.0378 29.9182 18.0674 30.2554C18.0902 30.5152 18.1016 30.7647 18.1016 31.004ZM22.9653 29.1412L22.5552 29.9068L21.7554 29.4898L22.1689 28.7173L22.9653 29.1412ZM24.0898 31.8311C24.0898 32.1456 24.0591 32.3985 23.9976 32.5899C23.936 32.779 23.8346 32.9317 23.6934 33.0479C23.5544 33.1641 23.3493 33.2587 23.0781 33.3316C22.8092 33.4068 22.5312 33.4444 22.2441 33.4444C21.6904 33.4444 21.2632 33.343 20.9624 33.1402C20.6639 32.9397 20.5146 32.6537 20.5146 32.2823C20.5146 31.9656 20.5625 31.6762 20.6582 31.4141C20.763 31.1247 20.9681 30.7488 21.2734 30.2862L21.4785 30.4297C21.2529 30.8148 21.1048 31.094 21.0342 31.2672C20.9658 31.4403 20.9316 31.6192 20.9316 31.8038C20.9316 32.043 21.0592 32.239 21.3145 32.3917C21.5719 32.5421 21.9092 32.6172 22.3262 32.6172C22.7363 32.6172 23.0815 32.5386 23.3618 32.3814C23.6421 32.2242 23.7822 32.0316 23.7822 31.8038C23.7822 31.6625 23.7572 31.5224 23.707 31.3834C23.6592 31.2444 23.5544 31.0222 23.3926 30.7169L23.6934 29.794C23.8529 30.0834 23.9508 30.2828 23.9873 30.3922C24.0557 30.5904 24.0898 30.8422 24.0898 31.1475V31.8311ZM27.4736 30.3682L27.0908 31.3389C26.4779 31.5281 25.9709 31.6739 25.5698 31.7764C25.2212 31.8653 24.9272 31.9268 24.688 31.961C24.5125 31.9861 24.3359 31.9986 24.1582 31.9986H23.8506V31.0689H24.2197C24.2858 31.0689 24.3348 31.0678 24.3667 31.0655C24.4351 31.0564 24.5023 31.0495 24.5684 31.045C24.4544 30.8741 24.3781 30.7362 24.3394 30.6314C24.3006 30.5243 24.2812 30.4047 24.2812 30.2725C24.2812 29.933 24.4214 29.6368 24.7017 29.3839C24.9842 29.1286 25.3135 29.001 25.6895 29.001C25.9424 29.001 26.1839 29.0842 26.4141 29.2505C26.626 29.4055 26.7809 29.5935 26.8789 29.8145L26.7354 29.9376C26.5553 29.8692 26.4118 29.8248 26.3047 29.8043C26.1999 29.7838 26.07 29.7735 25.915 29.7735C25.6325 29.7735 25.3875 29.7963 25.1802 29.8419C24.9181 29.8988 24.7871 29.9809 24.7871 30.088C24.7871 30.2452 25.1038 30.5049 25.7373 30.8672L27.4736 30.3682ZM34.8633 27.9688L34.4531 28.7344L33.6533 28.3174L34.0635 27.545L34.8633 27.9688ZM35.1299 31.9986H34.6719C34.2731 31.9986 33.8208 32.0077 33.3149 32.0259C33.0096 32.0373 32.6131 32.0544 32.1255 32.0772C31.6379 32.1 31.3758 32.1114 31.3394 32.1114C30.854 32.1114 30.5031 32.0259 30.2866 31.855C30.0861 31.6955 29.9858 31.4483 29.9858 31.1133C29.9858 30.8536 30.0109 30.6269 30.061 30.4332C30.1112 30.2395 30.2274 29.9262 30.4097 29.4932L30.6353 29.5958C30.4712 29.9854 30.3892 30.2702 30.3892 30.4503C30.3892 30.685 30.4814 30.8536 30.666 30.9561C30.8711 31.07 31.2254 31.127 31.729 31.127C32.0776 31.1065 32.4172 31.0894 32.7476 31.0757C33.078 31.0598 33.3947 31.0518 33.6978 31.0518C33.6043 31.0062 33.5394 30.9561 33.5029 30.9014C33.4688 30.8445 33.4517 30.7624 33.4517 30.6553C33.4517 30.3295 33.5508 30.0048 33.749 29.6812C33.9632 29.3326 34.1991 29.1583 34.4565 29.1583C34.6981 29.1583 34.8735 29.3269 34.9829 29.6641C35.0809 29.9695 35.1299 30.4377 35.1299 31.0689V31.9986ZM34.5967 30.6348C34.5169 30.4115 34.4508 30.2645 34.3984 30.1939C34.346 30.1233 34.2777 30.088 34.1934 30.088C34.1501 30.088 34.1113 30.105 34.0771 30.1392C34.0452 30.1711 34.0293 30.2133 34.0293 30.2657C34.0293 30.3363 34.0783 30.4024 34.1763 30.4639C34.2743 30.5255 34.4144 30.5824 34.5967 30.6348ZM38.3291 27.9107L37.9873 28.6216L37.3447 28.2798L37.6934 27.5826L38.3291 27.9107ZM38.9922 28.7208L38.6162 29.418L38.1309 29.1446L37.8335 29.6846L37.2217 29.336L37.5771 28.6729L38.083 28.9258L38.3701 28.3721L38.9922 28.7208ZM39.3887 31.9986C39.1335 31.9986 38.9215 31.9804 38.7529 31.9439C38.5843 31.9075 38.418 31.8493 38.2539 31.7696C38.1217 31.863 38.0033 31.9245 37.8984 31.9542C37.7959 31.9838 37.641 31.9986 37.4336 31.9986H36.8765C36.7238 31.9986 36.603 31.9587 36.5142 31.879C36.4253 31.7992 36.3455 31.6671 36.2749 31.4825C36.1496 31.6739 36.0094 31.8106 35.8545 31.8926C35.7223 31.9633 35.564 31.9986 35.3794 31.9986H34.8906V31.0689H35.3794C35.6187 31.0689 35.818 31.0017 35.9775 30.8672C36.1849 30.6918 36.2886 30.4252 36.2886 30.0674L36.5142 30.1016C36.5096 30.1745 36.505 30.2577 36.5005 30.3511C36.4959 30.4446 36.4937 30.5482 36.4937 30.6622C36.4937 30.7784 36.5335 30.8752 36.6133 30.9527C36.693 31.0302 36.7842 31.0689 36.8867 31.0689H37.3071C37.5851 31.0689 37.7834 31.0302 37.9019 30.9527C38.0454 30.8593 38.1172 30.685 38.1172 30.4297C38.1172 30.3751 38.1343 30.3261 38.1685 30.2828C38.189 30.2577 38.2311 30.2201 38.2949 30.17L38.4248 30.0674C38.4294 30.1107 38.4328 30.17 38.4351 30.2452C38.4373 30.3181 38.4385 30.3659 38.4385 30.3887C38.4385 30.5141 38.4202 30.6804 38.3838 30.8878C38.4681 30.9288 38.5627 30.9641 38.6675 30.9937C38.7723 31.0233 38.8828 31.0461 38.999 31.0621C38.999 30.9846 38.9705 30.8843 38.9136 30.7613C38.8566 30.6382 38.8281 30.5551 38.8281 30.5118C38.8281 30.4525 38.8361 30.407 38.8521 30.3751C38.8566 30.3637 38.8817 30.3283 38.9272 30.2691L39.2178 29.876C39.2793 30.0196 39.3226 30.1506 39.3477 30.2691C39.375 30.3853 39.3887 30.5311 39.3887 30.7066V31.9986ZM41.9111 31.9986H39.1494V31.0689H41.3677C41.2788 30.9618 41.1922 30.8684 41.1079 30.7886C41.0396 30.7248 40.9473 30.6474 40.8311 30.5562C40.7012 30.456 40.5724 30.3557 40.4448 30.2554L40.3354 30.3785C40.1326 30.178 40.0119 30.0561 39.9731 30.0128C39.8592 29.8829 39.8022 29.7336 39.8022 29.565C39.8022 29.3349 39.8182 29.1731 39.8501 29.0797C39.8957 28.9475 39.9925 28.8301 40.1406 28.7276C40.2728 28.6365 40.4141 28.5533 40.5645 28.4781C40.6829 28.4188 40.8402 28.3493 41.0361 28.2696C41.1273 28.2331 41.3198 28.1579 41.6138 28.044V28.8575C41.6024 28.8575 41.5067 28.8871 41.3267 28.9464C41.1034 29.0193 40.9256 29.0831 40.7935 29.1378C40.6021 29.2152 40.5063 29.2733 40.5063 29.3121C40.5063 29.3326 40.5872 29.4214 40.749 29.5787C40.9701 29.7929 41.1558 29.9888 41.3062 30.1666C41.5545 30.4605 41.7562 30.7533 41.9111 31.045V31.9986ZM43.5518 31.9986H41.6719V31.0689H43.1416L42.728 28.7481L42.5093 28.6046C42.5093 28.4701 42.5298 28.3345 42.5708 28.1978C42.6232 28.0246 42.7121 27.8184 42.8374 27.5792L42.9946 27.6612C42.9946 27.6749 42.9901 27.7113 42.981 27.7706C42.981 27.8458 43.0288 27.9187 43.1245 27.9893C43.2088 28.0531 43.3433 28.1238 43.5278 28.2012C43.5073 28.3471 43.4766 28.4895 43.4355 28.6285C43.3968 28.7675 43.3524 28.8917 43.3022 29.001L43.1792 28.9532L43.5518 31.0689V31.9986ZM44.8164 31.004C44.8164 31.2068 44.7925 31.3925 44.7446 31.5611C44.6968 31.7274 44.6045 31.9519 44.4678 32.2344L44.2627 32.1524C44.3174 31.8607 44.3447 31.6238 44.3447 31.4415C44.3447 31.3025 44.3333 31.0985 44.3105 30.8297C44.2878 30.5608 44.2593 30.2953 44.2251 30.0333C44.1909 29.7689 44.1351 29.4545 44.0576 29.0899C44.0303 28.9623 44.0166 28.8746 44.0166 28.8267C44.0166 28.7561 44.0519 28.6365 44.1226 28.4678C44.1932 28.2969 44.2923 28.0907 44.4199 27.8492L44.625 29.0591C44.7002 29.5194 44.7526 29.9182 44.7822 30.2554C44.805 30.5152 44.8164 30.7647 44.8164 31.004ZM49.6802 29.1412L49.27 29.9068L48.4702 29.4898L48.8838 28.7173L49.6802 29.1412ZM50.8047 31.8311C50.8047 32.1456 50.7739 32.3985 50.7124 32.5899C50.6509 32.779 50.5495 32.9317 50.4082 33.0479C50.2692 33.1641 50.0641 33.2587 49.793 33.3316C49.5241 33.4068 49.2461 33.4444 48.959 33.4444C48.4053 33.4444 47.978 33.343 47.6772 33.1402C47.3787 32.9397 47.2295 32.6537 47.2295 32.2823C47.2295 31.9656 47.2773 31.6762 47.373 31.4141C47.4779 31.1247 47.6829 30.7488 47.9883 30.2862L48.1934 30.4297C47.9678 30.8148 47.8197 31.094 47.749 31.2672C47.6807 31.4403 47.6465 31.6192 47.6465 31.8038C47.6465 32.043 47.7741 32.239 48.0293 32.3917C48.2868 32.5421 48.624 32.6172 49.041 32.6172C49.4512 32.6172 49.7964 32.5386 50.0767 32.3814C50.3569 32.2242 50.4971 32.0316 50.4971 31.8038C50.4971 31.6625 50.472 31.5224 50.4219 31.3834C50.374 31.2444 50.2692 31.0222 50.1074 30.7169L50.4082 29.794C50.5677 30.0834 50.6657 30.2828 50.7021 30.3922C50.7705 30.5904 50.8047 30.8422 50.8047 31.1475V31.8311ZM53.9629 31.7628C53.9629 32.1547 53.7965 32.5421 53.4639 32.9249C53.1312 33.3077 52.8031 33.4991 52.4795 33.4991C52.2904 33.4991 52.083 33.4387 51.8574 33.3179C51.6341 33.1972 51.29 32.959 50.8252 32.6036L50.9688 32.4053C51.2148 32.5694 51.4165 32.6788 51.5737 32.7335C51.7036 32.779 51.8506 32.8018 52.0146 32.8018C52.2357 32.8018 52.4544 32.7403 52.6709 32.6172C52.9261 32.4714 53.1904 32.2367 53.4639 31.9131C53.3682 31.9268 53.2884 31.9337 53.2246 31.9337C52.999 31.9337 52.819 31.8607 52.6846 31.7149C52.5524 31.5668 52.4863 31.3663 52.4863 31.1133C52.4863 30.7715 52.5649 30.4423 52.7222 30.1255C52.8931 29.7815 53.0879 29.6094 53.3066 29.6094C53.4889 29.6094 53.6439 29.7336 53.7715 29.982C53.8991 30.2304 53.9629 30.53 53.9629 30.8809V31.7628ZM53.5527 31.0689C53.4889 30.702 53.359 30.5186 53.1631 30.5186C53.0924 30.5186 53.0355 30.5471 52.9922 30.6041C52.9512 30.6588 52.9307 30.7191 52.9307 30.7852C52.9307 30.8672 52.9751 30.9356 53.064 30.9903C53.1551 31.0427 53.2747 31.0689 53.4229 31.0689H53.5527ZM56.3623 31.9986H54.814C54.6636 31.9986 54.5485 31.9667 54.4688 31.9029C54.3708 31.8254 54.3218 31.699 54.3218 31.5235C54.3218 31.4232 54.3263 31.315 54.3354 31.1988C54.3468 31.0826 54.3628 30.9652 54.3833 30.8467L54.5132 30.8399C54.5314 30.9197 54.5713 30.9778 54.6328 31.0142C54.6966 31.0507 54.7729 31.0689 54.8618 31.0689H56.0376C55.9852 30.7339 55.894 30.4662 55.7642 30.2657C55.6571 30.0993 55.5078 29.9558 55.3164 29.835L55.5625 28.7686C55.8587 28.9896 56.0684 29.2745 56.1914 29.6231C56.3053 29.9444 56.3623 30.3705 56.3623 30.9014V31.9986ZM61.2637 30.6758L60.9902 31.462C60.637 31.5486 60.3477 31.6465 60.1221 31.7559C59.9124 31.8585 59.7199 31.9883 59.5444 32.1456C59.4305 32.2481 59.263 32.4258 59.042 32.6788L58.8369 32.6036C58.8369 32.4532 58.8757 32.3017 58.9531 32.149C59.0124 32.0305 59.1172 31.8744 59.2676 31.6807C59.0534 31.4665 58.9121 31.3104 58.8438 31.2125C58.7754 31.1145 58.7412 31.0176 58.7412 30.9219C58.7412 30.7943 58.8289 30.5722 59.0044 30.2554C59.1799 29.9387 59.3302 29.7222 59.4556 29.606C59.5832 29.4898 59.7324 29.4317 59.9033 29.4317C60.0651 29.4317 60.2064 29.4659 60.3271 29.5342C60.4502 29.6026 60.5846 29.7256 60.7305 29.9034L60.2725 30.6622C60.1654 30.5414 60.0651 30.4537 59.9717 30.399C59.8783 30.342 59.7894 30.3135 59.7051 30.3135C59.6344 30.3135 59.5706 30.334 59.5137 30.3751C59.459 30.4138 59.4316 30.4594 59.4316 30.5118C59.4316 30.5847 59.4784 30.661 59.5718 30.7408C59.6675 30.8183 59.8281 30.9151 60.0537 31.0313C60.3408 30.8946 60.5562 30.8069 60.6997 30.7681C60.8433 30.7271 61.0312 30.6964 61.2637 30.6758ZM62.8564 31.004C62.8564 31.2068 62.8325 31.3925 62.7847 31.5611C62.7368 31.7274 62.6445 31.9519 62.5078 32.2344L62.3027 32.1524C62.3574 31.8607 62.3848 31.6238 62.3848 31.4415C62.3848 31.3025 62.3734 31.0985 62.3506 30.8297C62.3278 30.5608 62.2993 30.2953 62.2651 30.0333C62.231 29.7689 62.1751 29.4545 62.0977 29.0899C62.0703 28.9623 62.0566 28.8746 62.0566 28.8267C62.0566 28.7561 62.092 28.6365 62.1626 28.4678C62.2332 28.2969 62.3324 28.0907 62.46 27.8492L62.665 29.0591C62.7402 29.5194 62.7926 29.9182 62.8223 30.2554C62.8451 30.5152 62.8564 30.7647 62.8564 31.004ZM65.5088 31.9986H63.9604C63.8101 31.9986 63.695 31.9667 63.6152 31.9029C63.5173 31.8254 63.4683 31.699 63.4683 31.5235C63.4683 31.4232 63.4728 31.315 63.4819 31.1988C63.4933 31.0826 63.5093 30.9652 63.5298 30.8467L63.6597 30.8399C63.6779 30.9197 63.7178 30.9778 63.7793 31.0142C63.8431 31.0507 63.9194 31.0689 64.0083 31.0689H65.1841C65.1317 30.7339 65.0405 30.4662 64.9106 30.2657C64.8035 30.0993 64.6543 29.9558 64.4629 29.835L64.709 28.7686C65.0052 28.9896 65.2148 29.2745 65.3379 29.6231C65.4518 29.9444 65.5088 30.3705 65.5088 30.9014V31.9986ZM68.667 31.7628C68.667 32.1547 68.5007 32.5421 68.168 32.9249C67.8353 33.3077 67.5072 33.4991 67.1836 33.4991C66.9945 33.4991 66.7871 33.4387 66.5615 33.3179C66.3382 33.1972 65.9941 32.959 65.5293 32.6036L65.6729 32.4053C65.9189 32.5694 66.1206 32.6788 66.2778 32.7335C66.4077 32.779 66.5547 32.8018 66.7188 32.8018C66.9398 32.8018 67.1585 32.7403 67.375 32.6172C67.6302 32.4714 67.8945 32.2367 68.168 31.9131C68.0723 31.9268 67.9925 31.9337 67.9287 31.9337C67.7031 31.9337 67.5231 31.8607 67.3887 31.7149C67.2565 31.5668 67.1904 31.3663 67.1904 31.1133C67.1904 30.7715 67.269 30.4423 67.4263 30.1255C67.5972 29.7815 67.792 29.6094 68.0107 29.6094C68.193 29.6094 68.348 29.7336 68.4756 29.982C68.6032 30.2304 68.667 30.53 68.667 30.8809V31.7628ZM68.2568 31.0689C68.193 30.702 68.0632 30.5186 67.8672 30.5186C67.7965 30.5186 67.7396 30.5471 67.6963 30.6041C67.6553 30.6588 67.6348 30.7191 67.6348 30.7852C67.6348 30.8672 67.6792 30.9356 67.7681 30.9903C67.8592 31.0427 67.9788 31.0689 68.127 31.0689H68.2568ZM72.9258 31.9986C72.6706 31.9986 72.4587 31.9804 72.29 31.9439C72.1214 31.9075 71.9551 31.8493 71.791 31.7696C71.6589 31.863 71.5404 31.9245 71.4355 31.9542C71.333 31.9838 71.1781 31.9986 70.9707 31.9986H70.4136C70.2609 31.9986 70.1401 31.9587 70.0513 31.879C69.9624 31.7992 69.8826 31.6671 69.812 31.4825C69.6867 31.6739 69.5465 31.8106 69.3916 31.8926C69.2594 31.9633 69.1011 31.9986 68.9165 31.9986H68.4277V31.0689H68.9165C69.1558 31.0689 69.3551 31.0017 69.5146 30.8672C69.722 30.6918 69.8257 30.4252 69.8257 30.0674L70.0513 30.1016C70.0467 30.1745 70.0422 30.2577 70.0376 30.3511C70.033 30.4446 70.0308 30.5482 70.0308 30.6622C70.0308 30.7784 70.0706 30.8752 70.1504 30.9527C70.2301 31.0302 70.3213 31.0689 70.4238 31.0689H70.8442C71.1222 31.0689 71.3205 31.0302 71.439 30.9527C71.5825 30.8593 71.6543 30.685 71.6543 30.4297C71.6543 30.3751 71.6714 30.3261 71.7056 30.2828C71.7261 30.2577 71.7682 30.2201 71.832 30.17L71.9619 30.0674C71.9665 30.1107 71.9699 30.17 71.9722 30.2452C71.9744 30.3181 71.9756 30.3659 71.9756 30.3887C71.9756 30.5141 71.9574 30.6804 71.9209 30.8878C72.0052 30.9288 72.0998 30.9641 72.2046 30.9937C72.3094 31.0233 72.4199 31.0461 72.5361 31.0621C72.5361 30.9846 72.5076 30.8843 72.4507 30.7613C72.3937 30.6382 72.3652 30.5551 72.3652 30.5118C72.3652 30.4525 72.3732 30.407 72.3892 30.3751C72.3937 30.3637 72.4188 30.3283 72.4644 30.2691L72.7549 29.876C72.8164 30.0196 72.8597 30.1506 72.8848 30.2691C72.9121 30.3853 72.9258 30.5311 72.9258 30.7066V31.9986ZM15.9414 34.2066L15.5654 34.8423L15.0801 34.5689L14.8066 35.1089L14.1709 34.7603L14.5264 34.1588L15.0322 34.4117L15.3296 33.8887L15.9414 34.2066ZM16.731 38.9986H16.2832C16.2012 38.9986 16.126 38.9815 16.0576 38.9473C15.9255 38.8812 15.8138 38.7605 15.7227 38.585C15.5996 38.3435 15.5199 38.0131 15.4834 37.5938C15.3285 37.7852 15.2077 37.9208 15.1211 38.0005C14.9958 38.1168 14.891 38.1749 14.8066 38.1749C14.7633 38.1749 14.7087 38.168 14.6426 38.1544L14.2256 38.0723C14.0479 38.0359 13.9385 38.0097 13.8975 37.9937C13.8564 37.9778 13.8359 37.9493 13.8359 37.9083C13.8359 37.8467 13.9146 37.6531 14.0718 37.3272C14.2313 36.9991 14.3464 36.7963 14.417 36.7188C14.474 36.6573 14.5754 36.5775 14.7212 36.4796C14.8078 36.4203 14.9308 36.344 15.0903 36.2505L15.2715 36.1446C15.2646 36.1127 15.259 36.0808 15.2544 36.0489C15.2521 36.0147 15.251 35.9828 15.251 35.9532C15.251 35.8666 15.2703 35.7584 15.3091 35.6285C15.3501 35.4963 15.4219 35.3334 15.5244 35.1397L15.8525 37.2725C15.9049 37.6075 15.9733 37.8342 16.0576 37.9527C16.1123 38.0302 16.1875 38.0689 16.2832 38.0689H16.731V38.9986ZM15.4014 37.0674L15.333 36.6573C15.2601 36.6915 15.2031 36.7188 15.1621 36.7393C15.0368 36.8054 14.9365 36.8669 14.8613 36.9239C14.8066 36.9695 14.7611 37.0116 14.7246 37.0504C14.679 37.1005 14.6562 37.1381 14.6562 37.1631C14.6562 37.195 14.6961 37.2201 14.7759 37.2383C14.8556 37.2566 14.9342 37.2657 15.0117 37.2657C15.0618 37.2657 15.1143 37.252 15.1689 37.2247C15.2236 37.195 15.3011 37.1426 15.4014 37.0674ZM18.6313 38.9986H16.4917V38.0689H18.2896C18.2645 37.914 18.2189 37.7829 18.1528 37.6758C18.1187 37.6166 18.0389 37.5141 17.9136 37.3682L18.187 36.5547C18.3579 36.7484 18.4741 36.9512 18.5356 37.1631C18.5994 37.3751 18.6313 37.6895 18.6313 38.1065V38.9986ZM18.2827 39.7198L17.8726 40.4854L17.0796 40.0547L17.4897 39.2755L18.2827 39.7198ZM20.5317 38.9986H18.3921V38.0689H20.1899C20.1649 37.914 20.1193 37.7829 20.0532 37.6758C20.019 37.6166 19.9393 37.5141 19.814 37.3682L20.0874 36.5547C20.2583 36.7484 20.3745 36.9512 20.436 37.1631C20.4998 37.3751 20.5317 37.6895 20.5317 38.1065V38.9986ZM20.4771 39.6002L20.1011 40.2974L19.6157 40.024L19.3423 40.564L18.7065 40.2154L19.062 39.5523L19.5679 39.8052L19.855 39.2515L20.4771 39.6002ZM22.374 34.8868L21.998 35.584L21.5127 35.3106L21.2393 35.8506L20.6035 35.502L20.959 34.8389L21.4648 35.0919L21.752 34.5381L22.374 34.8868ZM22.8013 38.9986H20.2925V38.0689H20.9077C21.0125 38.0689 21.1117 38.0735 21.2051 38.0826C21.4557 38.1099 21.7417 38.1407 22.063 38.1749C21.7235 38.0997 21.4854 38.0005 21.3486 37.8775C21.2142 37.7522 21.147 37.571 21.147 37.334C21.147 36.9809 21.2279 36.663 21.3896 36.3804C21.5537 36.0956 21.7371 35.9532 21.9399 35.9532C22.1701 35.9532 22.3706 36.1526 22.5415 36.5513C22.7147 36.9478 22.8013 37.4275 22.8013 37.9903V38.9986ZM22.3364 37.5801C22.2544 37.3842 22.1632 37.2315 22.063 37.1221C21.9627 37.0128 21.8625 36.9581 21.7622 36.9581C21.7166 36.9581 21.6768 36.9729 21.6426 37.0025C21.6084 37.0321 21.5913 37.0674 21.5913 37.1085C21.5913 37.2064 21.6642 37.3021 21.8101 37.3956C21.9582 37.4867 22.1336 37.5482 22.3364 37.5801ZM26.4653 38.9986H22.562V38.0689H24.9922C24.7165 37.7841 24.4613 37.579 24.2266 37.4537C24.0192 37.342 23.8164 37.2862 23.6182 37.2862C23.5589 37.2862 23.5042 37.2896 23.4541 37.2964C23.4062 37.301 23.3356 37.3135 23.2422 37.334C23.3675 37.0469 23.5065 36.835 23.6592 36.6983C23.8141 36.5616 23.9896 36.4932 24.1855 36.4932C24.3359 36.4932 24.4806 36.5297 24.6196 36.6026C24.7586 36.6755 24.9147 36.7929 25.0879 36.9547C25.2246 37.0823 25.4183 37.2816 25.6689 37.5528C25.8398 37.7442 25.9697 37.8684 26.0586 37.9254C26.1497 37.9823 26.2853 38.0302 26.4653 38.0689V38.9986ZM32.4536 38.9986H32.1016C31.999 38.9986 31.925 39.0009 31.8794 39.0054C31.8361 39.01 31.8145 39.0248 31.8145 39.0499C31.8805 39.0886 31.9421 39.1159 31.999 39.1319C32.0583 39.1456 32.097 39.1649 32.1152 39.19C32.1335 39.2128 32.1426 39.2504 32.1426 39.3028C32.1426 39.4646 32.0959 39.6583 32.0024 39.8839C31.9113 40.1072 31.8213 40.2462 31.7324 40.3008C31.6481 40.3715 31.3975 40.4524 30.9805 40.5435C30.5658 40.6369 30.208 40.6837 29.9072 40.6837C29.4788 40.6837 29.1325 40.5948 28.8682 40.4171C28.6038 40.2393 28.4717 40.0069 28.4717 39.7198C28.4717 39.4418 28.5298 39.1763 28.646 38.9234C28.7873 38.6181 29.0482 38.2318 29.4287 37.7647L29.6338 37.9083C29.3945 38.1977 29.2282 38.4335 29.1348 38.6158C29.0436 38.7981 28.998 38.9769 28.998 39.1524C28.998 39.3962 29.0983 39.5774 29.2988 39.6959C29.5016 39.8121 29.8138 39.8702 30.2354 39.8702C30.4541 39.8702 30.7572 39.8303 31.1445 39.7505C31.5319 39.6708 31.7256 39.6013 31.7256 39.5421C31.7256 39.5147 31.6515 39.4896 31.5034 39.4669C31.3553 39.4441 31.1924 39.4327 31.0146 39.4327C30.7549 39.4327 30.625 39.3757 30.625 39.2618C30.625 39.2094 30.6558 39.1159 30.7173 38.9815C30.7606 38.8881 30.805 38.7947 30.8506 38.7012C30.9349 38.5121 31.0955 38.3594 31.3325 38.2432C31.5718 38.127 31.8213 38.0689 32.0811 38.0689H32.4536V38.9986ZM31.0352 41.0391L30.7002 41.4219L30.3379 41.1964L30.0713 41.4835L29.6406 41.2442L29.9619 40.834L30.3379 41.0733L30.6045 40.7657L31.0352 41.0391ZM34.0908 34.4766L33.6807 35.2422L32.8809 34.8253L33.3184 34.0528L34.0908 34.4766ZM34.5864 38.9986H32.2144V38.0689H34.2651C34.2651 37.8707 34.2594 37.7294 34.248 37.6451C34.2298 37.5152 34.1922 37.4024 34.1353 37.3067C34.0623 37.448 33.9644 37.5562 33.8413 37.6314C33.7183 37.7066 33.5872 37.7442 33.4482 37.7442C33.266 37.7442 33.1121 37.6838 32.9868 37.563C32.8615 37.4423 32.7988 37.2908 32.7988 37.1085C32.7988 36.8396 32.8809 36.5206 33.0449 36.1514C33.2249 35.7458 33.4072 35.543 33.5918 35.543C33.8311 35.543 34.0566 35.7515 34.2686 36.1685C34.4805 36.5855 34.5864 37.0264 34.5864 37.4913V38.9986ZM33.8447 36.6983C33.7832 36.5912 33.7285 36.5172 33.6807 36.4761C33.6351 36.4328 33.585 36.4112 33.5303 36.4112C33.4619 36.4112 33.4004 36.442 33.3457 36.5035C33.291 36.565 33.2637 36.6368 33.2637 36.7188C33.2637 36.7712 33.2842 36.8157 33.3252 36.8521C33.3685 36.8863 33.4232 36.9034 33.4893 36.9034C33.5417 36.9034 33.5941 36.8886 33.6465 36.8589C33.7012 36.827 33.7673 36.7735 33.8447 36.6983ZM40.144 40.6221L38.8862 41.3878C38.1457 41.3878 37.6079 41.2476 37.2729 40.9673C36.9403 40.6894 36.7739 40.253 36.7739 39.6583C36.7739 39.2436 36.8537 38.8687 37.0132 38.5338C37.1727 38.1988 37.4233 37.8809 37.7651 37.5801C37.7378 37.4115 37.6763 37.3272 37.5806 37.3272C37.5441 37.3272 37.5156 37.3375 37.4951 37.358C37.4678 37.3922 37.4416 37.4229 37.4165 37.4503L37.2524 37.4161C37.2524 37.0993 37.3231 36.8373 37.4644 36.6299C37.6239 36.3975 37.8472 36.2813 38.1343 36.2813C38.3895 36.2813 38.6003 36.3519 38.7666 36.4932C38.9329 36.6345 39.0161 36.8168 39.0161 37.0401C39.0161 37.1745 38.9819 37.3021 38.9136 37.4229C38.8384 37.5551 38.7358 37.6531 38.606 37.7169C38.7199 37.849 38.8589 37.9459 39.0229 38.0074C39.1346 38.0484 39.2394 38.0689 39.3374 38.0689H39.8159V38.9986H39.3374C39.0116 38.9986 38.7507 38.9348 38.5547 38.8072C38.3359 38.6659 38.1388 38.4141 37.9634 38.0518C37.7082 38.2204 37.5111 38.4141 37.3721 38.6329C37.2331 38.8493 37.1636 39.0704 37.1636 39.296C37.1636 39.6993 37.3413 39.9978 37.6968 40.1915C38.0545 40.3874 38.6174 40.4854 39.3853 40.4854C39.5037 40.4854 39.6291 40.4843 39.7612 40.482C39.8934 40.4797 40.0142 40.4763 40.1235 40.4717L40.144 40.6221ZM41.7163 38.9986H39.5767V38.0689H41.3745C41.3494 37.914 41.3039 37.7829 41.2378 37.6758C41.2036 37.6166 41.1239 37.5141 40.9985 37.3682L41.272 36.5547C41.4429 36.7484 41.5591 36.9512 41.6206 37.1631C41.6844 37.3751 41.7163 37.6895 41.7163 38.1065V38.9986ZM41.6616 39.6002L41.2856 40.2974L40.8003 40.024L40.5269 40.564L39.8911 40.2154L40.2466 39.5523L40.7524 39.8052L41.0396 39.2515L41.6616 39.6002ZM44.7446 39.0772C44.7446 39.2162 44.6649 39.4008 44.5054 39.6309C44.3459 39.8588 44.159 40.057 43.9448 40.2256C43.7078 40.4125 43.505 40.5059 43.3364 40.5059C43.1359 40.5059 42.9206 40.449 42.6904 40.335C42.4899 40.237 42.1766 40.0411 41.7505 39.7471L41.894 39.5352C42.0991 39.6719 42.2643 39.7642 42.3896 39.8121C42.515 39.8599 42.6506 39.8839 42.7964 39.8839C42.9536 39.8839 43.1108 39.8394 43.2681 39.7505C43.4253 39.6617 43.6395 39.4965 43.9106 39.2549C44.2889 38.9177 44.478 38.6579 44.478 38.4756C44.478 38.3845 44.4416 38.2649 44.3687 38.1168C44.2866 37.9481 44.1864 37.808 44.0679 37.6964L44.2593 36.7735C44.4142 36.933 44.5339 37.1164 44.6182 37.3238C44.7025 37.5311 44.7446 37.767 44.7446 38.0313V39.0772ZM49.0034 38.9986C48.7482 38.9986 48.5363 38.9804 48.3677 38.9439C48.1991 38.9075 48.0327 38.8493 47.8687 38.7696C47.7365 38.863 47.618 38.9245 47.5132 38.9542C47.4106 38.9838 47.2557 38.9986 47.0483 38.9986H46.4912C46.3385 38.9986 46.2178 38.9587 46.1289 38.879C46.04 38.7992 45.9603 38.6671 45.8896 38.4825C45.7643 38.6739 45.6242 38.8106 45.4692 38.8926C45.3371 38.9633 45.1787 38.9986 44.9941 38.9986H44.5054V38.0689H44.9941C45.2334 38.0689 45.4328 38.0017 45.5923 37.8672C45.7996 37.6918 45.9033 37.4252 45.9033 37.0674L46.1289 37.1016C46.1243 37.1745 46.1198 37.2577 46.1152 37.3511C46.1107 37.4446 46.1084 37.5482 46.1084 37.6622C46.1084 37.7784 46.1483 37.8752 46.228 37.9527C46.3078 38.0302 46.3989 38.0689 46.5015 38.0689H46.9219C47.1999 38.0689 47.3981 38.0302 47.5166 37.9527C47.6602 37.8593 47.7319 37.685 47.7319 37.4297C47.7319 37.3751 47.749 37.3261 47.7832 37.2828C47.8037 37.2577 47.8459 37.2201 47.9097 37.17L48.0396 37.0674C48.0441 37.1107 48.0475 37.17 48.0498 37.2452C48.0521 37.3181 48.0532 37.3659 48.0532 37.3887C48.0532 37.5141 48.035 37.6804 47.9985 37.8878C48.0828 37.9288 48.1774 37.9641 48.2822 37.9937C48.387 38.0233 48.4976 38.0461 48.6138 38.0621C48.6138 37.9846 48.5853 37.8843 48.5283 37.7613C48.4714 37.6382 48.4429 37.5551 48.4429 37.5118C48.4429 37.4525 48.4508 37.407 48.4668 37.3751C48.4714 37.3637 48.4964 37.3283 48.542 37.2691L48.8325 36.876C48.894 37.0196 48.9373 37.1506 48.9624 37.2691C48.9897 37.3853 49.0034 37.5311 49.0034 37.7066V38.9986ZM53.4741 38.9986L53.0298 38.9952C52.6128 38.9952 52.2437 39.0305 51.9224 39.1011C51.6011 39.1718 51.4404 39.2527 51.4404 39.3438C51.5293 39.6172 51.6079 39.8736 51.6763 40.1129C51.7469 40.3521 51.7822 40.5788 51.7822 40.793C51.7822 40.948 51.7663 41.0733 51.7344 41.169C51.7048 41.2647 51.6478 41.3695 51.5635 41.4835C51.5384 41.1827 51.4826 40.8671 51.396 40.5367C51.3664 40.4205 51.2923 40.1755 51.1738 39.8018C51.1009 39.5717 51.0645 39.419 51.0645 39.3438C51.0645 39.2367 51.0941 39.1034 51.1533 38.9439C51.2012 38.814 51.2559 38.699 51.3174 38.5987C51.3903 38.4848 51.5168 38.3948 51.6968 38.3287C51.8791 38.2626 52.1559 38.209 52.5273 38.168C52.3451 37.9128 52.1855 37.7852 52.0488 37.7852C51.9896 37.7852 51.9338 37.808 51.8813 37.8536C51.8289 37.8991 51.7435 37.9994 51.625 38.1544L51.4609 38.0723C51.5612 37.7237 51.6842 37.456 51.8301 37.2691C51.9782 37.08 52.14 36.9854 52.3154 36.9854C52.4681 36.9854 52.6379 37.0731 52.8247 37.2486C53.0116 37.4241 53.228 37.6975 53.4741 38.0689V38.9986ZM55.3745 38.9986H53.2349V38.0689H55.0327C55.0076 37.914 54.9621 37.7829 54.896 37.6758C54.8618 37.6166 54.7821 37.5141 54.6567 37.3682L54.9302 36.5547C55.1011 36.7484 55.2173 36.9512 55.2788 37.1631C55.3426 37.3751 55.3745 37.6895 55.3745 38.1065V38.9986ZM55.3198 39.6002L54.9438 40.2974L54.4585 40.024L54.1851 40.564L53.5493 40.2154L53.9048 39.5523L54.4106 39.8052L54.6978 39.2515L55.3198 39.6002ZM57.0151 38.9986H55.1353V38.0689H56.605L56.1914 35.7481L55.9727 35.6046C55.9727 35.4701 55.9932 35.3345 56.0342 35.1978C56.0866 35.0246 56.1755 34.8184 56.3008 34.5792L56.458 34.6612C56.458 34.6749 56.4535 34.7113 56.4443 34.7706C56.4443 34.8458 56.4922 34.9187 56.5879 34.9893C56.6722 35.0531 56.8066 35.1238 56.9912 35.2012C56.9707 35.3471 56.9399 35.4895 56.8989 35.6285C56.8602 35.7675 56.8158 35.8917 56.7656 36.001L56.6426 35.9532L57.0151 38.0689V38.9986ZM61.2739 38.9986C61.0187 38.9986 60.8068 38.9804 60.6382 38.9439C60.4696 38.9075 60.3032 38.8493 60.1392 38.7696C60.007 38.863 59.8885 38.9245 59.7837 38.9542C59.6812 38.9838 59.5262 38.9986 59.3188 38.9986H58.7617C58.609 38.9986 58.4883 38.9587 58.3994 38.879C58.3105 38.7992 58.2308 38.6671 58.1602 38.4825C58.0348 38.6739 57.8947 38.8106 57.7397 38.8926C57.6076 38.9633 57.4492 38.9986 57.2646 38.9986H56.7759V38.0689H57.2646C57.5039 38.0689 57.7033 38.0017 57.8628 37.8672C58.0701 37.6918 58.1738 37.4252 58.1738 37.0674L58.3994 37.1016C58.3949 37.1745 58.3903 37.2577 58.3857 37.3511C58.3812 37.4446 58.3789 37.5482 58.3789 37.6622C58.3789 37.7784 58.4188 37.8752 58.4985 37.9527C58.5783 38.0302 58.6694 38.0689 58.772 38.0689H59.1924C59.4704 38.0689 59.6686 38.0302 59.7871 37.9527C59.9307 37.8593 60.0024 37.685 60.0024 37.4297C60.0024 37.3751 60.0195 37.3261 60.0537 37.2828C60.0742 37.2577 60.1164 37.2201 60.1802 37.17L60.3101 37.0674C60.3146 37.1107 60.318 37.17 60.3203 37.2452C60.3226 37.3181 60.3237 37.3659 60.3237 37.3887C60.3237 37.5141 60.3055 37.6804 60.269 37.8878C60.3534 37.9288 60.4479 37.9641 60.5527 37.9937C60.6576 38.0233 60.7681 38.0461 60.8843 38.0621C60.8843 37.9846 60.8558 37.8843 60.7988 37.7613C60.7419 37.6382 60.7134 37.5551 60.7134 37.5118C60.7134 37.4525 60.7214 37.407 60.7373 37.3751C60.7419 37.3637 60.7669 37.3283 60.8125 37.2691L61.103 36.876C61.1646 37.0196 61.2078 37.1506 61.2329 37.2691C61.2603 37.3853 61.2739 37.5311 61.2739 37.7066V38.9986ZM63.1196 35.3448L62.7437 36.0421L62.2583 35.7686L61.9849 36.3087L61.3491 35.96L61.7046 35.2969L62.2104 35.5499L62.4976 34.9962L63.1196 35.3448ZM63.1743 38.9986H61.0347V38.0689H62.8325C62.8075 37.914 62.7619 37.7829 62.6958 37.6758C62.6616 37.6166 62.5819 37.5141 62.4565 37.3682L62.73 36.5547C62.9009 36.7484 63.0171 36.9512 63.0786 37.1631C63.1424 37.3751 63.1743 37.6895 63.1743 38.1065V38.9986Z" fill="#808080"/>
</svg>
