<svg width="57" height="43" viewBox="0 0 57 43" fill="none" xmlns="http://www.w3.org/2000/svg">
<rect width="57" height="43" rx="5" fill="#F4F4F4"/>
<path d="M25.8435 16.7854C25.8435 16.6665 25.7956 16.5524 25.7103 16.4683C25.6249 16.3841 25.5092 16.3369 25.3885 16.3369C25.2678 16.3369 25.152 16.3841 25.0666 16.4683C24.9813 16.5524 24.9333 16.6665 24.9333 16.7854C24.9333 18.3222 26.1601 19.5941 27.7475 19.8016V20.411C27.7475 20.53 27.7955 20.644 27.8808 20.7282C27.9662 20.8123 28.0819 20.8595 28.2026 20.8595C28.3233 20.8595 28.4391 20.8123 28.5244 20.7282C28.6098 20.644 28.6577 20.53 28.6577 20.411V19.8016C30.2451 19.5941 31.4719 18.3222 31.4719 16.7854C31.4719 14.9755 29.9525 14.2349 28.6577 13.8488V10.379C29.4731 10.5652 30.0816 11.2319 30.0816 12.0303C30.0799 12.0902 30.0904 12.1499 30.1125 12.2058C30.1346 12.2617 30.1678 12.3126 30.2102 12.3556C30.2527 12.3986 30.3034 12.4328 30.3594 12.4561C30.4155 12.4795 30.4757 12.4915 30.5366 12.4915C30.5974 12.4915 30.6576 12.4795 30.7137 12.4561C30.7697 12.4328 30.8205 12.3986 30.8629 12.3556C30.9053 12.3126 30.9385 12.2617 30.9606 12.2058C30.9827 12.1499 30.9932 12.0902 30.9915 12.0303C30.9915 10.7392 29.9785 9.66734 28.6577 9.46303V8.58695C28.6577 8.46799 28.6098 8.3539 28.5244 8.26978C28.4391 8.18565 28.3233 8.1384 28.2026 8.1384C28.0819 8.1384 27.9662 8.18565 27.8808 8.26978C27.7955 8.3539 27.7475 8.46799 27.7475 8.58695V9.46303C26.4256 9.66698 25.4134 10.7388 25.4134 12.0303C25.4134 12.8425 25.8313 13.9119 27.7475 14.5202V18.8959C26.664 18.7016 25.8435 17.8302 25.8435 16.7854ZM30.5617 16.7854C30.5617 17.8302 29.7412 18.7016 28.6577 18.8959V14.7915C29.9836 15.239 30.5617 15.8519 30.5617 16.7854ZM26.3236 12.0303C26.3236 11.2319 26.9317 10.5652 27.7475 10.379V13.5674C26.8058 13.2112 26.3236 12.6971 26.3236 12.0303Z" fill="#808080"/>
<path d="M36.6207 13.7957C36.6001 13.7807 36.5784 13.7674 36.5556 13.7561C36.528 13.7461 36.4995 13.7388 36.4705 13.7344C36.4411 13.7268 36.4109 13.7223 36.3805 13.7208C36.3729 13.7208 36.3664 13.7172 36.3584 13.7176C36.3394 13.7208 36.3207 13.7253 36.3023 13.7311C36.2705 13.7352 36.2392 13.7428 36.209 13.7536C36.1799 13.7661 36.1524 13.7818 36.1269 13.8003C36.1092 13.8089 36.0922 13.8187 36.0758 13.8296L34.2967 15.3792C34.2063 15.458 34.1514 15.5689 34.144 15.6876C34.1366 15.8063 34.1773 15.923 34.2573 16.0121C34.3372 16.1012 34.4497 16.1553 34.5702 16.1626C34.6906 16.1699 34.809 16.1297 34.8994 16.0509L35.8903 15.1881C35.724 16.9994 34.9042 18.6919 33.5798 19.9583C32.2554 21.2247 30.5141 21.981 28.6722 22.0898C26.8302 22.1987 25.0097 21.6529 23.5412 20.5516C22.0728 19.4503 21.0537 17.8664 20.669 16.0877C20.6433 15.9719 20.5722 15.8708 20.4712 15.8065C20.3701 15.7423 20.2474 15.72 20.1298 15.7447C20.0122 15.7693 19.9092 15.8388 19.8434 15.938C19.7776 16.0372 19.7544 16.1581 19.7787 16.2742C20.1853 18.1789 21.2452 19.8876 22.78 21.1125C24.3147 22.3375 26.2308 23.004 28.2057 23C28.3272 23 28.4495 22.9975 28.5718 22.9925C30.6539 22.9092 32.6346 22.0841 34.1464 20.6705C35.6581 19.2569 36.5982 17.3507 36.7921 15.3057L37.6083 16.216C37.6888 16.3031 37.8008 16.3554 37.9201 16.3618C38.0394 16.3681 38.1565 16.328 38.246 16.25C38.3356 16.172 38.3904 16.0624 38.3987 15.9449C38.4069 15.8274 38.368 15.7114 38.2902 15.622L36.718 13.8684C36.7126 13.8627 36.705 13.8602 36.6995 13.8545C36.6755 13.8321 36.6491 13.8124 36.6207 13.7957Z" fill="#808080"/>
<path d="M19.7143 15.1339C19.7182 15.1382 19.724 15.14 19.728 15.1439C19.7502 15.1639 19.7745 15.1816 19.8004 15.1967C19.822 15.2138 19.8453 15.2288 19.8698 15.2416C19.8956 15.2504 19.9221 15.2568 19.949 15.2608C19.975 15.27 20.0018 15.2766 20.029 15.2808H20.0702C20.0853 15.2781 20.1001 15.2744 20.1147 15.2698C20.1547 15.2657 20.1938 15.2564 20.2312 15.2419C20.2518 15.2316 20.2715 15.2197 20.2902 15.2063C20.3137 15.1947 20.3362 15.1813 20.3575 15.166L22.1157 13.5939C22.1992 13.5127 22.2478 13.4029 22.2512 13.2872C22.2546 13.1716 22.2126 13.0591 22.134 12.9733C22.0553 12.8875 21.9461 12.8348 21.829 12.8264C21.712 12.818 21.5962 12.8545 21.5057 12.9282L20.5423 13.79C20.7129 11.9588 21.5524 10.2509 22.9048 8.98395C24.2571 7.71702 26.0303 6.97728 27.8945 6.90228C31.54 6.75965 34.8237 9.17466 35.701 12.6597C35.7143 12.718 35.7393 12.7731 35.7745 12.8218C35.8097 12.8705 35.8544 12.9117 35.906 12.9431C35.9576 12.9745 36.015 12.9955 36.0749 13.0047C36.1349 13.0139 36.196 13.0112 36.2549 12.9968C36.3137 12.9824 36.3691 12.9565 36.4176 12.9207C36.4662 12.8849 36.507 12.8399 36.5377 12.7883C36.5683 12.7368 36.5882 12.6797 36.5962 12.6204C36.6042 12.5612 36.6001 12.5009 36.5841 12.4433C35.6033 8.54675 31.9224 5.83187 27.8569 6.00623C25.7712 6.08951 23.7873 6.91706 22.2746 8.33478C20.762 9.7525 19.8236 11.6638 19.6343 13.7126L18.7925 12.7981C18.7524 12.7544 18.7039 12.719 18.6499 12.6937C18.5959 12.6685 18.5373 12.6541 18.4776 12.6511C18.4179 12.6482 18.3583 12.6569 18.302 12.6768C18.2457 12.6966 18.1939 12.7271 18.1496 12.7667C18.1053 12.8062 18.0693 12.854 18.0438 12.9072C18.0182 12.9605 18.0035 13.0182 18.0006 13.077C17.9976 13.1358 18.0064 13.1947 18.0265 13.2501C18.0467 13.3056 18.0777 13.3566 18.1178 13.4003L19.7143 15.1339Z" fill="#808080"/>
<path d="M7.62305 31.9131C7.62305 32.2641 7.44076 32.5751 7.07617 32.8463C6.71159 33.1174 6.29574 33.253 5.82861 33.253C5.43896 33.253 5.13363 33.155 4.9126 32.959C4.69385 32.7608 4.58447 32.4851 4.58447 32.1319C4.58447 31.8015 4.62549 31.5132 4.70752 31.2672C4.80094 30.9892 4.98324 30.6485 5.25439 30.2452L5.46631 30.3887C5.28857 30.6553 5.16211 30.8866 5.08691 31.0826C5.01172 31.2785 4.97412 31.4734 4.97412 31.6671C4.97412 31.8744 5.05046 32.0351 5.20312 32.149C5.35807 32.2606 5.57568 32.3165 5.85596 32.3165C6.257 32.3165 6.58285 32.239 6.8335 32.084C7.08415 31.9291 7.20947 31.7263 7.20947 31.4756C7.20947 31.4324 7.20947 31.3982 7.20947 31.3731C7.20947 31.348 7.20947 31.3287 7.20947 31.315C7.20947 31.2261 7.2015 31.1282 7.18555 31.0211C7.17188 30.914 7.13428 30.6929 7.07275 30.358C6.97477 29.8179 6.87679 29.2768 6.77881 28.7344L6.60791 28.6114C6.60791 28.3881 6.71273 28.0463 6.92236 27.586L7.07959 27.6612C7.07048 27.6931 7.06592 27.7296 7.06592 27.7706C7.06592 27.8617 7.11263 27.9358 7.20605 27.9927C7.34505 28.0702 7.47607 28.1443 7.59912 28.2149C7.57406 28.4109 7.54899 28.551 7.52393 28.6353C7.49886 28.7196 7.44645 28.8461 7.3667 29.0147L7.26416 28.9737C7.26416 29.0079 7.29606 29.2027 7.35986 29.5582C7.42594 29.9114 7.48177 30.2167 7.52734 30.4742C7.59115 30.8433 7.62305 31.0678 7.62305 31.1475V31.9131ZM8.8877 31.004C8.8877 31.2068 8.86377 31.3925 8.81592 31.5611C8.76807 31.7274 8.67578 31.9519 8.53906 32.2344L8.33398 32.1524C8.38867 31.8607 8.41602 31.6238 8.41602 31.4415C8.41602 31.3025 8.40462 31.0985 8.38184 30.8297C8.35905 30.5608 8.33057 30.2953 8.29639 30.0333C8.26221 29.7689 8.20638 29.4545 8.12891 29.0899C8.10156 28.9623 8.08789 28.8746 8.08789 28.8267C8.08789 28.7561 8.12321 28.6365 8.19385 28.4678C8.26449 28.2969 8.36361 28.0907 8.49121 27.8492L8.69629 29.0591C8.77148 29.5194 8.82389 29.9182 8.85352 30.2554C8.8763 30.5152 8.8877 30.7647 8.8877 31.004ZM12.2988 31.7628C12.2988 32.1547 12.1325 32.5421 11.7998 32.9249C11.4671 33.3077 11.139 33.4991 10.8154 33.4991C10.6263 33.4991 10.4189 33.4387 10.1934 33.3179C9.97005 33.1972 9.62598 32.959 9.16113 32.6036L9.30469 32.4053C9.55078 32.5694 9.75244 32.6788 9.90967 32.7335C10.0396 32.779 10.1865 32.8018 10.3506 32.8018C10.5716 32.8018 10.7904 32.7403 11.0068 32.6172C11.262 32.4714 11.5264 32.2367 11.7998 31.9131C11.7041 31.9268 11.6243 31.9337 11.5605 31.9337C11.335 31.9337 11.1549 31.8607 11.0205 31.7149C10.8883 31.5668 10.8223 31.3663 10.8223 31.1133C10.8223 30.7715 10.9009 30.4423 11.0581 30.1255C11.229 29.7815 11.4238 29.6094 11.6426 29.6094C11.8249 29.6094 11.9798 29.7336 12.1074 29.982C12.235 30.2304 12.2988 30.53 12.2988 30.8809V31.7628ZM11.8887 31.0689C11.8249 30.702 11.695 30.5186 11.499 30.5186C11.4284 30.5186 11.3714 30.5471 11.3281 30.6041C11.2871 30.6588 11.2666 30.7191 11.2666 30.7852C11.2666 30.8672 11.311 30.9356 11.3999 30.9903C11.491 31.0427 11.6107 31.0689 11.7588 31.0689H11.8887ZM15.2041 31.9952C14.9648 31.9952 14.6834 31.9485 14.3599 31.855C14.075 31.773 13.8244 31.6762 13.6079 31.5645C13.4757 31.7628 13.3128 31.8926 13.1191 31.9542C13.0257 31.9838 12.8981 31.9986 12.7363 31.9986H12.0596V31.0689H12.7363C12.9414 31.0689 13.1043 31.0438 13.2251 30.9937C13.38 30.9299 13.4871 30.8194 13.5464 30.6622C13.6763 30.3728 13.8426 30.1347 14.0454 29.9478C14.2254 29.7815 14.3781 29.6983 14.5034 29.6983C14.6196 29.6983 14.7632 29.8738 14.9341 30.2247C15.1141 30.5961 15.2041 30.9379 15.2041 31.2501V31.9952ZM14.5649 30.963C14.5649 30.9128 14.516 30.8262 14.418 30.7032C14.3086 30.5665 14.214 30.4981 14.1343 30.4981C14.0454 30.4981 13.9702 30.6006 13.9087 30.8057C14.0272 30.8513 14.1172 30.8855 14.1787 30.9083C14.3633 30.9766 14.467 31.0108 14.4897 31.0108C14.5399 31.0108 14.5649 30.9949 14.5649 30.963ZM18.499 28.3653C18.499 28.5248 18.4831 28.6854 18.4512 28.8472C18.4375 28.9156 18.4056 29.0398 18.3555 29.2198L18.1094 29.1241C18.1094 29.393 18.0775 29.6607 18.0137 29.9273C17.9499 30.1939 17.8473 30.4571 17.7061 30.7169C17.8314 30.9424 17.9043 31.0746 17.9248 31.1133C17.9795 31.2182 18.0068 31.3127 18.0068 31.397V31.503C18.0068 31.56 17.9886 31.7924 17.9521 32.2003C17.6924 32.3233 17.46 32.4031 17.2549 32.4395C17.0521 32.476 16.749 32.4942 16.3457 32.4942V31.4825C16.5758 31.364 16.7399 31.2649 16.8379 31.1851C16.9382 31.1031 17.068 30.963 17.2275 30.7647C16.9678 30.4366 16.7786 30.2053 16.6602 30.0709C16.5645 29.9615 16.4414 29.835 16.291 29.6915C16.2546 29.7667 16.2272 29.8168 16.209 29.8419C16.193 29.8646 16.1771 29.876 16.1611 29.876C16.1064 29.876 16.0039 29.8293 15.8535 29.7359C15.7191 29.6516 15.6154 29.5764 15.5425 29.5103C15.4696 29.4442 15.4137 29.3212 15.375 29.1412C15.3385 28.9589 15.3203 28.7276 15.3203 28.4473C15.3203 28.3243 15.3271 28.2388 15.3408 28.191C15.3568 28.1431 15.3887 28.1192 15.4365 28.1192C15.5254 28.1192 15.7054 28.2468 15.9766 28.502C16.209 28.7208 16.4163 28.9395 16.5986 29.1583C16.7422 29.3155 16.8721 29.4727 16.9883 29.6299C17.0931 29.7689 17.2572 30.0082 17.4805 30.3477C17.583 30.154 17.6536 29.9068 17.6924 29.606C17.7152 29.4237 17.7266 29.2061 17.7266 28.9532C17.6445 28.9144 17.5887 28.8769 17.5591 28.8404C17.5295 28.8017 17.5146 28.7504 17.5146 28.6866C17.5146 28.5499 17.5295 28.4109 17.5591 28.2696C17.5887 28.1283 17.6377 27.9802 17.7061 27.8253L17.8496 27.8731C17.8496 28.0189 17.8838 28.1158 17.9521 28.1636C18.0068 28.2024 18.1891 28.2696 18.499 28.3653ZM17.6035 31.3389L17.4395 31.086C17.3392 31.1977 17.2617 31.2774 17.207 31.3253C17.1546 31.3708 17.0612 31.4415 16.9268 31.5372C17.0999 31.5189 17.223 31.4996 17.2959 31.4791C17.3711 31.4563 17.4736 31.4096 17.6035 31.3389ZM16.3491 27.4117C16.3286 27.4846 16.3013 27.5381 16.2671 27.5723C16.242 27.5974 16.2033 27.6179 16.1509 27.6339L15.4126 27.8594C15.4582 27.7774 15.498 27.7216 15.5322 27.692C15.5664 27.6601 15.6257 27.6282 15.71 27.5963C15.6462 27.5552 15.5994 27.5176 15.5698 27.4835C15.5425 27.447 15.5288 27.4117 15.5288 27.3775C15.5288 27.3479 15.5379 27.3148 15.5562 27.2784C15.5744 27.2396 15.5983 27.202 15.6279 27.1656C15.776 26.9673 15.923 26.8682 16.0688 26.8682C16.1121 26.8682 16.1463 26.883 16.1714 26.9127C16.1987 26.94 16.2124 26.9765 16.2124 27.022C16.2124 27.0585 16.2067 27.0904 16.1953 27.1177C16.1862 27.1428 16.1657 27.1815 16.1338 27.2339C16.0199 27.177 15.9424 27.1485 15.9014 27.1485C15.8604 27.1485 15.8193 27.1588 15.7783 27.1793C15.751 27.1929 15.7259 27.2112 15.7031 27.2339C15.7031 27.2636 15.7578 27.3091 15.8672 27.3707C15.9766 27.4322 16.0552 27.463 16.103 27.463C16.1326 27.463 16.2147 27.4459 16.3491 27.4117ZM19.873 31.004C19.873 31.2068 19.8491 31.3925 19.8013 31.5611C19.7534 31.7274 19.6611 31.9519 19.5244 32.2344L19.3193 32.1524C19.374 31.8607 19.4014 31.6238 19.4014 31.4415C19.4014 31.3025 19.39 31.0985 19.3672 30.8297C19.3444 30.5608 19.3159 30.2953 19.2817 30.0333C19.2476 29.7689 19.1917 29.4545 19.1143 29.0899C19.0869 28.9623 19.0732 28.8746 19.0732 28.8267C19.0732 28.7561 19.1086 28.6365 19.1792 28.4678C19.2498 28.2969 19.349 28.0907 19.4766 27.8492L19.6816 29.0591C19.7568 29.5194 19.8092 29.9182 19.8389 30.2554C19.8617 30.5152 19.873 30.7647 19.873 31.004ZM24.4736 31.9986H22.9253C22.7749 31.9986 22.6598 31.9667 22.5801 31.9029C22.4821 31.8254 22.4331 31.699 22.4331 31.5235C22.4331 31.4232 22.4377 31.315 22.4468 31.1988C22.4582 31.0826 22.4741 30.9652 22.4946 30.8467L22.6245 30.8399C22.6427 30.9197 22.6826 30.9778 22.7441 31.0142C22.8079 31.0507 22.8843 31.0689 22.9731 31.0689H24.1489C24.0965 30.7339 24.0054 30.4662 23.8755 30.2657C23.7684 30.0993 23.6191 29.9558 23.4277 29.835L23.6738 28.7686C23.9701 28.9896 24.1797 29.2745 24.3027 29.6231C24.4167 29.9444 24.4736 30.3705 24.4736 30.9014V31.9986ZM25.7383 31.004C25.7383 31.2068 25.7144 31.3925 25.6665 31.5611C25.6187 31.7274 25.5264 31.9519 25.3896 32.2344L25.1846 32.1524C25.2393 31.8607 25.2666 31.6238 25.2666 31.4415C25.2666 31.3025 25.2552 31.0985 25.2324 30.8297C25.2096 30.5608 25.1812 30.2953 25.147 30.0333C25.1128 29.7689 25.057 29.4545 24.9795 29.0899C24.9521 28.9623 24.9385 28.8746 24.9385 28.8267C24.9385 28.7561 24.9738 28.6365 25.0444 28.4678C25.1151 28.2969 25.2142 28.0907 25.3418 27.8492L25.5469 29.0591C25.6221 29.5194 25.6745 29.9182 25.7041 30.2554C25.7269 30.5152 25.7383 30.7647 25.7383 31.004ZM28.3906 31.9986H26.8423C26.6919 31.9986 26.5768 31.9667 26.4971 31.9029C26.3991 31.8254 26.3501 31.699 26.3501 31.5235C26.3501 31.4232 26.3547 31.315 26.3638 31.1988C26.3752 31.0826 26.3911 30.9652 26.4116 30.8467L26.5415 30.8399C26.5597 30.9197 26.5996 30.9778 26.6611 31.0142C26.7249 31.0507 26.8013 31.0689 26.8901 31.0689H28.0659C28.0135 30.7339 27.9224 30.4662 27.7925 30.2657C27.6854 30.0993 27.5361 29.9558 27.3447 29.835L27.5908 28.7686C27.887 28.9896 28.0967 29.2745 28.2197 29.6231C28.3337 29.9444 28.3906 30.3705 28.3906 30.9014V31.9986ZM31.4189 32.0772C31.4189 32.2162 31.3392 32.4008 31.1797 32.6309C31.0202 32.8588 30.8333 33.057 30.6191 33.2256C30.3822 33.4125 30.1794 33.5059 30.0107 33.5059C29.8102 33.5059 29.5949 33.449 29.3647 33.335C29.1642 33.237 28.8509 33.0411 28.4248 32.7471L28.5684 32.5352C28.7734 32.6719 28.9386 32.7642 29.064 32.8121C29.1893 32.8599 29.3249 32.8839 29.4707 32.8839C29.6279 32.8839 29.7852 32.8394 29.9424 32.7505C30.0996 32.6617 30.3138 32.4965 30.585 32.2549C30.9632 31.9177 31.1523 31.6579 31.1523 31.4756C31.1523 31.3845 31.1159 31.2649 31.043 31.1168C30.9609 30.9481 30.8607 30.808 30.7422 30.6964L30.9336 29.7735C31.0885 29.933 31.2082 30.1164 31.2925 30.3238C31.3768 30.5311 31.4189 30.767 31.4189 31.0313V32.0772ZM33.2646 28.3448L32.8887 29.0421L32.4033 28.7686L32.1299 29.3087L31.4941 28.96L31.8496 28.2969L32.3555 28.5499L32.6426 27.9962L33.2646 28.3448ZM33.3193 31.9986H31.1797V31.0689H32.9775C32.9525 30.914 32.9069 30.7829 32.8408 30.6758C32.8066 30.6166 32.7269 30.5141 32.6016 30.3682L32.875 29.5547C33.0459 29.7484 33.1621 29.9512 33.2236 30.1631C33.2874 30.3751 33.3193 30.6895 33.3193 31.1065V31.9986ZM37.5781 31.9986C37.3229 31.9986 37.111 31.9804 36.9424 31.9439C36.7738 31.9075 36.6074 31.8493 36.4434 31.7696C36.3112 31.863 36.1927 31.9245 36.0879 31.9542C35.9854 31.9838 35.8304 31.9986 35.623 31.9986H35.0659C34.9132 31.9986 34.7925 31.9587 34.7036 31.879C34.6147 31.7992 34.535 31.6671 34.4644 31.4825C34.339 31.6739 34.1989 31.8106 34.0439 31.8926C33.9118 31.9633 33.7534 31.9986 33.5688 31.9986H33.0801V31.0689H33.5688C33.8081 31.0689 34.0075 31.0017 34.167 30.8672C34.3743 30.6918 34.478 30.4252 34.478 30.0674L34.7036 30.1016C34.6991 30.1745 34.6945 30.2577 34.6899 30.3511C34.6854 30.4446 34.6831 30.5482 34.6831 30.6622C34.6831 30.7784 34.723 30.8752 34.8027 30.9527C34.8825 31.0302 34.9736 31.0689 35.0762 31.0689H35.4966C35.7746 31.0689 35.9728 31.0302 36.0913 30.9527C36.2349 30.8593 36.3066 30.685 36.3066 30.4297C36.3066 30.3751 36.3237 30.3261 36.3579 30.2828C36.3784 30.2577 36.4206 30.2201 36.4844 30.17L36.6143 30.0674C36.6188 30.1107 36.6222 30.17 36.6245 30.2452C36.6268 30.3181 36.6279 30.3659 36.6279 30.3887C36.6279 30.5141 36.6097 30.6804 36.5732 30.8878C36.6576 30.9288 36.7521 30.9641 36.8569 30.9937C36.9618 31.0233 37.0723 31.0461 37.1885 31.0621C37.1885 30.9846 37.16 30.8843 37.103 30.7613C37.0461 30.6382 37.0176 30.5551 37.0176 30.5118C37.0176 30.4525 37.0256 30.407 37.0415 30.3751C37.0461 30.3637 37.0711 30.3283 37.1167 30.2691L37.4072 29.876C37.4688 30.0196 37.512 30.1506 37.5371 30.2691C37.5645 30.3853 37.5781 30.5311 37.5781 30.7066V31.9986ZM40.873 28.3653C40.873 28.5248 40.8571 28.6854 40.8252 28.8472C40.8115 28.9156 40.7796 29.0398 40.7295 29.2198L40.4834 29.1241C40.4834 29.393 40.4515 29.6607 40.3877 29.9273C40.3239 30.1939 40.2214 30.4571 40.0801 30.7169C40.2054 30.9424 40.2783 31.0746 40.2988 31.1133C40.3535 31.2182 40.3809 31.3127 40.3809 31.397V31.503C40.3809 31.56 40.3626 31.7924 40.3262 32.2003C40.0664 32.3233 39.834 32.4031 39.6289 32.4395C39.4261 32.476 39.123 32.4942 38.7197 32.4942V31.4825C38.9499 31.364 39.1139 31.2649 39.2119 31.1851C39.3122 31.1031 39.4421 30.963 39.6016 30.7647C39.3418 30.4366 39.1527 30.2053 39.0342 30.0709C38.9385 29.9615 38.8154 29.835 38.665 29.6915C38.6286 29.7667 38.6012 29.8168 38.583 29.8419C38.5671 29.8646 38.5511 29.876 38.5352 29.876C38.4805 29.876 38.3779 29.8293 38.2275 29.7359C38.0931 29.6516 37.9894 29.5764 37.9165 29.5103C37.8436 29.4442 37.7878 29.3212 37.749 29.1412C37.7126 28.9589 37.6943 28.7276 37.6943 28.4473C37.6943 28.3243 37.7012 28.2388 37.7148 28.191C37.7308 28.1431 37.7627 28.1192 37.8105 28.1192C37.8994 28.1192 38.0794 28.2468 38.3506 28.502C38.583 28.7208 38.7904 28.9395 38.9727 29.1583C39.1162 29.3155 39.2461 29.4727 39.3623 29.6299C39.4671 29.7689 39.6312 30.0082 39.8545 30.3477C39.957 30.154 40.0277 29.9068 40.0664 29.606C40.0892 29.4237 40.1006 29.2061 40.1006 28.9532C40.0186 28.9144 39.9627 28.8769 39.9331 28.8404C39.9035 28.8017 39.8887 28.7504 39.8887 28.6866C39.8887 28.5499 39.9035 28.4109 39.9331 28.2696C39.9627 28.1283 40.0117 27.9802 40.0801 27.8253L40.2236 27.8731C40.2236 28.0189 40.2578 28.1158 40.3262 28.1636C40.3809 28.2024 40.5632 28.2696 40.873 28.3653ZM39.9775 31.3389L39.8135 31.086C39.7132 31.1977 39.6357 31.2774 39.5811 31.3253C39.5286 31.3708 39.4352 31.4415 39.3008 31.5372C39.474 31.5189 39.597 31.4996 39.6699 31.4791C39.7451 31.4563 39.8477 31.4096 39.9775 31.3389ZM44.0244 27.9981C44.0244 28.1029 43.9663 28.2043 43.8501 28.3023C43.6427 28.3866 43.3112 28.5199 42.8555 28.7022C42.8555 28.6042 42.9056 28.5097 43.0059 28.4185C43.195 28.3388 43.5345 28.1986 44.0244 27.9981ZM44.0244 28.5108C44.0244 28.6202 43.9674 28.7239 43.8535 28.8218C43.6439 28.9061 43.3112 29.0394 42.8555 29.2217C42.8555 29.1238 42.9056 29.0292 43.0059 28.938C43.195 28.8583 43.5345 28.7159 44.0244 28.5108ZM44.5713 31.9986H44.0928C43.8262 31.9986 43.6336 31.8892 43.5151 31.6705C43.383 31.4289 43.3169 31.0222 43.3169 30.4503V29.4761C43.3169 29.2551 43.2861 29.0831 43.2246 28.96C43.195 28.9008 43.1266 28.8153 43.0195 28.7037L43.3887 27.8492C43.5208 28.0315 43.6131 28.2115 43.6655 28.3892C43.7271 28.5966 43.7578 28.8609 43.7578 29.1822V29.8555C43.7578 30.3318 43.7897 30.6622 43.8535 30.8467C43.9036 30.9949 43.9834 31.0689 44.0928 31.0689H44.5713V31.9986ZM47.4766 31.9952C47.2373 31.9952 46.9559 31.9485 46.6323 31.855C46.3475 31.773 46.0968 31.6762 45.8804 31.5645C45.7482 31.7628 45.5853 31.8926 45.3916 31.9542C45.2982 31.9838 45.1706 31.9986 45.0088 31.9986H44.332V31.0689H45.0088C45.2139 31.0689 45.3768 31.0438 45.4976 30.9937C45.6525 30.9299 45.7596 30.8194 45.8188 30.6622C45.9487 30.3728 46.1151 30.1347 46.3179 29.9478C46.4979 29.7815 46.6506 29.6983 46.7759 29.6983C46.8921 29.6983 47.0356 29.8738 47.2065 30.2247C47.3866 30.5961 47.4766 30.9379 47.4766 31.2501V31.9952ZM46.8374 30.963C46.8374 30.9128 46.7884 30.8262 46.6904 30.7032C46.5811 30.5665 46.4865 30.4981 46.4067 30.4981C46.3179 30.4981 46.2427 30.6006 46.1812 30.8057C46.2996 30.8513 46.3896 30.8855 46.4512 30.9083C46.6357 30.9766 46.7394 31.0108 46.7622 31.0108C46.8123 31.0108 46.8374 30.9949 46.8374 30.963ZM50.6348 31.7628C50.6348 32.1547 50.4684 32.5421 50.1357 32.9249C49.8031 33.3077 49.4749 33.4991 49.1514 33.4991C48.9622 33.4991 48.7549 33.4387 48.5293 33.3179C48.306 33.1972 47.9619 32.959 47.4971 32.6036L47.6406 32.4053C47.8867 32.5694 48.0884 32.6788 48.2456 32.7335C48.3755 32.779 48.5225 32.8018 48.6865 32.8018C48.9076 32.8018 49.1263 32.7403 49.3428 32.6172C49.598 32.4714 49.8623 32.2367 50.1357 31.9131C50.04 31.9268 49.9603 31.9337 49.8965 31.9337C49.6709 31.9337 49.4909 31.8607 49.3564 31.7149C49.2243 31.5668 49.1582 31.3663 49.1582 31.1133C49.1582 30.7715 49.2368 30.4423 49.394 30.1255C49.5649 29.7815 49.7598 29.6094 49.9785 29.6094C50.1608 29.6094 50.3158 29.7336 50.4434 29.982C50.571 30.2304 50.6348 30.53 50.6348 30.8809V31.7628ZM50.2246 31.0689C50.1608 30.702 50.0309 30.5186 49.835 30.5186C49.7643 30.5186 49.7074 30.5471 49.6641 30.6041C49.623 30.6588 49.6025 30.7191 49.6025 30.7852C49.6025 30.8672 49.647 30.9356 49.7358 30.9903C49.827 31.0427 49.9466 31.0689 50.0947 31.0689H50.2246ZM52.5352 31.9986H50.3955V31.0689H52.1934C52.1683 30.914 52.1227 30.7829 52.0566 30.6758C52.0225 30.6166 51.9427 30.5141 51.8174 30.3682L52.0908 29.5547C52.2617 29.7484 52.3779 29.9512 52.4395 30.1631C52.5033 30.3751 52.5352 30.6895 52.5352 31.1065V31.9986ZM52.4805 32.6002L52.1045 33.2974L51.6191 33.024L51.3457 33.564L50.71 33.2154L51.0654 32.5523L51.5713 32.8052L51.8584 32.2515L52.4805 32.6002ZM24.9214 38.8414L25.8511 38.7388C25.8739 38.928 25.9331 39.0681 26.0288 39.1592C26.1245 39.2504 26.251 39.296 26.4082 39.296C26.6064 39.296 26.7751 39.2048 26.9141 39.0225C27.0531 38.8402 27.1419 38.462 27.1807 37.8878C26.9391 38.168 26.6372 38.3082 26.2749 38.3082C25.8807 38.3082 25.54 38.1566 25.2529 37.8536C24.9681 37.5482 24.8257 37.1518 24.8257 36.6641C24.8257 36.156 24.9761 35.747 25.2769 35.4371C25.5799 35.1249 25.965 34.9688 26.4321 34.9688C26.9403 34.9688 27.3573 35.1659 27.6831 35.5601C28.009 35.952 28.1719 36.598 28.1719 37.4981C28.1719 38.4141 28.0021 39.0749 27.6626 39.4805C27.3231 39.8861 26.881 40.0889 26.3364 40.0889C25.9445 40.0889 25.6278 39.9852 25.3862 39.7779C25.1447 39.5683 24.9897 39.2561 24.9214 38.8414ZM27.0952 36.7427C27.0952 36.4328 27.0234 36.1924 26.8799 36.0215C26.7386 35.8506 26.5745 35.7652 26.3877 35.7652C26.21 35.7652 26.0618 35.8358 25.9434 35.9771C25.8271 36.1161 25.769 36.3451 25.769 36.6641C25.769 36.9877 25.8328 37.2258 25.9604 37.3785C26.0881 37.5289 26.2476 37.6041 26.439 37.6041C26.6235 37.6041 26.7785 37.5311 26.9038 37.3853C27.0314 37.2395 27.0952 37.0253 27.0952 36.7427ZM30.4209 34.9688C30.9062 34.9688 31.2856 35.142 31.5591 35.4883C31.8849 35.8985 32.0479 36.5787 32.0479 37.5289C32.0479 38.4768 31.8838 39.1581 31.5557 39.5728C31.2845 39.9146 30.9062 40.0855 30.4209 40.0855C29.9333 40.0855 29.5402 39.8987 29.2417 39.525C28.9432 39.149 28.7939 38.4802 28.7939 37.5186C28.7939 36.5753 28.958 35.8962 29.2861 35.4815C29.5573 35.1397 29.9355 34.9688 30.4209 34.9688ZM30.4209 35.7652C30.3047 35.7652 30.201 35.8028 30.1099 35.878C30.0187 35.9509 29.9481 36.0831 29.8979 36.2745C29.8319 36.5228 29.7988 36.941 29.7988 37.5289C29.7988 38.1168 29.8285 38.5212 29.8877 38.7422C29.9469 38.961 30.021 39.1068 30.1099 39.1797C30.201 39.2527 30.3047 39.2891 30.4209 39.2891C30.5371 39.2891 30.6408 39.2527 30.7319 39.1797C30.8231 39.1046 30.8937 38.9713 30.9438 38.7798C31.0099 38.5338 31.043 38.1168 31.043 37.5289C31.043 36.941 31.0133 36.5377 30.9541 36.3189C30.8949 36.0979 30.8197 35.9509 30.7285 35.878C30.6396 35.8028 30.5371 35.7652 30.4209 35.7652Z" fill="#808080"/>
</svg>
