<svg width="43" height="43" viewBox="0 0 43 43" fill="none" xmlns="http://www.w3.org/2000/svg">
<rect y="6.10352e-05" width="43" height="43" rx="5" fill="#F4F4F4"/>
<path d="M22.7198 36.9976C19.136 36.9928 15.669 35.7398 12.9303 33.4595C10.1916 31.1792 8.35723 28.0182 7.75066 24.5339C6.33327 16.3837 11.9019 8.61443 20.1642 7.21626C22.132 6.88298 24.1471 6.93535 26.0944 7.37039C28.0417 7.80543 29.8831 8.61461 31.5133 9.75172C33.1436 10.8888 34.5308 12.3316 35.5957 13.9976C36.6606 15.6636 37.3824 17.5203 37.7198 19.4615C39.1383 27.6118 33.5696 35.381 25.3063 36.7792C24.452 36.9242 23.5867 36.9973 22.7198 36.9976Z" fill="#F4F4F4"/>
<path d="M39.2319 32.2534L38.6138 31.1062C38.4675 30.8359 38.3048 30.5453 38.106 30.1917L38.0885 30.1591L38.0483 30.089L38.0318 30.0596L38.0236 30.0453L37.9844 29.9762C37.444 29.0312 36.8623 28.0751 36.2395 27.1077C37.4263 24.059 37.5166 20.7008 36.4953 17.5942C35.4741 14.4877 33.4031 11.8209 30.6284 10.0394C27.8537 8.25785 24.5433 7.4695 21.2502 7.80603C17.9571 8.14255 14.8808 9.58357 12.5353 11.8883C12.4137 11.8782 12.2932 11.87 12.1727 11.864C9.03916 11.6861 6.39288 12.4431 4.50989 14.0527L4.13494 14.3727L4 14.4886L4.09683 14.6369L4.36362 15.0434C5.70272 17.1075 7.0123 19.1915 8.29235 21.2956C8.14339 24.2506 8.92973 27.1783 10.5424 29.673C12.1552 32.1676 14.5144 34.1058 17.2934 35.2191C20.0724 36.3323 23.1336 36.5655 26.0529 35.8863C28.9722 35.2071 31.6052 33.6491 33.587 31.4283C34.985 31.5896 36.369 31.8522 37.7279 32.2137L38.997 32.546L39.4554 32.6659L39.2319 32.2534Z" fill="#808080"/>
<path d="M36.3488 22.9484C36.8797 15.5322 31.2156 9.09568 23.6976 8.57189C16.1796 8.0481 9.65453 13.6354 9.12355 21.0516C8.59256 28.4677 14.2567 34.9042 21.7747 35.428C29.2927 35.9518 35.8178 30.3645 36.3488 22.9484Z" fill="#F4F4F4"/>
<path d="M23.1747 30.6098C27.9968 30.3705 31.7093 26.3204 31.4667 21.5636C31.2241 16.8069 27.1183 13.1447 22.2962 13.384C17.4741 13.6233 13.7616 17.6734 14.0042 22.4302C14.2468 27.187 18.3526 30.8491 23.1747 30.6098Z" fill="#808080"/>
<path d="M18.6293 12.2135C18.4233 12.2958 18.1853 12.1993 18.0762 11.9381C18.0252 11.8332 18.0183 11.7127 18.0569 11.6027C18.0954 11.4928 18.1764 11.4023 18.2822 11.3508C18.4882 11.2644 18.7354 11.361 18.8456 11.6262C18.9558 11.8914 18.8652 12.119 18.6396 12.2115L18.6293 12.2135Z" fill="#808080"/>
<path d="M22.1118 11.3305C22.0572 11.0257 21.98 10.6111 21.9439 10.2575H21.9295C21.9151 10.6131 21.879 11.0246 21.8471 11.2838L21.7132 12.4828L21.2579 12.5397L20.8366 11.4301C20.7336 11.1771 20.5987 10.7828 20.5049 10.4363H20.4895C20.5255 10.7899 20.5585 11.2025 20.5811 11.5286L20.6718 12.6657L20.1186 12.7348L19.9404 9.44966L20.6162 9.36532L21.0282 10.5105C21.1745 10.9088 21.3043 11.2614 21.4104 11.6211H21.4196C21.4196 11.2533 21.4485 10.8773 21.4845 10.4556L21.5875 9.2444L22.2633 9.16006L22.8813 12.3893L22.3086 12.4614L22.1118 11.3305Z" fill="#808080"/>
<path d="M24.408 11.865L24.1185 12.5763L23.5005 12.4594L24.8396 9.37244L25.6008 9.51774V12.8598L24.9828 12.7429V11.9798L24.408 11.865ZM25.0322 11.4778L25.0569 10.7838C25.0621 10.5806 25.0806 10.2524 25.094 10.0319H25.0796C25.0034 10.2351 24.889 10.5654 24.819 10.7432L24.5666 11.3894L25.0322 11.4778Z" fill="#808080"/>
<path d="M27.8003 10.2361C28.0148 10.2925 28.2222 10.3726 28.4184 10.4749C28.7913 10.6639 29.0055 10.8814 29.1044 11.1496C29.2424 11.5043 29.1734 11.9564 28.8788 12.5234C28.5698 13.1128 28.201 13.4552 27.825 13.5497C27.5284 13.6401 27.1864 13.5832 26.7744 13.3739C26.6164 13.2924 26.463 13.2025 26.3149 13.1046L27.8003 10.2361ZM27.1163 12.9532C27.1458 12.9768 27.178 12.9969 27.2121 13.0132C27.4892 13.1524 27.8704 13.0061 28.2886 12.2003C28.5976 11.6028 28.6306 11.1588 28.2834 10.981C28.2458 10.9594 28.2047 10.9443 28.1619 10.9363L27.1163 12.9532Z" fill="#808080"/>
<path d="M30.738 14.3738L30.1766 13.8657L29.5699 14.5242L30.2045 15.0942L29.8254 15.5006L28.7129 14.5018L30.9523 12.0753L32.0236 13.0366L31.6445 13.443L31.0532 12.9116L30.5382 13.4694L31.1006 13.9775L30.738 14.3738Z" fill="#808080"/>
<path d="M34.2048 16.0209L31.3031 17.6254L30.9868 17.0685L33.8958 15.4651L34.2048 16.0209Z" fill="#808080"/>
<path d="M31.7432 18.4626L34.9436 17.5695L35.1053 18.1314L33.9908 18.9687C33.7714 19.1312 33.4067 19.3995 33.1523 19.5671V19.5763C33.484 19.4635 34.0269 19.2664 34.6161 19.1018L35.3237 18.9046L35.4782 19.4432L32.2778 20.3363L32.1161 19.7744L33.1935 18.9524C33.4732 18.741 33.7645 18.545 34.066 18.3651V18.3559C33.7467 18.4575 33.2594 18.6211 32.6136 18.801L31.8925 19.0042L31.7432 18.4626Z" fill="#808080"/>
<path d="M33.4584 21.5404C33.4491 21.326 33.6232 21.134 33.9095 21.1218C34.0266 21.11 34.1435 21.1442 34.2353 21.2168C34.327 21.2894 34.3861 21.3947 34.3998 21.5099C34.4091 21.7335 34.235 21.9265 33.9446 21.9387C33.6541 21.9509 33.4687 21.7883 33.4584 21.5445V21.5404Z" fill="#808080"/>
<path d="M16.6651 32.1903C16.4777 32.0826 16.4076 31.8337 16.5529 31.5898C16.6063 31.4865 16.6987 31.4079 16.8102 31.3711C16.9218 31.3342 17.0435 31.342 17.1493 31.3927C17.345 31.5065 17.415 31.7554 17.2677 32.0024C17.1204 32.2493 16.8815 32.3153 16.6693 32.1924L16.6651 32.1903Z" fill="#808080"/>
<path d="M19.7706 31.1621L19.1824 33.2136C19.0505 33.677 19.1525 33.8578 19.3142 33.9025C19.4945 33.9523 19.6583 33.8619 19.7953 33.3843L20.3824 31.3318L21.0005 31.5055L20.4442 33.4493C20.2125 34.2622 19.7778 34.6148 19.1597 34.4431C18.4902 34.2561 18.3594 33.7318 18.586 32.9372L19.1443 30.9883L19.7706 31.1621Z" fill="#808080"/>
<path d="M22.05 34.2449C22.2209 34.3263 22.4082 34.3687 22.598 34.3689C22.907 34.3689 23.0512 34.2104 23.0502 33.997C23.0502 33.7582 22.9009 33.6424 22.6186 33.4635C22.1623 33.1933 21.9882 32.8478 21.9872 32.549C21.9872 32.0237 22.3374 31.5837 23.0327 31.5797C23.2139 31.5761 23.3934 31.6155 23.556 31.6945L23.453 32.2452C23.3244 32.17 23.177 32.1319 23.0276 32.1355C22.7515 32.1355 22.6155 32.3031 22.6155 32.4779C22.6155 32.673 22.7185 32.7746 23.077 32.986C23.5179 33.2461 23.6827 33.5763 23.6847 33.9218C23.6847 34.5213 23.2408 34.9176 22.5887 34.9206C22.3694 34.9263 22.1517 34.8825 21.9521 34.7926L22.05 34.2449Z" fill="#808080"/>
<path d="M25.837 33.7593L25.905 34.5193L25.3024 34.691L25.0747 31.3378L25.8195 31.1265L27.3646 34.1027L26.7589 34.2734L26.4107 33.5916L25.837 33.7593ZM26.215 33.1354L25.9173 32.5054C25.8287 32.3225 25.6948 32.0217 25.6083 31.8195H25.5949C25.6227 32.039 25.6711 32.3804 25.6907 32.5714L25.7638 33.2603L26.215 33.1354Z" fill="#808080"/>
<path d="M28.753 32.2188C28.5655 32.3265 28.3111 32.2645 28.1679 32.0156C28.1028 31.9189 28.0787 31.8009 28.1008 31.6869C28.123 31.5729 28.1896 31.472 28.2864 31.4059C28.4831 31.2931 28.7365 31.3561 28.8838 31.6041C29.0311 31.852 28.9704 32.0898 28.7571 32.2137L28.753 32.2188Z" fill="#808080"/>
<path d="M37.7256 32.1995C35.9879 31.7302 34.207 31.4337 32.4094 31.3145C32.123 31.2982 31.8387 31.2881 31.5637 31.285H31.5348C31.4923 31.285 31.45 31.283 31.4081 31.2789C30.9611 31.2545 30.342 31.1631 30.1174 30.6693L29.8888 30.2831L29.5952 30.2181C28.7764 30.0411 27.9451 29.9263 27.1086 29.8747C26.8675 29.8614 26.6286 29.8543 26.3968 29.8543C25.5295 29.844 24.6653 29.9573 23.8309 30.1907L23.7938 30.1998C23.665 30.231 23.5329 30.247 23.4003 30.2476H23.3148C22.8914 30.2232 22.5525 30.0118 22.4052 29.6816L22.1745 29.2335C21.9139 29.203 21.6512 29.1806 21.3927 29.1654C21.1568 29.1522 20.9199 29.1461 20.6881 29.1461C18.4219 29.1461 16.3823 29.7893 14.9341 30.9589L14.213 31.537L13.7701 30.7353L13.152 29.6247L13.0923 29.518C10.3883 24.6559 7.45258 19.7856 4.3747 15.0404L4.02344 14.4896L4.52406 14.0618C6.21339 12.6159 8.55579 11.8518 11.2968 11.8518C11.5853 11.8518 11.8809 11.8599 12.1765 11.8772C12.6164 11.9016 13.0706 11.9453 13.5249 12.0072L13.6032 12.0205C13.8727 12.0577 14.132 12.1471 14.3664 12.2834C14.6008 12.4198 14.8056 12.6005 14.9691 12.8151C15.5022 12.6685 16.0535 12.5964 16.6069 12.6007C16.747 12.6007 16.8922 12.6007 17.0375 12.6128C18.2252 12.6799 19.5777 13.0112 21.1712 13.629C21.5266 13.7661 21.8498 13.9736 22.1209 14.2386C22.2686 14.3851 22.4039 14.5431 22.5258 14.7111C23.9979 14.8072 25.4596 15.0217 26.8964 15.3523L27.1374 15.4062L27.3002 15.588C27.5783 15.8929 27.8688 16.2251 28.1871 16.5889L28.3158 16.7352C28.3467 16.7698 28.3715 16.7982 28.3941 16.8257C32.3414 21.3545 35.5614 25.7817 37.9646 29.9824L38.0985 30.2191C38.2963 30.5697 38.4539 30.8542 38.594 31.1133L39.418 32.6456L37.7256 32.1995Z" fill="#808080"/>
<path d="M37.423 30.5676C37.594 30.8697 37.7605 31.1702 37.9226 31.4689C35.6286 30.8684 33.486 30.5544 31.5618 30.529H31.5526C31.1931 30.5198 30.8367 30.4487 30.8109 30.341L30.3865 29.6226C30.1743 29.5711 29.9642 29.5234 29.7561 29.4793C27.4034 28.9814 25.3185 28.9652 23.6127 29.4651C23.3675 29.5241 23.144 29.4824 23.1038 29.3635L22.6753 28.5333C22.5517 28.5161 22.4291 28.4998 22.3055 28.4856C19.2338 28.1198 16.4145 28.7843 14.4491 30.3715C14.2239 29.965 13.9979 29.5586 13.7713 29.1522C11.0519 24.2748 8.13334 19.435 5.01562 14.6329C6.9975 12.938 9.94868 12.2866 13.4108 12.7571C13.4334 12.7571 13.4551 12.7571 13.4767 12.7663C13.896 12.8384 14.1978 13.005 14.4316 13.3759C14.4522 13.4044 14.4718 13.4328 14.4913 13.4623C14.5501 13.5497 14.6098 13.636 14.6685 13.7224C16.1652 13.064 18.2244 13.2977 20.8912 14.327C21.15 14.4271 21.385 14.579 21.5814 14.7731C21.7791 14.9798 21.9567 15.2043 22.1119 15.4437C23.6679 15.5197 25.2139 15.7343 26.7308 16.0849C27.0315 16.4202 27.3282 16.7552 27.6208 17.0898L27.6712 17.1467L27.8185 17.3144C31.7411 21.8158 34.9549 26.245 37.3045 30.3552L37.3674 30.467C37.387 30.4995 37.4065 30.5341 37.4251 30.5686L37.423 30.5676Z" fill="#808080"/>
<path d="M37.3024 30.3542C35.235 29.8025 33.2954 29.4834 31.5267 29.396C31.4238 29.2182 31.2887 29.0604 31.1281 28.9307C30.961 28.8129 30.7725 28.728 30.5729 28.6807C27.7443 27.8607 25.2597 27.6727 23.2706 28.1726C23.1553 27.946 23.0646 27.6971 22.837 27.5406C22.6242 27.413 22.3845 27.3355 22.1365 27.314C18.8598 26.8283 15.853 27.4807 13.7764 29.1501C14.003 29.5566 14.2289 29.963 14.4542 30.3695C16.4144 28.7864 19.2337 28.1198 22.3054 28.4815C22.429 28.4958 22.5516 28.512 22.6752 28.5293L23.1038 29.3595C23.1439 29.4773 23.3675 29.519 23.6126 29.4611C25.3184 28.9611 27.4033 28.9774 29.756 29.4753C29.962 29.5193 30.1722 29.5671 30.3864 29.6186L30.8108 30.337C30.8366 30.4447 31.193 30.5158 31.5525 30.5249H31.5618C33.4859 30.5483 35.6285 30.8643 37.9225 31.4648C37.7227 31.1018 37.516 30.7316 37.3024 30.3542Z" fill="#F4F4F4"/>
<path d="M26.9642 22.4214C26.6954 22.0302 26.3256 21.6888 25.8806 21.5415C23.223 20.6717 20.9949 20.4349 19.251 20.8983C19.49 21.2993 19.7265 21.702 19.9607 22.1064H19.9669C21.75 21.6512 24.012 21.8819 26.6851 22.7364C26.8936 22.8123 27.0897 22.9181 27.2671 23.0504C27.4611 23.1996 27.6256 23.3829 27.7522 23.591L27.9201 23.6001C29.8351 23.7358 31.731 24.064 33.5784 24.5796C33.2961 24.1854 33.0077 23.7888 32.7131 23.3898C30.8898 22.8863 29.0197 22.5656 27.1311 22.4326L26.9642 22.4214Z" fill="#F4F4F4"/>
<path d="M25.3649 20.0884C25.4061 20.1474 24.9673 19.5804 24.7932 19.4473C24.6175 19.3137 24.4219 19.2078 24.2133 19.1333C21.5948 18.235 19.444 17.9952 17.7866 18.485C18.0359 18.8854 18.2831 19.2864 18.5283 19.6881C20.2279 19.2166 22.4137 19.4534 25.0477 20.3354C25.2772 20.4037 25.4904 20.5167 25.675 20.6676C25.8667 20.8391 26.0338 21.0357 26.1715 21.2519L26.499 21.2712C28.2958 21.4068 30.0751 21.713 31.8122 22.1857C31.5052 21.784 31.1911 21.3809 30.8697 20.9765C29.1209 20.5105 27.3299 20.2154 25.5225 20.0956L25.3649 20.0884Z" fill="#F4F4F4"/>
<path d="M23.7385 17.7524C23.6054 17.5392 23.4497 17.3406 23.2739 17.16C23.0779 16.982 22.8483 16.8439 22.5982 16.7535C19.954 15.7892 17.8402 15.5423 16.2539 16.0951C16.5135 16.4934 16.7703 16.8917 17.0244 17.29C18.6437 16.7759 20.7677 17.0167 23.3852 17.9393C23.6336 18.0211 23.8622 18.1525 24.0568 18.3255C24.2452 18.507 24.4124 18.7088 24.5553 18.927C26.3557 19.0302 28.1411 19.3107 29.885 19.7643C29.5526 19.3578 29.214 18.9514 28.8693 18.5449C27.1908 18.1217 25.4745 17.8606 23.7447 17.7656L23.7385 17.7524Z" fill="#F4F4F4"/>
<path d="M21.8308 15.5708C22.0213 15.646 22.1994 15.7487 22.3593 15.8756C22.5722 16.1005 22.7636 16.3444 22.931 16.6041C24.5785 16.6897 26.2143 16.9278 27.8166 17.3154C27.4602 16.909 27.0983 16.4998 26.7309 16.088C25.2157 15.7377 23.6715 15.5231 22.1172 15.4468C21.9617 15.2076 21.7841 14.9831 21.5867 14.7762C21.39 14.5824 21.1551 14.4306 20.8965 14.3301C18.2297 13.3008 16.1705 13.067 14.6738 13.7255C14.9416 14.1177 15.2067 14.5106 15.4691 14.9042C17.0276 14.2976 19.1403 14.5516 21.8308 15.5708Z" fill="#F4F4F4"/>
<path d="M21.5754 26.1018C21.8017 26.1364 22.0148 26.2289 22.1935 26.3701C22.4222 26.5448 22.5118 26.7115 22.6405 26.9584C24.5977 26.4747 27.0318 26.6729 29.8295 27.499C30.0304 27.5433 30.2187 27.6315 30.3806 27.7571C30.5441 27.8973 30.6857 28.0606 30.8008 28.2417C32.5921 28.3332 34.5565 28.6624 36.6434 29.2253C36.4161 28.846 36.1816 28.4653 35.9399 28.0832C34.0757 27.5592 32.1616 27.2269 30.2281 27.0915L30.0581 27.0824C29.955 26.8886 29.8151 26.7161 29.6461 26.5743C29.4677 26.4491 29.2667 26.3587 29.0538 26.3081C26.2942 25.4779 23.9034 25.2706 21.9967 25.7421C21.8994 25.5373 21.7694 25.3493 21.6115 25.1853C21.447 25.0259 21.2358 24.9217 21.0079 24.8875C17.6086 24.3592 14.5183 25.0105 12.3984 26.7166C12.6312 27.123 12.862 27.5294 13.0907 27.9359C15.1827 26.2461 18.239 25.5948 21.5754 26.1018Z" fill="#F4F4F4"/>
<path d="M20.1764 23.6408C20.4219 23.6654 20.6566 23.753 20.8573 23.8948C21.0983 24.0726 21.192 24.2738 21.3321 24.5299L21.3744 24.5197C23.2368 24.0696 25.5699 24.2901 28.2759 25.1212C28.4958 25.1781 28.7011 25.2799 28.8785 25.42C29.041 25.5664 29.1818 25.7347 29.2967 25.9199L29.4667 25.9301C31.403 26.0674 33.3199 26.4014 35.1867 26.9269C34.9313 26.5401 34.6693 26.1506 34.4008 25.7583C32.5394 25.2356 30.6285 24.9026 28.6982 24.7646L28.5283 24.7554C28.4094 24.5595 28.2595 24.3835 28.0843 24.2342C27.9021 24.0965 27.6957 23.9932 27.4755 23.9293C24.7778 23.086 22.4755 22.8634 20.6513 23.3197C20.5604 23.1346 20.4499 22.9595 20.3216 22.7974C20.1403 22.5975 19.8905 22.4708 19.6201 22.4417C16.1838 21.9235 13.0925 22.5799 10.9829 24.2901C11.2205 24.6965 11.4567 25.103 11.6916 25.5094C13.7785 23.8176 16.8152 23.1591 20.1764 23.6408Z" fill="#F4F4F4"/>
<path d="M19.4447 21.2234C17.9539 18.7035 16.3634 16.2038 14.6734 13.7245L14.4962 13.4643L14.4169 13.3485C14.4035 13.3302 14.3912 13.3109 14.3778 13.2916C14.2742 13.1469 14.1408 13.0253 13.9864 12.9347C13.832 12.8442 13.66 12.7868 13.4816 12.7663L13.3281 12.7449C9.90309 12.2978 6.9859 12.9482 5.02051 14.6329C6.7325 17.2748 8.3875 19.9299 9.9855 22.5982L10.2708 23.0758C12.3372 21.3941 15.3533 20.7306 18.734 21.195C19.2016 21.2326 19.6271 21.5364 19.9608 22.1095L19.4447 21.2234Z" fill="#F4F4F4"/>
<path d="M5.95436 14.6318L6.19952 14.8462C6.27162 14.8036 6.34579 14.7619 6.41995 14.7213C6.40244 14.8147 6.3839 14.9082 6.36639 15.0027L6.59919 15.2374L6.3221 15.1988C6.29737 15.2903 6.27265 15.3828 6.24896 15.4752L6.12947 15.1643L5.85547 15.1054C5.92036 15.0515 5.98629 14.9987 6.05221 14.9458C6.02028 14.8412 5.98732 14.7365 5.95436 14.6318Z" fill="#808080"/>
<path d="M13.3666 13.1839L13.6612 13.4603C13.7735 13.4775 13.8868 13.4948 14.0001 13.5141C13.9527 13.5608 13.9064 13.6076 13.86 13.6553C13.9517 13.7488 14.0424 13.8433 14.133 13.9368L13.7529 13.7478C13.6963 13.7885 13.6406 13.8311 13.585 13.8738L13.4892 13.6117L13.1143 13.4084C13.2173 13.4145 13.3203 13.4206 13.4315 13.4288L13.3666 13.1839Z" fill="#808080"/>
<path d="M11.6394 13.0823L11.9279 13.3454C12.0309 13.3505 12.1411 13.3556 12.2492 13.3627C12.206 13.4186 12.1637 13.4755 12.1225 13.5324C12.2111 13.6229 12.2997 13.7143 12.3893 13.8047C12.2667 13.7509 12.1452 13.7031 12.0237 13.6472C11.9732 13.698 11.9206 13.7488 11.8712 13.8037C11.8382 13.7133 11.8053 13.6229 11.7682 13.5324L11.4087 13.3617C11.5117 13.3556 11.6075 13.3495 11.7074 13.3454L11.6394 13.0823Z" fill="#808080"/>
<path d="M10.02 13.1788L10.2992 13.4298C10.4022 13.4227 10.499 13.4156 10.5989 13.4105C10.5619 13.4755 10.5248 13.5416 10.4887 13.6086L10.7483 13.8708L10.4012 13.7478C10.3558 13.8098 10.3105 13.8718 10.2662 13.9358L10.1632 13.6533L9.82227 13.5121C9.91394 13.4938 10.0056 13.4755 10.0994 13.4593L10.02 13.1788Z" fill="#808080"/>
<path d="M8.52315 13.4715L8.792 13.7092C8.88368 13.6899 8.97536 13.6716 9.06806 13.6544C9.03716 13.7296 9.00523 13.8048 8.97433 13.881L9.2267 14.134L8.90119 14.0324C8.86102 14.1035 8.82291 14.1767 8.78376 14.2498C8.74771 14.1482 8.71166 14.0557 8.67457 13.9582L8.3501 13.8495C8.43353 13.819 8.518 13.7895 8.60247 13.7611L8.52315 13.4715Z" fill="#808080"/>
<path d="M7.16331 13.9561L7.42084 14.1827C7.50324 14.1512 7.58668 14.1208 7.67115 14.0923C7.64539 14.1766 7.62067 14.261 7.59595 14.3463L7.83905 14.5902C7.73604 14.5668 7.63303 14.5435 7.53621 14.5221C7.50324 14.6034 7.47131 14.6857 7.44041 14.769L7.32607 14.4642L7.02734 14.3778C7.10254 14.3352 7.17774 14.2945 7.25396 14.2539C7.22409 14.1543 7.19422 14.0527 7.16331 13.9561Z" fill="#808080"/>
<path d="M10.2038 21.389L10.4407 21.6045C10.5169 21.5618 10.5932 21.5201 10.6704 21.4805L10.6024 21.763C10.6766 21.8422 10.7518 21.9205 10.827 21.9997L10.5489 21.9601C10.519 22.0516 10.4912 22.145 10.4634 22.2385C10.4273 22.1369 10.3913 22.0292 10.3604 21.9245L10.0874 21.8656C10.1554 21.8107 10.2234 21.7569 10.2934 21.7051C10.2553 21.5994 10.2265 21.4937 10.2038 21.389Z" fill="#808080"/>
<path d="M17.7425 19.9462C17.8352 20.0396 17.9269 20.1331 18.0185 20.2276C18.1298 20.2459 18.2421 20.2642 18.3544 20.2856C18.3039 20.3313 18.2513 20.379 18.204 20.4258L18.4563 20.7133L18.0896 20.5203C18.0299 20.5619 17.9712 20.6046 17.9124 20.6473L17.8352 20.3821C17.7147 20.314 17.5942 20.2459 17.4736 20.1789C17.5766 20.1789 17.6848 20.1911 17.7899 20.1992C17.7744 20.1159 17.7579 20.0305 17.7425 19.9462Z" fill="#808080"/>
<path d="M16.0148 19.8384L16.2868 20.1057C16.3898 20.1108 16.501 20.1179 16.6092 20.125C16.5618 20.1819 16.5155 20.2378 16.4691 20.2957L16.7194 20.5721L16.363 20.4105C16.3084 20.4634 16.2538 20.5121 16.2003 20.57L16.1168 20.2937L15.7666 20.1219C15.8696 20.1148 15.9664 20.1087 16.0674 20.1047C16.0509 20.0152 16.0324 19.9268 16.0148 19.8384Z" fill="#808080"/>
<path d="M14.3782 19.9309L14.644 20.186C14.747 20.1788 14.85 20.1727 14.9478 20.1687C14.9056 20.2337 14.8644 20.3008 14.8232 20.3719C14.9056 20.4603 14.987 20.5487 15.0684 20.6381C14.954 20.5934 14.8407 20.5507 14.7274 20.5081C14.678 20.57 14.6244 20.633 14.5801 20.6971C14.5502 20.6026 14.5214 20.507 14.4915 20.4125L14.1567 20.2693C14.2505 20.25 14.3442 20.2317 14.439 20.2144C14.4184 20.1179 14.3978 20.0244 14.3782 19.9309Z" fill="#808080"/>
<path d="M12.8515 20.2236L13.109 20.4644L13.3912 20.4105L13.2882 20.6381L13.5283 20.8942C13.4252 20.8607 13.313 20.8271 13.2058 20.7926C13.1615 20.8647 13.1183 20.9379 13.076 21.0111C13.0441 20.9095 13.0132 20.815 12.9823 20.7174C12.8793 20.6778 12.7701 20.6402 12.665 20.6026C12.7516 20.5711 12.8371 20.5406 12.9246 20.5122L12.8515 20.2236Z" fill="#808080"/>
<path d="M11.4537 20.7103C11.5361 20.7865 11.6185 20.8617 11.7009 20.9389C11.7864 20.9074 11.8719 20.878 11.9584 20.8495L11.8688 21.1045L12.1016 21.3515L11.7998 21.2814C11.7627 21.3637 11.7266 21.447 11.6916 21.5303C11.6576 21.4287 11.6247 21.3271 11.5886 21.2255L11.293 21.1391C11.3702 21.0964 11.4475 21.0537 11.5268 21.0131C11.5031 20.9125 11.4784 20.8109 11.4537 20.7103Z" fill="#808080"/>
<path d="M9.1642 19.6942L9.40421 19.9106C9.47837 19.8669 9.5546 19.8252 9.63185 19.7846C9.61022 19.8791 9.58756 19.9736 9.56696 20.0681C9.64216 20.1463 9.71735 20.2256 9.79358 20.3038L9.51443 20.2642C9.48661 20.3567 9.4588 20.4491 9.43202 20.5426C9.39597 20.441 9.35888 20.3343 9.32283 20.2307C9.23012 20.2093 9.13948 20.19 9.04883 20.1707C9.11578 20.1158 9.18377 20.063 9.25484 20.0102C9.22291 19.9055 9.19407 19.7998 9.1642 19.6942Z" fill="#808080"/>
<path d="M16.6935 18.2462L16.9737 18.5236C17.085 18.5409 17.1983 18.5602 17.3106 18.5795L17.1622 18.7268C17.2488 18.8213 17.3343 18.9168 17.4208 19.0123L17.0489 18.8203C16.9902 18.862 16.9325 18.9036 16.8738 18.9473C16.847 18.8589 16.8192 18.7705 16.7924 18.6831L16.4268 18.4799C16.5298 18.486 16.6328 18.4921 16.744 18.5002C16.7275 18.4149 16.71 18.3305 16.6935 18.2462Z" fill="#808080"/>
<path d="M14.9614 18.1405L15.2385 18.4068C15.3415 18.4118 15.4527 18.4189 15.5598 18.4261L15.4239 18.5968L15.6783 18.8711L15.3188 18.7116L15.1581 18.8691L15.0716 18.5958L14.7183 18.422C14.8213 18.4159 14.9191 18.4098 15.0201 18.4057L14.9614 18.1405Z" fill="#808080"/>
<path d="M13.3257 18.2361L13.5956 18.4891C13.6952 18.4823 13.7961 18.4762 13.8985 18.4708C13.8573 18.5368 13.8171 18.6029 13.7769 18.674C13.8604 18.7614 13.9428 18.8498 14.0262 18.9382L13.6832 18.8091C13.6337 18.8708 13.5853 18.9338 13.5379 18.9981L13.4452 18.7146L13.1084 18.5714C13.2021 18.5521 13.2959 18.5338 13.3906 18.5175L13.3257 18.2361Z" fill="#808080"/>
<path d="M11.8027 18.5287L12.0633 18.7695C12.156 18.7505 12.2498 18.7322 12.3445 18.7146C12.3085 18.7898 12.2745 18.866 12.2415 18.9422L12.4846 19.1973C12.3816 19.1638 12.2683 19.1302 12.1601 19.0957L12.0334 19.3141C12.0005 19.2125 11.9686 19.119 11.9304 19.0205L11.6152 18.9097C11.7007 18.8782 11.7873 18.8488 11.8738 18.8203L11.8027 18.5287Z" fill="#808080"/>
<path d="M10.4102 19.0154L10.6605 19.244C10.7449 19.2125 10.8304 19.1831 10.917 19.1536L10.8304 19.4097L11.0663 19.6545L10.7635 19.5855C10.7274 19.6678 10.6924 19.7511 10.6605 19.8344L10.5575 19.5296C10.4544 19.5001 10.3587 19.4706 10.2598 19.4432C10.336 19.3995 10.4143 19.3578 10.4926 19.3172C10.4627 19.2186 10.4369 19.117 10.4102 19.0154Z" fill="#808080"/>
<path d="M8.11017 18.0034C8.19154 18.0745 8.27189 18.1466 8.35223 18.2188C8.4264 18.1751 8.50263 18.1334 8.57885 18.0938C8.55722 18.1873 8.53662 18.2808 8.51705 18.3763L8.74573 18.611L8.4676 18.5724C8.44014 18.6638 8.41335 18.7563 8.38726 18.8498C8.34914 18.7482 8.31206 18.6415 8.27395 18.5378L8.00098 18.4789C8.0669 18.422 8.13386 18.3712 8.20184 18.3204C8.17197 18.2188 8.14416 18.108 8.11017 18.0034Z" fill="#808080"/>
<path d="M15.6117 16.5513L15.898 16.8307C16.0103 16.848 16.1236 16.8673 16.2359 16.8866L16.0907 17.0279L16.3533 17.3124C16.2287 17.2473 16.1041 17.1843 15.9794 17.1213C15.9207 17.163 15.863 17.2057 15.8064 17.2484L15.7198 16.9852L15.3511 16.782C15.4541 16.7881 15.5571 16.7942 15.6683 16.8023C15.6498 16.72 15.6313 16.6356 15.6117 16.5513Z" fill="#808080"/>
<path d="M13.8791 16.4477L14.1613 16.7139L14.4827 16.7322L14.3488 16.8978L14.6084 17.1722L14.2468 17.0126C14.1932 17.0655 14.1438 17.1142 14.0882 17.1711C14.0573 17.0797 14.0274 16.9882 13.9965 16.8978L13.6411 16.7261C13.7441 16.719 13.8409 16.7139 13.9419 16.7088C13.9213 16.6245 13.9007 16.5361 13.8791 16.4477Z" fill="#808080"/>
<path d="M12.2468 16.5442L12.5198 16.7962C12.6228 16.7891 12.7258 16.784 12.8226 16.7789C12.7835 16.844 12.7443 16.911 12.7042 16.9771L12.9576 17.2413L12.6125 17.1132L12.4703 17.3043L12.3745 17.0218C12.2612 16.973 12.1479 16.9263 12.0356 16.8795C12.1284 16.8602 12.2221 16.8419 12.3158 16.8247C12.2932 16.7292 12.2695 16.6367 12.2468 16.5442Z" fill="#808080"/>
<path d="M10.7307 16.8379C10.8193 16.9171 10.9069 16.9974 10.9944 17.0777C11.0871 17.0584 11.1809 17.0401 11.2746 17.0228L11.1716 17.2504L11.4188 17.5044L11.0933 17.4028C11.0521 17.475 11.0099 17.5481 10.9697 17.6223L10.8667 17.3286L10.5474 17.2148C10.6318 17.1833 10.7173 17.1539 10.8039 17.1244C10.7812 17.0309 10.7565 16.9344 10.7307 16.8379Z" fill="#808080"/>
<path d="M9.34734 17.3246L9.59971 17.5522C9.68417 17.5217 9.76864 17.4912 9.85517 17.4627C9.82632 17.5471 9.79954 17.6314 9.77173 17.7178L10.0097 17.9617L9.70683 17.8936C9.67181 17.9759 9.63782 18.0582 9.60383 18.1415C9.5688 18.0399 9.53275 17.9383 9.50082 17.8367L9.20312 17.7503C9.27935 17.7076 9.35558 17.666 9.43386 17.6243C9.40193 17.5268 9.37412 17.4252 9.34734 17.3246Z" fill="#808080"/>
<path d="M7.04007 16.3156L7.2842 16.53C7.35734 16.4873 7.43253 16.4456 7.50773 16.405C7.48816 16.4985 7.46859 16.593 7.45004 16.6875L7.68181 16.9232L7.40266 16.8836C7.37691 16.9761 7.35116 17.0685 7.32643 17.161C7.28729 17.0594 7.24918 16.9527 7.21004 16.849L6.93604 16.7911C7.00196 16.7363 7.06789 16.6824 7.13587 16.6306L7.04007 16.3156Z" fill="#808080"/>
<path d="M14.5036 14.8656L14.794 15.144L15.1329 15.1989L14.9898 15.3401L15.2586 15.6236L14.8806 15.4336C14.8229 15.4753 14.7662 15.5179 14.7106 15.5606L14.6179 15.2975C14.4943 15.2304 14.3707 15.1633 14.2471 15.0942C14.3501 15.0942 14.4531 15.1054 14.5643 15.1135C14.5437 15.0312 14.5242 14.9479 14.5036 14.8656Z" fill="#808080"/>
<path d="M12.7724 14.764L13.0577 15.0292C13.1648 15.0339 13.2719 15.04 13.3791 15.0475L13.2493 15.2172L13.513 15.4905C13.3914 15.4363 13.2699 15.3835 13.1483 15.332L12.9938 15.4895C12.9609 15.3991 12.9289 15.3076 12.897 15.2161L12.5396 15.0465C12.6426 15.0393 12.7394 15.0332 12.8393 15.0292C12.8166 14.9377 12.795 14.8493 12.7724 14.764Z" fill="#808080"/>
<path d="M11.1445 14.8585L11.4216 15.1105C11.5246 15.1033 11.6277 15.0972 11.7235 15.0922C11.6843 15.1572 11.6462 15.2232 11.6081 15.2954L11.8656 15.5596L11.5185 15.4305C11.4721 15.4925 11.4258 15.5555 11.3804 15.6195C11.3464 15.525 11.3124 15.4305 11.2774 15.336L10.9375 15.1948C11.0292 15.1755 11.1219 15.1572 11.2156 15.1409C11.194 15.0434 11.1693 14.9509 11.1445 14.8585Z" fill="#808080"/>
<path d="M9.6379 15.1511L9.90366 15.3909C9.99637 15.3716 10.0891 15.3533 10.1828 15.336C10.1498 15.4112 10.1169 15.4864 10.085 15.5626C10.1674 15.648 10.2508 15.7323 10.3342 15.8167L10.0087 15.715C9.96752 15.7872 9.92735 15.8603 9.88821 15.9335C9.85318 15.8319 9.81816 15.7384 9.7852 15.6409C9.68219 15.6023 9.57094 15.5636 9.46484 15.5271C9.54931 15.4956 9.63378 15.4661 9.71927 15.4366C9.6894 15.3442 9.66365 15.2476 9.6379 15.1511Z" fill="#808080"/>
<path d="M8.26438 15.6378L8.51881 15.8655C8.60225 15.834 8.68672 15.8035 8.77221 15.775C8.74543 15.8594 8.71865 15.9447 8.6929 16.0301L8.93394 16.275C8.83093 16.2506 8.72792 16.2282 8.63109 16.2059C8.5971 16.2882 8.56414 16.3705 8.52808 16.4538L8.41684 16.149L8.11914 16.0626C8.19468 16.0199 8.27091 15.9782 8.34782 15.9376L8.26438 15.6378Z" fill="#808080"/>
<path d="M7.0878 15.1115L7.33708 15.332C7.41537 15.2944 7.49469 15.2588 7.57503 15.2243C7.55237 15.3127 7.53074 15.4021 7.50808 15.4925L7.74603 15.7313C7.64817 15.713 7.55134 15.6947 7.45451 15.6785C7.42567 15.7648 7.39683 15.8522 7.36902 15.9406C7.32987 15.839 7.29176 15.7374 7.25262 15.6358L6.96729 15.5626C7.03733 15.5139 7.10841 15.4661 7.17948 15.4204C7.14858 15.3157 7.11356 15.2131 7.0878 15.1115Z" fill="#808080"/>
<path d="M13.0619 13.951L13.3514 14.2203C13.4606 14.2315 13.5718 14.2447 13.6831 14.2579C13.6367 14.3087 13.5924 14.3595 13.5471 14.4134L13.8149 14.6908L13.4431 14.517C13.3885 14.5638 13.3401 14.6105 13.2814 14.6593C13.2494 14.5699 13.2175 14.4804 13.1845 14.392C13.063 14.329 12.9404 14.2681 12.8188 14.2071H13.1279C13.1062 14.1177 13.0887 14.0323 13.0619 13.951Z" fill="#808080"/>
<path d="M11.3827 13.945L11.6649 14.2021H11.9739C11.9337 14.263 11.8925 14.324 11.8524 14.386L12.115 14.6532L11.7597 14.511C11.7102 14.5679 11.6567 14.6248 11.6134 14.6837L11.5104 14.4063L11.1602 14.2498L11.4496 14.2142C11.4311 14.1238 11.4074 14.0344 11.3827 13.945Z" fill="#808080"/>
<path d="M9.8179 14.1401L10.0909 14.3839C10.1867 14.3707 10.2835 14.3585 10.3803 14.3484L10.2773 14.5607C10.3628 14.6461 10.4473 14.7325 10.5328 14.8188L10.1959 14.7061C10.1527 14.7731 10.1094 14.8402 10.0682 14.9093C10.0332 14.8138 9.99816 14.7182 9.9652 14.6237C9.84983 14.5817 9.7379 14.5387 9.62939 14.4947C9.71798 14.4693 9.80657 14.4449 9.89618 14.4226C9.8694 14.3281 9.84365 14.2336 9.8179 14.1401Z" fill="#808080"/>
<path d="M8.38107 14.5293L8.64374 14.764C8.7313 14.7386 8.81989 14.7152 8.90848 14.6918L8.82195 14.9327L9.07123 15.1786C8.96616 15.1501 8.86109 15.1227 8.75602 15.0963C8.71997 15.1725 8.68392 15.2507 8.65302 15.329L8.53559 15.0322L8.22656 14.9306C8.30588 14.893 8.38622 14.8575 8.4676 14.8219C8.43773 14.7264 8.40992 14.6278 8.38107 14.5293Z" fill="#808080"/>
<path d="M8.17255 16.7962L8.4208 17.0167C8.50011 16.9801 8.58046 16.9435 8.66184 16.909C8.63711 16.9974 8.61342 17.0878 8.58973 17.1772L8.82562 17.4171C8.72261 17.3988 8.63093 17.3805 8.5341 17.3642C8.50389 17.4509 8.47402 17.5383 8.44449 17.6264C8.4074 17.5248 8.36929 17.4231 8.33221 17.3215L8.04688 17.2494C8.11692 17.2006 8.18903 17.1529 8.26113 17.1061C8.23229 16.9994 8.20242 16.8978 8.17255 16.7962Z" fill="#808080"/>
<path d="M14.1843 15.6307L14.4696 15.902C14.5798 15.9132 14.6901 15.9254 14.8013 15.9396L14.6622 16.0941L14.9259 16.3735L14.5561 16.1987C14.5005 16.2455 14.4459 16.2932 14.3913 16.341C14.3604 16.2516 14.3295 16.1621 14.2997 16.0727L13.936 15.8878C14.039 15.8878 14.1421 15.8878 14.2451 15.8878L14.1843 15.6307Z" fill="#808080"/>
<path d="M12.5011 15.6277L12.7792 15.8817C12.8822 15.8817 12.9852 15.8817 13.0882 15.8817C13.046 15.9416 13.0048 16.0036 12.9636 16.0656L13.2221 16.3339L12.8678 16.1906C12.8173 16.2475 12.7648 16.3054 12.7184 16.3633C12.6855 16.2709 12.6535 16.1784 12.6216 16.0859L12.2734 15.9294C12.3703 15.9162 12.4671 15.904 12.5639 15.8939C12.5464 15.8085 12.5237 15.7181 12.5011 15.6277Z" fill="#808080"/>
<path d="M10.9255 15.8238L11.1954 16.0687C11.2922 16.0555 11.3891 16.0433 11.4869 16.0321C11.4509 16.1022 11.4138 16.1733 11.3777 16.2455C11.4622 16.3308 11.5456 16.4172 11.6301 16.5036L11.2964 16.3898C11.2521 16.4568 11.2078 16.5249 11.1645 16.593L11.0615 16.3054L10.7329 16.1774C10.8215 16.153 10.9101 16.1286 11.0007 16.1053L10.9255 15.8238Z" fill="#808080"/>
<path d="M9.48313 16.214L9.74271 16.4466C9.83026 16.4212 9.91988 16.3979 10.0095 16.3745C9.9786 16.4538 9.94872 16.534 9.91885 16.6153C10.0002 16.6986 10.0816 16.7809 10.162 16.8643L9.85293 16.782C9.81584 16.8582 9.77773 16.9364 9.74065 17.0147C9.70562 16.913 9.6706 16.8114 9.63764 16.7169L9.32861 16.6153C9.40896 16.5787 9.49034 16.5422 9.57171 16.5076L9.48313 16.214Z" fill="#808080"/>
<path d="M9.24123 18.486L9.48329 18.7075C9.56261 18.6699 9.64296 18.6343 9.72433 18.5998C9.69961 18.6882 9.67489 18.7786 9.65017 18.8691L9.88296 19.1089L9.59145 19.055L9.49874 19.3182L9.39574 19.0134L9.10938 18.9402C9.18148 18.8914 9.25359 18.8386 9.32775 18.7969C9.29788 18.6923 9.26904 18.5886 9.24123 18.486Z" fill="#808080"/>
<path d="M15.2797 17.3205L15.5609 17.5928L15.8916 17.6304C15.8442 17.6823 15.7968 17.7321 15.7505 17.7869L16.009 18.0664C15.8864 18.0074 15.7639 17.9485 15.6423 17.8916C15.5857 17.9383 15.53 17.9851 15.4744 18.0338L15.3879 17.7646L15.0273 17.5786C15.1304 17.5786 15.2334 17.5786 15.3364 17.5786C15.3178 17.4933 15.2993 17.4059 15.2797 17.3205Z" fill="#808080"/>
<path d="M13.5931 17.3165L13.8681 17.5766C13.9711 17.5766 14.0742 17.5766 14.1772 17.5766C14.1339 17.6376 14.0906 17.6985 14.0484 17.7615C14.1339 17.8509 14.2184 17.9404 14.3028 18.0308C14.1854 17.982 14.068 17.9292 13.9505 17.8865L13.8094 18.0603L13.7167 17.7808L13.3706 17.6244C13.4674 17.6111 13.5643 17.5989 13.6621 17.5888C13.6353 17.4973 13.6147 17.4059 13.5931 17.3165Z" fill="#808080"/>
<path d="M12.0143 17.5075L12.2811 17.7544C12.3779 17.7412 12.4758 17.729 12.5736 17.7178C12.5355 17.7879 12.4984 17.8591 12.4613 17.9312L12.7096 18.1903L12.3748 18.0775C12.3295 18.1446 12.2852 18.2127 12.2399 18.2807C12.2079 18.1791 12.175 18.0887 12.143 17.9922L11.8145 17.8641C11.9041 17.8387 11.9937 17.8143 12.0843 17.792C12.0586 17.7005 12.037 17.6091 12.0143 17.5075Z" fill="#808080"/>
<path d="M10.5574 17.9017L10.8149 18.1365C10.9035 18.1114 10.9931 18.087 11.0838 18.0633C11.0518 18.1436 11.0199 18.2238 10.989 18.3051L11.2342 18.5551L10.92 18.4718C10.8808 18.549 10.8427 18.6262 10.8046 18.7055C10.7706 18.6039 10.7366 18.5023 10.7016 18.4067L10.3926 18.3051C10.474 18.2675 10.5553 18.232 10.6377 18.1974L10.5574 17.9017Z" fill="#808080"/>
<path d="M10.2895 20.1778L10.5336 20.4004C10.6139 20.3638 10.6943 20.3272 10.7767 20.2926C10.7499 20.3821 10.7241 20.4715 10.6994 20.5629L10.925 20.8038L10.6345 20.7489C10.6016 20.8363 10.5696 20.9237 10.5387 21.0131C10.5037 20.9115 10.4687 20.8098 10.4357 20.7082L10.1504 20.6351C10.2235 20.5863 10.2967 20.5335 10.3708 20.4928C10.344 20.3851 10.3173 20.2815 10.2895 20.1778Z" fill="#808080"/>
<path d="M16.3469 19.0164L16.6229 19.2908C16.7321 19.3019 16.8423 19.3152 16.9526 19.3284C16.9042 19.3792 16.8568 19.43 16.8094 19.4848L17.0628 19.7653C16.9412 19.7053 16.8197 19.6474 16.6992 19.5895L16.5292 19.7318C16.5024 19.6423 16.4746 19.5519 16.4468 19.4625L16.0894 19.2745C16.1924 19.2745 16.2954 19.2745 16.3984 19.2745L16.3469 19.0164Z" fill="#808080"/>
<path d="M14.66 19.0113C14.7507 19.0977 14.8413 19.1841 14.931 19.2714C15.034 19.2714 15.137 19.2714 15.24 19.2714C15.1967 19.3324 15.1524 19.3944 15.1092 19.4574C15.1936 19.5468 15.276 19.6373 15.3595 19.7277L15.0103 19.5824L14.8547 19.7561C14.8259 19.6627 14.796 19.5702 14.7672 19.4767L14.4272 19.3182C14.5241 19.306 14.6219 19.2938 14.7198 19.2836C14.7002 19.1922 14.6806 19.1018 14.66 19.0113Z" fill="#808080"/>
<path d="M13.0771 19.2044L13.3408 19.4523C13.4376 19.4394 13.5354 19.4272 13.6343 19.4157C13.5952 19.4858 13.5571 19.558 13.519 19.6301L13.7641 19.8903L13.4304 19.7765C13.384 19.8435 13.3387 19.9116 13.2934 19.9797C13.2614 19.8781 13.2305 19.7866 13.1996 19.6901L12.8721 19.56C12.9617 19.5356 13.0523 19.5112 13.143 19.4889C13.1214 19.3954 13.0997 19.2999 13.0771 19.2044Z" fill="#808080"/>
<path d="M11.6151 19.5946L11.8685 19.8293C11.9581 19.8039 12.0477 19.7805 12.1384 19.7572C12.1054 19.8374 12.0735 19.9177 12.0416 19.999L12.2785 20.25L11.9695 20.1656C11.9293 20.2429 11.8901 20.3211 11.851 20.4004L11.748 20.1016L11.439 20C11.5214 19.9634 11.6027 19.9268 11.6862 19.8923C11.6635 19.7937 11.6388 19.6942 11.6151 19.5946Z" fill="#808080"/>
</svg>
