<svg width="43" height="43" viewBox="0 0 43 43" fill="none" xmlns="http://www.w3.org/2000/svg">
<rect y="6.10352e-05" width="43" height="43" rx="5" fill="#F4F4F4"/>
<path d="M28.7934 16.7212C28.4184 16.1615 27.6555 16.0097 27.0929 16.3828L25.6142 17.3681C25.5808 17.39 25.5521 17.4183 25.5297 17.4513C25.5073 17.4843 25.4917 17.5214 25.4837 17.5604C25.4758 17.5994 25.4757 17.6396 25.4834 17.6786C25.4911 17.7177 25.5065 17.7549 25.5287 17.788C25.5509 17.8211 25.5794 17.8495 25.6127 17.8716C25.646 17.8937 25.6833 17.9091 25.7226 17.9168C25.7618 17.9245 25.8022 17.9245 25.8415 17.9166C25.8807 17.9087 25.918 17.8932 25.9512 17.871L27.4299 16.8859C27.5665 16.7975 27.7326 16.7662 27.8922 16.7988C28.0517 16.8315 28.192 16.9254 28.2823 17.0602C28.3727 17.1951 28.406 17.36 28.3749 17.519C28.3438 17.6781 28.2509 17.8186 28.1163 17.91L23.6579 20.8711C23.534 20.9538 23.384 20.9886 23.2361 20.9691L18.9424 19.747C18.9314 19.7436 18.9201 19.7408 18.9088 19.7386C18.5955 19.6808 18.2719 19.7472 18.0072 19.9236L17.7517 20.0932L16.099 17.6274L18.0854 16.3025C18.3716 16.1117 18.7216 16.0401 19.0602 16.1031L23.685 17.5783H23.6856C24.0061 17.6793 24.1897 18.018 24.0946 18.3334C24.0718 18.4091 24.0339 18.4796 23.9832 18.5405C23.9326 18.6015 23.8702 18.6517 23.7996 18.6883C23.6541 18.7648 23.484 18.7809 23.3265 18.7331L23.3219 18.7319C23.3201 18.7319 23.3186 18.7308 23.3168 18.7303L21.0584 18.1349C20.9805 18.1144 20.8976 18.1255 20.8279 18.1658C20.7582 18.2061 20.7074 18.2723 20.6868 18.3498C20.6662 18.4273 20.6773 18.5098 20.7178 18.5791C20.7584 18.6484 20.8249 18.6989 20.9028 18.7194L23.1612 19.3149H23.1622C23.4695 19.4051 23.8001 19.3721 24.0833 19.2229C24.2253 19.1491 24.3509 19.0478 24.4528 18.9248C24.5547 18.8019 24.6308 18.6599 24.6765 18.5072C24.8663 17.8783 24.505 17.2038 23.8711 17.003H23.8701L19.252 15.5298C19.2351 15.523 19.2176 15.5178 19.1998 15.5141C18.9507 15.4639 18.6942 15.4633 18.4449 15.5124C18.1957 15.5615 17.9587 15.6593 17.7477 15.8001L15.7622 17.1244L15.5865 16.8622C15.5643 16.8292 15.5359 16.8009 15.5028 16.7788C15.4696 16.7567 15.4324 16.7413 15.3933 16.7335C15.3542 16.7257 15.3139 16.7257 15.2748 16.7334C15.2356 16.7411 15.1984 16.7564 15.1652 16.7785L13.1352 18.1246C13.0682 18.1691 13.0217 18.2383 13.0059 18.3168C12.9901 18.3954 13.0063 18.477 13.051 18.5437L14.7079 21.0165C14.73 21.0498 14.7584 21.0783 14.7916 21.1006C14.8247 21.1229 14.862 21.1384 14.9012 21.1463C14.9404 21.1542 14.9808 21.1543 15.0201 21.1466C15.0594 21.139 15.0967 21.1236 15.13 21.1016C15.1633 21.0795 15.1919 21.0511 15.2141 21.018C15.2364 20.9849 15.2518 20.9477 15.2596 20.9087C15.2673 20.8696 15.2672 20.8295 15.2593 20.7904C15.2514 20.7514 15.2358 20.7143 15.2135 20.6813L13.7246 18.4597L15.2492 17.4486L17.5946 20.9481L16.0699 21.9591L15.9966 21.8498C15.9518 21.7836 15.8823 21.7377 15.8036 21.7222C15.7248 21.7067 15.643 21.7229 15.5762 21.7672C15.5093 21.8115 15.4629 21.8804 15.4469 21.9587C15.431 22.037 15.4469 22.1184 15.4911 22.185L15.7329 22.5459C15.755 22.5789 15.7835 22.6072 15.8167 22.6293C15.8498 22.6514 15.887 22.6668 15.9261 22.6746C15.9653 22.6823 16.0055 22.6824 16.0447 22.6747C16.0838 22.667 16.121 22.6517 16.1542 22.6296L18.1842 21.2835C18.2512 21.239 18.2978 21.1699 18.3136 21.0913C18.3294 21.0127 18.3131 20.9311 18.2684 20.8644L18.0885 20.5959L18.3441 20.4262C18.4744 20.3396 18.6329 20.3057 18.7873 20.3314L23.0897 21.5561C23.0902 21.556 23.0908 21.556 23.0913 21.5561C23.0968 21.5576 23.1025 21.5587 23.1083 21.5599C23.1141 21.561 23.1182 21.5623 23.1232 21.5631C23.1244 21.5631 23.1255 21.5637 23.1267 21.5638C23.4298 21.6108 23.7396 21.5429 23.9947 21.3734L28.4533 18.4127C29.0159 18.0398 29.1685 17.281 28.7934 16.7212Z" fill="#808080"/>
<path d="M24.6881 10.556C24.6407 10.5294 24.3834 10.3941 23.9752 10.3136L23.9596 10.3105V8.77944L23.9835 8.78511C24.1365 8.82042 24.2795 8.88949 24.402 8.98721C24.5785 9.13077 24.6775 9.31942 24.681 9.5186C24.6829 9.59908 24.7163 9.67567 24.7741 9.73203C24.8318 9.78839 24.9095 9.82008 24.9904 9.82034H24.9949C25.0767 9.81885 25.1546 9.78514 25.2114 9.72662C25.2683 9.6681 25.2995 9.58953 25.2982 9.50815C25.2915 9.12537 25.112 8.77156 24.7926 8.51189C24.57 8.33104 24.2947 8.21015 23.9964 8.16232L23.9804 8.15967L23.974 7.78849C23.9721 7.70798 23.9387 7.63139 23.8809 7.57502C23.8231 7.51866 23.7454 7.48699 23.6644 7.48676H23.6601C23.5782 7.48822 23.5004 7.52192 23.4435 7.58045C23.3867 7.63898 23.3555 7.71756 23.3568 7.79894L23.3632 8.17012L23.3473 8.17331C23.0508 8.23132 22.7799 8.36151 22.5638 8.54988C22.2535 8.82027 22.0862 9.18002 22.0928 9.56279C22.0993 9.93627 22.2714 10.284 22.5774 10.5415L22.5809 10.5444C22.7644 10.696 23.0082 10.7917 23.3466 10.8456L23.3629 10.8481V12.7128L23.338 12.7055C23.125 12.6435 22.9416 12.5325 22.8081 12.3851C22.6706 12.2334 22.5964 12.0537 22.5931 11.8653C22.5912 11.7848 22.5578 11.7082 22.5 11.6519C22.4422 11.5955 22.3646 11.5639 22.2837 11.5636H22.2792C22.2387 11.5643 22.1987 11.5729 22.1615 11.589C22.1243 11.6051 22.0907 11.6283 22.0625 11.6573C22.0343 11.6863 22.0122 11.7205 21.9973 11.758C21.9825 11.7955 21.9752 11.8356 21.9759 11.8759C21.9796 12.0887 22.0334 12.2976 22.133 12.4859C22.2309 12.6705 22.3657 12.8333 22.5291 12.9642C22.753 13.1462 23.0285 13.2742 23.3259 13.3341L23.3412 13.3372L23.348 13.7263C23.3497 13.8066 23.3829 13.8831 23.4406 13.9395C23.4982 13.9958 23.5756 14.0276 23.6564 14.0279H23.6618C23.7024 14.0272 23.7424 14.0186 23.7795 14.0025C23.8167 13.9865 23.8503 13.9633 23.8785 13.9343C23.9067 13.9053 23.9288 13.8711 23.9437 13.8335C23.9585 13.796 23.9658 13.756 23.9651 13.7157L23.9589 13.3608L23.9768 13.3587C24.3592 13.3119 24.706 13.161 24.9799 12.9224C25.1387 12.7858 25.2677 12.6185 25.3591 12.4305C25.4523 12.2389 25.4989 12.0282 25.4952 11.8154C25.4861 11.3023 25.1842 10.8317 24.6881 10.556ZM23.9823 12.7372L23.9593 12.7414V10.9386L23.9835 10.9447C24.2305 11.0074 24.372 11.0838 24.3874 11.0923C24.6893 11.2597 24.8725 11.5341 24.8771 11.8263C24.8853 12.2575 24.5087 12.6409 23.9823 12.7372ZM23.3629 8.80043V10.2248L23.3395 10.2199C23.1734 10.1852 23.0546 10.1371 22.9761 10.0728H22.9756C22.8076 9.93113 22.7133 9.74612 22.7099 9.55261C22.7065 9.35342 22.7989 9.16142 22.9705 9.01236C23.0774 8.91998 23.2024 8.85063 23.3376 8.80867L23.3629 8.80043Z" fill="#808080"/>
<path d="M28.1288 8.91122C27.6685 7.82388 26.8184 6.94545 25.7436 6.44648C24.6689 5.94751 23.446 5.86359 22.3125 6.21101C21.1791 6.55844 20.2158 7.31242 19.6097 8.32659C19.0037 9.34075 18.7981 10.5427 19.0329 11.6992C19.2677 12.8557 19.9261 13.8841 20.8803 14.5848C21.8345 15.2856 23.0164 15.6086 24.1966 15.4913C25.3768 15.3739 26.4711 14.8246 27.267 13.9498C28.0629 13.0751 28.5036 11.9373 28.5036 10.7575C28.5044 10.1233 28.3769 9.49542 28.1288 8.91122ZM27.9143 10.7575C27.9143 13.0495 26.0397 14.9142 23.7354 14.9142C21.4312 14.9142 19.557 13.0495 19.557 10.7575C19.557 8.46557 21.4317 6.60076 23.7359 6.60076C26.0401 6.60076 27.9143 8.46548 27.9143 10.7575Z" fill="#808080"/>
<path d="M20.5977 33.6221L19.3398 34.3878C18.5993 34.3878 18.0615 34.2476 17.7266 33.9673C17.3939 33.6894 17.2275 33.253 17.2275 32.6583C17.2275 32.2436 17.3073 31.8687 17.4668 31.5338C17.6263 31.1988 17.877 30.8809 18.2188 30.5801C18.1914 30.4115 18.1299 30.3272 18.0342 30.3272C17.9977 30.3272 17.9692 30.3375 17.9487 30.358C17.9214 30.3922 17.8952 30.4229 17.8701 30.4503L17.7061 30.4161C17.7061 30.0993 17.7767 29.8373 17.918 29.6299C18.0775 29.3975 18.3008 29.2813 18.5879 29.2813C18.8431 29.2813 19.0539 29.3519 19.2202 29.4932C19.3866 29.6345 19.4697 29.8168 19.4697 30.0401C19.4697 30.1745 19.4355 30.3021 19.3672 30.4229C19.292 30.5551 19.1895 30.6531 19.0596 30.7169C19.1735 30.849 19.3125 30.9459 19.4766 31.0074C19.5882 31.0484 19.693 31.0689 19.791 31.0689H20.2695V31.9986H19.791C19.4652 31.9986 19.2043 31.9348 19.0083 31.8072C18.7896 31.6659 18.5924 31.4141 18.417 31.0518C18.1618 31.2204 17.9647 31.4141 17.8257 31.6329C17.6867 31.8493 17.6172 32.0704 17.6172 32.296C17.6172 32.6993 17.7949 32.9978 18.1504 33.1915C18.5081 33.3874 19.071 33.4854 19.8389 33.4854C19.9574 33.4854 20.0827 33.4843 20.2148 33.482C20.347 33.4797 20.4678 33.4763 20.5771 33.4717L20.5977 33.6221ZM21.9067 27.4766L21.4966 28.2422L20.6968 27.8253L21.1343 27.0528L21.9067 27.4766ZM22.4023 31.9986H20.0303V31.0689H22.0811C22.0811 30.8707 22.0754 30.7294 22.064 30.6451C22.0457 30.5152 22.0081 30.4024 21.9512 30.3067C21.8783 30.448 21.7803 30.5562 21.6572 30.6314C21.5342 30.7066 21.4032 30.7442 21.2642 30.7442C21.0819 30.7442 20.9281 30.6838 20.8027 30.563C20.6774 30.4423 20.6147 30.2908 20.6147 30.1085C20.6147 29.8396 20.6968 29.5206 20.8608 29.1514C21.0409 28.7458 21.2231 28.543 21.4077 28.543C21.647 28.543 21.8726 28.7515 22.0845 29.1685C22.2964 29.5855 22.4023 30.0264 22.4023 30.4913V31.9986ZM21.6606 29.6983C21.5991 29.5912 21.5444 29.5172 21.4966 29.4761C21.451 29.4328 21.4009 29.4112 21.3462 29.4112C21.2778 29.4112 21.2163 29.442 21.1616 29.5035C21.1069 29.565 21.0796 29.6368 21.0796 29.7188C21.0796 29.7712 21.1001 29.8157 21.1411 29.8521C21.1844 29.8863 21.2391 29.9034 21.3052 29.9034C21.3576 29.9034 21.41 29.8886 21.4624 29.8589C21.5171 29.827 21.5832 29.7735 21.6606 29.6983ZM24.8018 31.9986H23.2534C23.103 31.9986 22.988 31.9667 22.9082 31.9029C22.8102 31.8254 22.7612 31.699 22.7612 31.5235C22.7612 31.4232 22.7658 31.315 22.7749 31.1988C22.7863 31.0826 22.8022 30.9652 22.8228 30.8467L22.9526 30.8399C22.9709 30.9197 23.0107 30.9778 23.0723 31.0142C23.1361 31.0507 23.2124 31.0689 23.3013 31.0689H24.4771C24.4246 30.7339 24.3335 30.4662 24.2036 30.2657C24.0965 30.0993 23.9473 29.9558 23.7559 29.835L24.002 28.7686C24.2982 28.9896 24.5078 29.2745 24.6309 29.6231C24.7448 29.9444 24.8018 30.3705 24.8018 30.9014V31.9986ZM26.4424 31.9986H24.5625V31.0689H26.0322L25.6187 28.7481L25.3999 28.6046C25.3999 28.4701 25.4204 28.3345 25.4614 28.1978C25.5138 28.0246 25.6027 27.8184 25.728 27.5792L25.8853 27.6612C25.8853 27.6749 25.8807 27.7113 25.8716 27.7706C25.8716 27.8458 25.9194 27.9187 26.0151 27.9893C26.0994 28.0531 26.2339 28.1238 26.4185 28.2012C26.3979 28.3471 26.3672 28.4895 26.3262 28.6285C26.2874 28.7675 26.243 28.8917 26.1929 29.001L26.0698 28.9532L26.4424 31.0689V31.9986ZM27.707 31.004C27.707 31.2068 27.6831 31.3925 27.6353 31.5611C27.5874 31.7274 27.4951 31.9519 27.3584 32.2344L27.1533 32.1524C27.208 31.8607 27.2354 31.6238 27.2354 31.4415C27.2354 31.3025 27.224 31.0985 27.2012 30.8297C27.1784 30.5608 27.1499 30.2953 27.1157 30.0333C27.0815 29.7689 27.0257 29.4545 26.9482 29.0899C26.9209 28.9623 26.9072 28.8746 26.9072 28.8267C26.9072 28.7561 26.9425 28.6365 27.0132 28.4678C27.0838 28.2969 27.1829 28.0907 27.3105 27.8492L27.5156 29.0591C27.5908 29.5194 27.6432 29.9182 27.6729 30.2554C27.6956 30.5152 27.707 30.7647 27.707 31.004ZM10.3096 38.9986L9.86523 38.9952C9.44824 38.9952 9.0791 39.0305 8.75781 39.1011C8.43652 39.1718 8.27588 39.2527 8.27588 39.3438C8.36475 39.6172 8.44336 39.8736 8.51172 40.1129C8.58236 40.3521 8.61768 40.5788 8.61768 40.793C8.61768 40.948 8.60173 41.0733 8.56982 41.169C8.5402 41.2647 8.48324 41.3695 8.39893 41.4835C8.37386 41.1827 8.31803 40.8671 8.23145 40.5367C8.20182 40.4205 8.12777 40.1755 8.00928 39.8018C7.93636 39.5717 7.8999 39.419 7.8999 39.3438C7.8999 39.2367 7.92952 39.1034 7.98877 38.9439C8.03662 38.814 8.09131 38.699 8.15283 38.5987C8.22575 38.4848 8.35221 38.3948 8.53223 38.3287C8.71452 38.2626 8.99137 38.209 9.36279 38.168C9.1805 37.9128 9.021 37.7852 8.88428 37.7852C8.82503 37.7852 8.76921 37.808 8.7168 37.8536C8.66439 37.8991 8.57894 37.9994 8.46045 38.1544L8.29639 38.0723C8.39665 37.7237 8.51969 37.456 8.66553 37.2691C8.81364 37.08 8.97542 36.9854 9.15088 36.9854C9.30355 36.9854 9.47331 37.0731 9.66016 37.2486C9.84701 37.4241 10.0635 37.6975 10.3096 38.0689V38.9986ZM12.7568 37.2862C12.7568 37.3546 12.7466 37.4184 12.7261 37.4776C12.7056 37.5346 12.668 37.6098 12.6133 37.7032C12.4788 37.4001 12.3307 37.1518 12.1689 36.9581C12.0072 36.7644 11.8158 36.6094 11.5947 36.4932C11.5947 36.5912 11.5833 36.663 11.5605 36.7086C11.5378 36.7519 11.5059 36.7735 11.4648 36.7735C11.3965 36.7735 11.2712 36.7086 11.0889 36.5787C10.8929 36.4397 10.7516 36.3064 10.665 36.1788C10.6035 36.0899 10.5568 35.9612 10.5249 35.7925C10.4953 35.6239 10.4805 35.4861 10.4805 35.379C10.4805 35.2149 10.5238 35.1329 10.6104 35.1329C10.7448 35.1329 10.9453 35.2126 11.2119 35.3721C11.4785 35.5294 11.7292 35.7185 11.9639 35.9395C12.4925 36.4271 12.7568 36.876 12.7568 37.2862ZM14.0967 38.9986H13.8472C13.7036 38.9986 13.568 38.8812 13.4404 38.6465C13.3037 38.3959 13.2354 38.1088 13.2354 37.7852C13.0348 38.3845 12.7546 38.7958 12.3945 39.0191C12.0459 39.2356 11.5127 39.3438 10.7949 39.3438L10.3984 39.337V39.1182C10.5625 39.0613 10.7243 39.0054 10.8838 38.9507C11.0456 38.8938 11.1663 38.8448 11.2461 38.8038C11.7109 38.5691 12.0254 38.3982 12.1895 38.2911C12.4811 38.1019 12.6919 37.9037 12.8218 37.6964C12.9744 37.4525 13.0508 37.154 13.0508 36.8008C13.0508 36.5889 13.0337 36.3827 12.9995 36.1822C12.9676 35.9817 12.9346 35.7823 12.9004 35.584C12.9004 35.4291 13.0326 35.1146 13.2969 34.6407C13.4154 35.0303 13.4906 35.5396 13.5225 36.1685C13.5407 36.6129 13.5601 37.0572 13.5806 37.5015C13.617 37.8798 13.7059 38.0689 13.8472 38.0689H14.0967V38.9986ZM15.9424 35.3448L15.5664 36.0421L15.0811 35.7686L14.8076 36.3087L14.1719 35.96L14.5273 35.2969L15.0332 35.5499L15.3203 34.9962L15.9424 35.3448ZM15.9971 38.9986H13.8574V38.0689H15.6553C15.6302 37.914 15.5846 37.7829 15.5186 37.6758C15.4844 37.6166 15.4046 37.5141 15.2793 37.3682L15.5527 36.5547C15.7236 36.7484 15.8398 36.9512 15.9014 37.1631C15.9652 37.3751 15.9971 37.6895 15.9971 38.1065V38.9986ZM20.2559 38.9986C20.0007 38.9986 19.7887 38.9804 19.6201 38.9439C19.4515 38.9075 19.2852 38.8493 19.1211 38.7696C18.9889 38.863 18.8704 38.9245 18.7656 38.9542C18.6631 38.9838 18.5081 38.9986 18.3008 38.9986H17.7437C17.591 38.9986 17.4702 38.9587 17.3813 38.879C17.2925 38.7992 17.2127 38.6671 17.1421 38.4825C17.0168 38.6739 16.8766 38.8106 16.7217 38.8926C16.5895 38.9633 16.4312 38.9986 16.2466 38.9986H15.7578V38.0689H16.2466C16.4858 38.0689 16.6852 38.0017 16.8447 37.8672C17.0521 37.6918 17.1558 37.4252 17.1558 37.0674L17.3813 37.1016C17.3768 37.1745 17.3722 37.2577 17.3677 37.3511C17.3631 37.4446 17.3608 37.5482 17.3608 37.6622C17.3608 37.7784 17.4007 37.8752 17.4805 37.9527C17.5602 38.0302 17.6514 38.0689 17.7539 38.0689H18.1743C18.4523 38.0689 18.6506 38.0302 18.769 37.9527C18.9126 37.8593 18.9844 37.685 18.9844 37.4297C18.9844 37.3751 19.0015 37.3261 19.0356 37.2828C19.0562 37.2577 19.0983 37.2201 19.1621 37.17L19.292 37.0674C19.2965 37.1107 19.3 37.17 19.3022 37.2452C19.3045 37.3181 19.3057 37.3659 19.3057 37.3887C19.3057 37.5141 19.2874 37.6804 19.251 37.8878C19.3353 37.9288 19.4299 37.9641 19.5347 37.9937C19.6395 38.0233 19.75 38.0461 19.8662 38.0621C19.8662 37.9846 19.8377 37.8843 19.7808 37.7613C19.7238 37.6382 19.6953 37.5551 19.6953 37.5118C19.6953 37.4525 19.7033 37.407 19.7192 37.3751C19.7238 37.3637 19.7489 37.3283 19.7944 37.2691L20.085 36.876C20.1465 37.0196 20.1898 37.1506 20.2148 37.2691C20.2422 37.3853 20.2559 37.5311 20.2559 37.7066V38.9986ZM23.5508 35.3653C23.5508 35.5248 23.5348 35.6854 23.5029 35.8472C23.4893 35.9156 23.4574 36.0398 23.4072 36.2198L23.1611 36.1241C23.1611 36.393 23.1292 36.6607 23.0654 36.9273C23.0016 37.1939 22.8991 37.4571 22.7578 37.7169C22.8831 37.9424 22.9561 38.0746 22.9766 38.1133C23.0312 38.2182 23.0586 38.3127 23.0586 38.397V38.503C23.0586 38.56 23.0404 38.7924 23.0039 39.2003C22.7441 39.3233 22.5117 39.4031 22.3066 39.4395C22.1038 39.476 21.8008 39.4942 21.3975 39.4942V38.4825C21.6276 38.364 21.7917 38.2649 21.8896 38.1851C21.9899 38.1031 22.1198 37.963 22.2793 37.7647C22.0195 37.4366 21.8304 37.2053 21.7119 37.0709C21.6162 36.9615 21.4932 36.835 21.3428 36.6915C21.3063 36.7667 21.279 36.8168 21.2607 36.8419C21.2448 36.8646 21.2288 36.876 21.2129 36.876C21.1582 36.876 21.0557 36.8293 20.9053 36.7359C20.7708 36.6516 20.6672 36.5764 20.5942 36.5103C20.5213 36.4442 20.4655 36.3212 20.4268 36.1412C20.3903 35.9589 20.3721 35.7276 20.3721 35.4473C20.3721 35.3243 20.3789 35.2388 20.3926 35.191C20.4085 35.1431 20.4404 35.1192 20.4883 35.1192C20.5771 35.1192 20.7572 35.2468 21.0283 35.502C21.2607 35.7208 21.4681 35.9395 21.6504 36.1583C21.7939 36.3155 21.9238 36.4727 22.04 36.6299C22.1449 36.7689 22.3089 37.0082 22.5322 37.3477C22.6348 37.154 22.7054 36.9068 22.7441 36.606C22.7669 36.4237 22.7783 36.2061 22.7783 35.9532C22.6963 35.9144 22.6405 35.8769 22.6108 35.8404C22.5812 35.8017 22.5664 35.7504 22.5664 35.6866C22.5664 35.5499 22.5812 35.4109 22.6108 35.2696C22.6405 35.1283 22.6895 34.9802 22.7578 34.8253L22.9014 34.8731C22.9014 35.0189 22.9355 35.1158 23.0039 35.1636C23.0586 35.2024 23.2409 35.2696 23.5508 35.3653ZM22.6553 38.3389L22.4912 38.086C22.391 38.1977 22.3135 38.2774 22.2588 38.3253C22.2064 38.3708 22.113 38.4415 21.9785 38.5372C22.1517 38.5189 22.2747 38.4996 22.3477 38.4791C22.4229 38.4563 22.5254 38.4096 22.6553 38.3389ZM24.9248 38.004C24.9248 38.2068 24.9009 38.3925 24.853 38.5611C24.8052 38.7274 24.7129 38.9519 24.5762 39.2344L24.3711 39.1524C24.4258 38.8607 24.4531 38.6238 24.4531 38.4415C24.4531 38.3025 24.4417 38.0985 24.4189 37.8297C24.3962 37.5608 24.3677 37.2953 24.3335 37.0333C24.2993 36.7689 24.2435 36.4545 24.166 36.0899C24.1387 35.9623 24.125 35.8746 24.125 35.8267C24.125 35.7561 24.1603 35.6365 24.231 35.4678C24.3016 35.2969 24.4007 35.0907 24.5283 34.8492L24.7334 36.0591C24.8086 36.5194 24.861 36.9182 24.8906 37.2554C24.9134 37.5152 24.9248 37.7647 24.9248 38.004ZM29.5254 38.9986H27.9771C27.8267 38.9986 27.7116 38.9667 27.6318 38.9029C27.5339 38.8254 27.4849 38.699 27.4849 38.5235C27.4849 38.4232 27.4894 38.315 27.4985 38.1988C27.5099 38.0826 27.5259 37.9652 27.5464 37.8467L27.6763 37.8399C27.6945 37.9197 27.7344 37.9778 27.7959 38.0142C27.8597 38.0507 27.936 38.0689 28.0249 38.0689H29.2007C29.1483 37.7339 29.0571 37.4662 28.9272 37.2657C28.8201 37.0993 28.6709 36.9558 28.4795 36.835L28.7256 35.7686C29.0218 35.9896 29.2314 36.2745 29.3545 36.6231C29.4684 36.9444 29.5254 37.3705 29.5254 37.9014V38.9986ZM31.4463 35.2764L31.0361 36.0421L30.2363 35.6251L30.6499 34.8526L31.4463 35.2764ZM31.4258 38.9986H29.2861V38.0689H31.084C31.0589 37.914 31.0133 37.7829 30.9473 37.6758C30.9131 37.6166 30.8333 37.5141 30.708 37.3682L30.9814 36.5547C31.1523 36.7484 31.2686 36.9512 31.3301 37.1631C31.3939 37.3751 31.4258 37.6895 31.4258 38.1065V38.9986ZM34.8096 37.3682L34.4268 38.3389C33.8138 38.5281 33.3068 38.6739 32.9058 38.7764C32.5571 38.8653 32.2632 38.9268 32.0239 38.961C31.8485 38.9861 31.6719 38.9986 31.4941 38.9986H31.1865V38.0689H31.5557C31.6217 38.0689 31.6707 38.0678 31.7026 38.0655C31.771 38.0564 31.8382 38.0495 31.9043 38.045C31.7904 37.8741 31.714 37.7362 31.6753 37.6314C31.6366 37.5243 31.6172 37.4047 31.6172 37.2725C31.6172 36.933 31.7573 36.6368 32.0376 36.3839C32.3201 36.1286 32.6494 36.001 33.0254 36.001C33.2783 36.001 33.5199 36.0842 33.75 36.2505C33.9619 36.4055 34.1169 36.5935 34.2148 36.8145L34.0713 36.9376C33.8913 36.8692 33.7477 36.8248 33.6406 36.8043C33.5358 36.7838 33.4059 36.7735 33.251 36.7735C32.9684 36.7735 32.7235 36.7963 32.5161 36.8419C32.2541 36.8988 32.123 36.9809 32.123 37.088C32.123 37.2452 32.4398 37.5049 33.0732 37.8672L34.8096 37.3682Z" fill="#808080"/>
</svg>
