<svg width="41" height="43" viewBox="0 0 41 43" fill="none" xmlns="http://www.w3.org/2000/svg">
<rect y="6.10352e-05" width="41" height="43" rx="5" fill="#F4F4F4"/>
<path d="M24.3485 13.4344L28.2261 9.6446H29.3035L29.5747 8.74682L26.9005 6L26.0982 6.2254V7.30656L22.1938 11.1727C21.2088 10.5978 20.0825 10.3099 18.9424 10.3417C17.8023 10.3734 16.6938 10.7235 15.7423 11.3524C14.7908 11.9812 14.0342 12.8638 13.5581 13.9002C13.082 14.9366 12.9053 16.0855 13.0481 17.2171C13.1909 18.3487 13.6474 19.4177 14.3661 20.3034C15.0848 21.189 16.0369 21.856 17.1148 22.2287C18.1927 22.6015 19.3534 22.6652 20.4657 22.4127C21.5779 22.1603 22.5974 21.6016 23.4087 20.8C24.3625 19.8519 24.9729 18.6126 25.1431 17.2785C25.3133 15.9444 25.0337 14.5917 24.3485 13.4344V13.4344Z" stroke="#808080" stroke-width="0.619352" stroke-linecap="round" stroke-linejoin="round"/>
<path d="M24.1682 16.9032C22.388 16.1659 20.2906 16.227 19.2018 16.6702C17.6393 17.3894 15.8584 17.4729 14.2354 16.9032" stroke="#808080" stroke-width="0.619352" stroke-miterlimit="10"/>
<path d="M26.0793 7.35242L26.8434 8.11649" stroke="#808080" stroke-width="0.619352" stroke-linecap="round" stroke-linejoin="round"/>
<path d="M16.9102 19.1955H17.6742" stroke="#808080" stroke-width="0.619352" stroke-miterlimit="10"/>
<path d="M19.2021 20.7236H19.9662" stroke="#808080" stroke-width="0.619352" stroke-miterlimit="10"/>
<path d="M21.4946 18.4314H22.2587" stroke="#808080" stroke-width="0.619352" stroke-miterlimit="10"/>
<path d="M14.1436 31.9985H13.665C13.3984 31.9985 13.2059 31.8892 13.0874 31.6704C12.9552 31.4289 12.8892 31.0221 12.8892 30.4502V29.4761C12.8892 29.255 12.8584 29.083 12.7969 28.96C12.7673 28.9007 12.6989 28.8153 12.5918 28.7036L12.9609 27.8491C13.0931 28.0314 13.1854 28.2114 13.2378 28.3892C13.2993 28.5965 13.3301 28.8608 13.3301 29.1821V29.8555C13.3301 30.3317 13.362 30.6621 13.4258 30.8467C13.4759 30.9948 13.5557 31.0688 13.665 31.0688H14.1436V31.9985ZM16.0439 31.9985H13.9043V31.0688H15.7021C15.6771 30.9139 15.6315 30.7829 15.5654 30.6758C15.5312 30.6165 15.4515 30.514 15.3262 30.3682L15.5996 29.5547C15.7705 29.7484 15.8867 29.9512 15.9482 30.1631C16.012 30.375 16.0439 30.6895 16.0439 31.1064V31.9985ZM15.6987 32.7095L15.2886 33.4751L14.4888 33.0581L14.9023 32.2856L15.6987 32.7095ZM17.9443 31.9985H15.8047V31.0688H17.6025C17.5775 30.9139 17.5319 30.7829 17.4658 30.6758C17.4316 30.6165 17.3519 30.514 17.2266 30.3682L17.5 29.5547C17.6709 29.7484 17.7871 29.9512 17.8486 30.1631C17.9124 30.375 17.9443 30.6895 17.9443 31.1064V31.9985ZM17.8896 28.3447L17.5342 29.0078L17.0283 28.7549L16.7412 29.3086L16.1191 28.96L16.4951 28.2627L16.9805 28.5361L17.2539 27.9961L17.8896 28.3447ZM21.6084 31.9985H17.7051V31.0688H20.1353C19.8595 30.784 19.6043 30.5789 19.3696 30.4536C19.1623 30.342 18.9595 30.2861 18.7612 30.2861C18.702 30.2861 18.6473 30.2896 18.5972 30.2964C18.5493 30.3009 18.4787 30.3135 18.3853 30.334C18.5106 30.0469 18.6496 29.835 18.8022 29.6982C18.9572 29.5615 19.1326 29.4932 19.3286 29.4932C19.479 29.4932 19.6237 29.5296 19.7627 29.6025C19.9017 29.6755 20.0578 29.7928 20.231 29.9546C20.3677 30.0822 20.5614 30.2816 20.812 30.5527C20.9829 30.7441 21.1128 30.8683 21.2017 30.9253C21.2928 30.9823 21.4284 31.0301 21.6084 31.0688V31.9985ZM20.2344 28.3584L19.8242 29.124L19.0244 28.707L19.438 27.9346L20.2344 28.3584ZM22.873 31.0039C22.873 31.2067 22.8491 31.3924 22.8013 31.561C22.7534 31.7274 22.6611 31.9518 22.5244 32.2344L22.3193 32.1523C22.374 31.8607 22.4014 31.6237 22.4014 31.4414C22.4014 31.3024 22.39 31.0985 22.3672 30.8296C22.3444 30.5607 22.3159 30.2952 22.2817 30.0332C22.2476 29.7689 22.1917 29.4544 22.1143 29.0898C22.0869 28.9622 22.0732 28.8745 22.0732 28.8267C22.0732 28.756 22.1086 28.6364 22.1792 28.4678C22.2498 28.2969 22.349 28.0907 22.4766 27.8491L22.6816 29.0591C22.7568 29.5194 22.8092 29.9181 22.8389 30.2554C22.8617 30.5151 22.873 30.7646 22.873 31.0039ZM27.5967 31.9985L27.1523 31.9951C26.7354 31.9951 26.3662 32.0304 26.0449 32.1011C25.7236 32.1717 25.563 32.2526 25.563 32.3438C25.6519 32.6172 25.7305 32.8735 25.7988 33.1128C25.8695 33.3521 25.9048 33.5788 25.9048 33.793C25.9048 33.9479 25.8888 34.0732 25.8569 34.1689C25.8273 34.2646 25.7703 34.3695 25.686 34.4834C25.661 34.1826 25.6051 33.867 25.5186 33.5366C25.4889 33.4204 25.4149 33.1755 25.2964 32.8018C25.2235 32.5716 25.187 32.4189 25.187 32.3438C25.187 32.2367 25.2166 32.1034 25.2759 31.9438C25.3237 31.814 25.3784 31.6989 25.4399 31.5986C25.5129 31.4847 25.6393 31.3947 25.8193 31.3286C26.0016 31.2625 26.2785 31.209 26.6499 31.168C26.4676 30.9128 26.3081 30.7852 26.1714 30.7852C26.1121 30.7852 26.0563 30.8079 26.0039 30.8535C25.9515 30.8991 25.866 30.9993 25.7476 31.1543L25.5835 31.0723C25.6838 30.7236 25.8068 30.4559 25.9526 30.269C26.1007 30.0799 26.2625 29.9854 26.438 29.9854C26.5907 29.9854 26.7604 30.0731 26.9473 30.2485C27.1341 30.424 27.3506 30.6974 27.5967 31.0688V31.9985ZM29.4971 31.9985H27.3574V31.0688H29.1553C29.1302 30.9139 29.0846 30.7829 29.0186 30.6758C28.9844 30.6165 28.9046 30.514 28.7793 30.3682L29.0527 29.5547C29.2236 29.7484 29.3398 29.9512 29.4014 30.1631C29.4652 30.375 29.4971 30.6895 29.4971 31.1064V31.9985ZM29.4424 28.3447L29.0869 29.0078L28.5811 28.7549L28.2939 29.3086L27.6719 28.96L28.0479 28.2627L28.5332 28.5361L28.8066 27.9961L29.4424 28.3447ZM10.6948 33.998C10.6948 34.1029 10.6367 34.2043 10.5205 34.3022C10.3132 34.3866 9.98161 34.5199 9.52588 34.7021C9.52588 34.6042 9.57601 34.5096 9.67627 34.4185C9.8654 34.3387 10.2049 34.1986 10.6948 33.998ZM10.6948 34.5107C10.6948 34.6201 10.6379 34.7238 10.5239 34.8218C10.3143 34.9061 9.98161 35.0394 9.52588 35.2217C9.52588 35.1237 9.57601 35.0291 9.67627 34.938C9.8654 34.8582 10.2049 34.7158 10.6948 34.5107ZM10.811 38.0039C10.811 38.2067 10.7871 38.3924 10.7393 38.561C10.6914 38.7274 10.5991 38.9518 10.4624 39.2344L10.2573 39.1523C10.312 38.8607 10.3394 38.6237 10.3394 38.4414C10.3394 38.3024 10.328 38.0985 10.3052 37.8296C10.2824 37.5607 10.2539 37.2952 10.2197 37.0332C10.1855 36.7689 10.1297 36.4544 10.0522 36.0898C10.0249 35.9622 10.0112 35.8745 10.0112 35.8267C10.0112 35.756 10.0465 35.6364 10.1172 35.4678C10.1878 35.2969 10.2869 35.0907 10.4146 34.8491L10.6196 36.0591C10.6948 36.5194 10.7472 36.9181 10.7769 37.2554C10.7996 37.5151 10.811 37.7646 10.811 38.0039ZM15.104 38.9985H14.752C14.6494 38.9985 14.5754 39.0008 14.5298 39.0054C14.4865 39.0099 14.4648 39.0247 14.4648 39.0498C14.5309 39.0885 14.5924 39.1159 14.6494 39.1318C14.7087 39.1455 14.7474 39.1649 14.7656 39.1899C14.7839 39.2127 14.793 39.2503 14.793 39.3027C14.793 39.4645 14.7463 39.6582 14.6528 39.8838C14.5617 40.1071 14.4717 40.2461 14.3828 40.3008C14.2985 40.3714 14.0479 40.4523 13.6309 40.5435C13.2161 40.6369 12.8584 40.6836 12.5576 40.6836C12.1292 40.6836 11.7829 40.5947 11.5186 40.417C11.2542 40.2393 11.1221 40.0068 11.1221 39.7197C11.1221 39.4417 11.1802 39.1763 11.2964 38.9233C11.4377 38.618 11.6986 38.2318 12.0791 37.7646L12.2842 37.9082C12.0449 38.1976 11.8786 38.4334 11.7852 38.6157C11.694 38.798 11.6484 38.9769 11.6484 39.1523C11.6484 39.3962 11.7487 39.5773 11.9492 39.6958C12.152 39.812 12.4642 39.8701 12.8857 39.8701C13.1045 39.8701 13.4076 39.8302 13.7949 39.7505C14.1823 39.6707 14.376 39.6012 14.376 39.542C14.376 39.5146 14.3019 39.4896 14.1538 39.4668C14.0057 39.444 13.8428 39.4326 13.665 39.4326C13.4053 39.4326 13.2754 39.3757 13.2754 39.2617C13.2754 39.2093 13.3062 39.1159 13.3677 38.9814C13.411 38.888 13.4554 38.7946 13.501 38.7012C13.5853 38.512 13.7459 38.3594 13.9829 38.2432C14.2222 38.127 14.4717 38.0688 14.7314 38.0688H15.104V38.9985ZM13.6855 41.0391L13.3506 41.4219L12.9883 41.1963L12.7217 41.4834L12.291 41.2441L12.6123 40.834L12.9883 41.0732L13.2549 40.7656L13.6855 41.0391ZM16.7446 38.9985H14.8647V38.0688H16.3345L15.9209 35.748L15.7021 35.6045C15.7021 35.4701 15.7227 35.3345 15.7637 35.1978C15.8161 35.0246 15.9049 34.8184 16.0303 34.5791L16.1875 34.6611C16.1875 34.6748 16.1829 34.7113 16.1738 34.7705C16.1738 34.8457 16.2217 34.9186 16.3174 34.9893C16.4017 35.0531 16.5361 35.1237 16.7207 35.2012C16.7002 35.347 16.6694 35.4894 16.6284 35.6284C16.5897 35.7674 16.5452 35.8916 16.4951 36.001L16.3721 35.9531L16.7446 38.0688V38.9985ZM19.6499 38.9951C19.4106 38.9951 19.1292 38.9484 18.8057 38.855C18.5208 38.7729 18.2702 38.6761 18.0537 38.5645C17.9215 38.7627 17.7586 38.8926 17.5649 38.9541C17.4715 38.9837 17.3439 38.9985 17.1821 38.9985H16.5054V38.0688H17.1821C17.3872 38.0688 17.5501 38.0438 17.6709 37.9937C17.8258 37.9299 17.9329 37.8193 17.9922 37.6621C18.1221 37.3727 18.2884 37.1346 18.4912 36.9478C18.6712 36.7814 18.8239 36.6982 18.9492 36.6982C19.0654 36.6982 19.209 36.8737 19.3799 37.2246C19.5599 37.596 19.6499 37.9378 19.6499 38.25V38.9951ZM19.0107 37.9629C19.0107 37.9128 18.9618 37.8262 18.8638 37.7031C18.7544 37.5664 18.6598 37.498 18.5801 37.498C18.4912 37.498 18.416 37.6006 18.3545 37.8057C18.473 37.8512 18.563 37.8854 18.6245 37.9082C18.8091 37.9766 18.9128 38.0107 18.9355 38.0107C18.9857 38.0107 19.0107 37.9948 19.0107 37.9629ZM22.1724 38.9985H21.6665C21.4865 38.9985 21.3281 38.9621 21.1914 38.8892C21.0547 38.8162 20.9442 38.6989 20.8599 38.5371C20.7118 38.7194 20.5192 38.8481 20.2822 38.9233C20.125 38.9735 19.9541 38.9985 19.7695 38.9985H19.4106V38.0688H19.7695C19.9587 38.0688 20.0908 38.0597 20.166 38.0415C20.2435 38.021 20.3472 37.9766 20.4771 37.9082C20.4087 37.7738 20.3494 37.6769 20.2993 37.6177C20.2378 37.547 20.174 37.5117 20.1079 37.5117C20.0828 37.5117 20.0589 37.5208 20.0361 37.5391C20.0156 37.555 19.9917 37.5869 19.9644 37.6348L19.814 37.6143C19.814 37.2018 19.8846 36.9079 20.0259 36.7324C20.1694 36.5547 20.395 36.4658 20.7026 36.4658C21.0194 36.4658 21.2677 36.5285 21.4478 36.6538C21.63 36.7769 21.7212 36.9466 21.7212 37.1631C21.7212 37.2793 21.6973 37.391 21.6494 37.498C21.6016 37.6029 21.5116 37.7464 21.3794 37.9287C21.4113 37.972 21.4546 38.0062 21.5093 38.0312C21.564 38.0563 21.6164 38.0688 21.6665 38.0688H22.1724V38.9985ZM25.0776 38.9951C24.8384 38.9951 24.557 38.9484 24.2334 38.855C23.9486 38.7729 23.6979 38.6761 23.4814 38.5645C23.3493 38.7627 23.1864 38.8926 22.9927 38.9541C22.8993 38.9837 22.7716 38.9985 22.6099 38.9985H21.9331V38.0688H22.6099C22.8149 38.0688 22.9779 38.0438 23.0986 37.9937C23.2536 37.9299 23.3607 37.8193 23.4199 37.6621C23.5498 37.3727 23.7161 37.1346 23.9189 36.9478C24.099 36.7814 24.2516 36.6982 24.377 36.6982C24.4932 36.6982 24.6367 36.8737 24.8076 37.2246C24.9876 37.596 25.0776 37.9378 25.0776 38.25V38.9951ZM24.4385 37.9629C24.4385 37.9128 24.3895 37.8262 24.2915 37.7031C24.1821 37.5664 24.0876 37.498 24.0078 37.498C23.9189 37.498 23.8438 37.6006 23.7822 37.8057C23.9007 37.8512 23.9907 37.8854 24.0522 37.9082C24.2368 37.9766 24.3405 38.0107 24.3633 38.0107C24.4134 38.0107 24.4385 37.9948 24.4385 37.9629ZM29.1519 37.7168C29.1519 37.8535 29.1405 37.9925 29.1177 38.1338C29.0972 38.2728 29.0698 38.3867 29.0356 38.4756C28.9718 38.6488 28.8146 38.8014 28.564 38.9336C28.3315 39.0566 28.1128 39.1182 27.9077 39.1182C27.73 39.1182 27.5887 39.0566 27.4839 38.9336C27.3791 38.8105 27.3267 38.6465 27.3267 38.4414C27.3267 38.2546 27.3529 38.0711 27.4053 37.8911C27.46 37.7111 27.5568 37.4844 27.6958 37.2109L27.5728 37.1289C27.6115 37.0241 27.6639 36.8976 27.73 36.7495C27.7961 36.5991 27.8553 36.4727 27.9077 36.3701L28.2427 36.5684C28.3885 36.6572 28.5275 36.7529 28.6597 36.8555C28.8465 36.9967 28.9753 37.13 29.0459 37.2554C29.1165 37.3784 29.1519 37.5322 29.1519 37.7168ZM28.646 37.9902C28.646 37.9469 28.5662 37.8569 28.4067 37.7202C28.2495 37.5835 28.0946 37.4661 27.9419 37.3682C27.7961 37.5983 27.7231 37.7897 27.7231 37.9424C27.7231 38.0153 27.7528 38.078 27.812 38.1304C27.8735 38.1828 27.9465 38.209 28.0308 38.209C28.1447 38.209 28.2757 38.1828 28.4238 38.1304C28.5719 38.0757 28.646 38.029 28.646 37.9902ZM32.4536 39.0771C32.4536 39.2161 32.3739 39.4007 32.2144 39.6309C32.0549 39.8587 31.868 40.057 31.6538 40.2256C31.4168 40.4124 31.214 40.5059 31.0454 40.5059C30.8449 40.5059 30.6296 40.4489 30.3994 40.335C30.1989 40.237 29.8856 40.041 29.4595 39.7471L29.603 39.5352C29.8081 39.6719 29.9733 39.7642 30.0986 39.812C30.224 39.8599 30.3595 39.8838 30.5054 39.8838C30.6626 39.8838 30.8198 39.8394 30.9771 39.7505C31.1343 39.6616 31.3485 39.4964 31.6196 39.2549C31.9979 38.9176 32.187 38.6579 32.187 38.4756C32.187 38.3844 32.1506 38.2648 32.0776 38.1167C31.9956 37.9481 31.8953 37.8079 31.7769 37.6963L31.9683 36.7734C32.1232 36.9329 32.2428 37.1164 32.3271 37.3237C32.4115 37.5311 32.4536 37.7669 32.4536 38.0312V39.0771Z" fill="#808080"/>
</svg>
