<svg width="47" height="43" viewBox="0 0 47 43" fill="none" xmlns="http://www.w3.org/2000/svg">
<rect width="47" height="43" rx="5" fill="#F4F4F4"/>
<g clip-path="url(#clip0_212:11)">
<path d="M18.3542 11.3125C18.3542 12.6275 18.8766 13.8887 19.8065 14.8186C20.7364 15.7484 21.9975 16.2708 23.3126 16.2708C24.6276 16.2708 25.8888 15.7484 26.8187 14.8186C27.7485 13.8887 28.2709 12.6275 28.2709 11.3125H18.3542Z" stroke="#808080" stroke-width="0.708333" stroke-linecap="round" stroke-linejoin="round"/>
<path d="M28.2709 10.25C28.3037 9.54896 28.0639 8.8624 27.6017 8.33422C27.1396 7.80604 26.4909 7.47723 25.7917 7.41669C25.0834 7.41669 25.0834 7.77085 24.375 8.83335C23.6667 9.89585 21.1875 9.89585 21.7188 8.83335C22.1154 8.04002 22.6042 6.35419 25.2604 6.35419C28.0938 6.35419 29.6875 8.23481 29.6875 10.9584C29.6875 15.2084 26.8542 17.6875 23.3125 17.6875H21.7188" stroke="#808080" stroke-width="0.708333" stroke-linecap="round" stroke-linejoin="round"/>
<path d="M23.3125 17.6875V20.875" stroke="#808080" stroke-width="0.708333" stroke-linecap="round" stroke-linejoin="round"/>
<path d="M23.3124 20.875C21.8958 20.875 20.8333 21.5833 20.8333 22.6458H25.7916C25.7916 21.5833 24.7291 20.875 23.3124 20.875Z" stroke="#808080" stroke-width="0.708333" stroke-linecap="round" stroke-linejoin="round"/>
<path d="M24.375 19.1042C25.9263 19.1042 27.5625 20.5421 27.5625 22.6458C27.806 22.2909 27.9741 21.8898 28.0563 21.4674C28.1385 21.0449 28.1331 20.61 28.0405 20.1897C27.9478 19.7694 27.7699 19.3726 27.5178 19.0238C27.2656 18.6751 26.9445 18.3818 26.5744 18.1621" stroke="#808080" stroke-width="0.708333" stroke-linecap="round" stroke-linejoin="round"/>
<path d="M22.0269 16.1009C20.6987 16.1009 20.125 16.9048 20.125 17.6875C20.125 18.0632 20.2743 18.4236 20.5399 18.6893C20.8056 18.9549 21.1659 19.1042 21.5417 19.1042H22.25" stroke="#808080" stroke-width="0.708333" stroke-linecap="round" stroke-linejoin="round"/>
</g>
<path d="M21.2646 30.9985H20.9126C20.8101 30.9985 20.736 31.0008 20.6904 31.0054C20.6471 31.0099 20.6255 31.0247 20.6255 31.0498C20.6916 31.0885 20.7531 31.1159 20.8101 31.1318C20.8693 31.1455 20.908 31.1649 20.9263 31.1899C20.9445 31.2127 20.9536 31.2503 20.9536 31.3027C20.9536 31.4645 20.9069 31.6582 20.8135 31.8838C20.7223 32.1071 20.6323 32.2461 20.5435 32.3008C20.4591 32.3714 20.2085 32.4523 19.7915 32.5435C19.3768 32.6369 19.019 32.6836 18.7183 32.6836C18.2899 32.6836 17.9435 32.5947 17.6792 32.417C17.4149 32.2393 17.2827 32.0068 17.2827 31.7197C17.2827 31.4417 17.3408 31.1763 17.457 30.9233C17.5983 30.618 17.8592 30.2318 18.2397 29.7646L18.4448 29.9082C18.2056 30.1976 18.0392 30.4334 17.9458 30.6157C17.8547 30.798 17.8091 30.9769 17.8091 31.1523C17.8091 31.3962 17.9093 31.5773 18.1099 31.6958C18.3127 31.812 18.6248 31.8701 19.0464 31.8701C19.2651 31.8701 19.5682 31.8302 19.9556 31.7505C20.3429 31.6707 20.5366 31.6012 20.5366 31.542C20.5366 31.5146 20.4626 31.4896 20.3145 31.4668C20.1663 31.444 20.0034 31.4326 19.8257 31.4326C19.5659 31.4326 19.436 31.3757 19.436 31.2617C19.436 31.2093 19.4668 31.1159 19.5283 30.9814C19.5716 30.888 19.616 30.7946 19.6616 30.7012C19.7459 30.512 19.9066 30.3594 20.1436 30.2432C20.3828 30.127 20.6323 30.0688 20.8921 30.0688H21.2646V30.9985ZM19.8462 33.0391L19.5112 33.4219L19.1489 33.1963L18.8823 33.4834L18.4517 33.2441L18.7729 32.834L19.1489 33.0732L19.4155 32.7656L19.8462 33.0391ZM26.665 30.9985H23.0454C22.8836 30.9985 22.7537 30.9587 22.6558 30.8789C22.5601 30.7969 22.478 30.6647 22.4097 30.4824C22.2638 30.6852 22.1248 30.8231 21.9927 30.896C21.8719 30.9621 21.7124 30.9951 21.5142 30.9951L21.0254 30.9985V30.0688L21.5142 30.0654C21.7785 30.0654 21.979 29.9993 22.1157 29.8672C22.2752 29.7122 22.3778 29.4456 22.4233 29.0674L22.6558 29.1016C22.6489 29.1836 22.6444 29.2497 22.6421 29.2998C22.633 29.4502 22.6284 29.571 22.6284 29.6621C22.6284 29.792 22.6626 29.8923 22.731 29.9629C22.7993 30.0335 22.8893 30.0688 23.001 30.0688C23.1126 30.0688 23.2152 30.0461 23.3086 30.0005C23.4043 29.9549 23.5535 29.8604 23.7563 29.7168L24.98 28.8418C25.1235 28.7393 25.2318 28.6663 25.3047 28.623C25.471 28.5228 25.6317 28.4727 25.7866 28.4727C26.0418 28.4727 26.2458 28.5627 26.3984 28.7427C26.5762 28.9523 26.665 29.2679 26.665 29.6895V30.9985ZM26.1865 29.7202C26.1865 29.6177 26.1056 29.5345 25.9438 29.4707C25.8094 29.4183 25.659 29.3921 25.4927 29.3921C25.3423 29.3921 25.1725 29.4411 24.9834 29.5391C24.7965 29.6348 24.5243 29.8114 24.1665 30.0688H25.062C25.8117 30.0688 26.1865 29.9526 26.1865 29.7202ZM29.8232 30.7627C29.8232 31.1546 29.6569 31.542 29.3242 31.9248C28.9915 32.3076 28.6634 32.499 28.3398 32.499C28.1507 32.499 27.9434 32.4386 27.7178 32.3179C27.4945 32.1971 27.1504 31.959 26.6855 31.6035L26.8291 31.4053C27.0752 31.5693 27.2769 31.6787 27.4341 31.7334C27.564 31.779 27.7109 31.8018 27.875 31.8018C28.096 31.8018 28.3148 31.7402 28.5312 31.6172C28.7865 31.4714 29.0508 31.2367 29.3242 30.9131C29.2285 30.9268 29.1488 30.9336 29.085 30.9336C28.8594 30.9336 28.6794 30.8607 28.5449 30.7148C28.4128 30.5667 28.3467 30.3662 28.3467 30.1133C28.3467 29.7715 28.4253 29.4422 28.5825 29.1255C28.7534 28.7814 28.9482 28.6094 29.167 28.6094C29.3493 28.6094 29.5042 28.7336 29.6318 28.9819C29.7594 29.2303 29.8232 29.5299 29.8232 29.8809V30.7627ZM29.4131 30.0688C29.3493 29.702 29.2194 29.5186 29.0234 29.5186C28.9528 29.5186 28.8958 29.547 28.8525 29.604C28.8115 29.6587 28.791 29.7191 28.791 29.7852C28.791 29.8672 28.8354 29.9355 28.9243 29.9902C29.0155 30.0426 29.1351 30.0688 29.2832 30.0688H29.4131ZM31.7236 30.9985H29.584V30.0688H31.3818C31.3568 29.9139 31.3112 29.7829 31.2451 29.6758C31.2109 29.6165 31.1312 29.514 31.0059 29.3682L31.2793 28.5547C31.4502 28.7484 31.5664 28.9512 31.6279 29.1631C31.6917 29.375 31.7236 29.6895 31.7236 30.1064V30.9985ZM31.6689 31.6001L31.3135 32.2632L30.8076 32.0103L30.5205 32.564L29.8984 32.2153L30.2744 31.5181L30.7598 31.7915L31.0332 31.2515L31.6689 31.6001ZM15.3721 36.6758L15.0986 37.4619C14.7454 37.5485 14.4561 37.6465 14.2305 37.7559C14.0208 37.8584 13.8283 37.9883 13.6528 38.1455C13.5389 38.248 13.3714 38.4258 13.1504 38.6787L12.9453 38.6035C12.9453 38.4531 12.984 38.3016 13.0615 38.1489C13.1208 38.0304 13.2256 37.8743 13.376 37.6807C13.1618 37.4665 13.0205 37.3104 12.9521 37.2124C12.8838 37.1144 12.8496 37.0176 12.8496 36.9219C12.8496 36.7943 12.9373 36.5721 13.1128 36.2554C13.2882 35.9386 13.4386 35.7222 13.564 35.606C13.6916 35.4897 13.8408 35.4316 14.0117 35.4316C14.1735 35.4316 14.3148 35.4658 14.4355 35.5342C14.5586 35.6025 14.693 35.7256 14.8389 35.9033L14.3809 36.6621C14.2738 36.5413 14.1735 36.4536 14.0801 36.3989C13.9867 36.342 13.8978 36.3135 13.8135 36.3135C13.7428 36.3135 13.679 36.334 13.6221 36.375C13.5674 36.4137 13.54 36.4593 13.54 36.5117C13.54 36.5846 13.5868 36.661 13.6802 36.7407C13.7759 36.8182 13.9365 36.915 14.1621 37.0312C14.4492 36.8945 14.6646 36.8068 14.8081 36.7681C14.9517 36.7271 15.1396 36.6963 15.3721 36.6758ZM17.3408 37.9985H16.8623C16.5957 37.9985 16.4032 37.8892 16.2847 37.6704C16.1525 37.4289 16.0864 37.0221 16.0864 36.4502V35.4761C16.0864 35.255 16.0557 35.083 15.9941 34.96C15.9645 34.9007 15.8962 34.8153 15.7891 34.7036L16.1582 33.8491C16.2904 34.0314 16.3826 34.2114 16.4351 34.3892C16.4966 34.5965 16.5273 34.8608 16.5273 35.1821V35.8555C16.5273 36.3317 16.5592 36.6621 16.623 36.8467C16.6732 36.9948 16.7529 37.0688 16.8623 37.0688H17.3408V37.9985ZM19.2412 37.9985H17.1016V37.0688H18.8994C18.8743 36.9139 18.8288 36.7829 18.7627 36.6758C18.7285 36.6165 18.6488 36.514 18.5234 36.3682L18.7969 35.5547C18.9678 35.7484 19.084 35.9512 19.1455 36.1631C19.2093 36.375 19.2412 36.6895 19.2412 37.1064V37.9985ZM18.896 38.7095L18.4858 39.4751L17.686 39.0581L18.0996 38.2856L18.896 38.7095ZM22.9053 37.9985H19.002V37.0688H19.4565C19.5112 37.0688 19.665 36.9743 19.918 36.7852C20.0023 36.7236 20.1242 36.6279 20.2837 36.498C20.2837 36.2178 20.2734 35.9808 20.2529 35.7871C20.2324 35.5934 20.1994 35.3918 20.1538 35.1821C20.1424 35.132 20.0809 34.8848 19.9692 34.4404L19.771 34.3174C19.8234 34.0781 19.8667 33.9072 19.9009 33.8047C19.9351 33.6999 20.0011 33.5358 20.0991 33.3125L20.2563 33.374C20.2563 33.3877 20.2518 33.4173 20.2427 33.4629C20.2427 33.5426 20.3555 33.6372 20.5811 33.7466C20.6562 33.783 20.769 33.8298 20.9194 33.8867C20.8966 34.0645 20.8602 34.2308 20.8101 34.3857C20.785 34.4632 20.7394 34.584 20.6733 34.748L20.5503 34.707C20.6209 35.0306 20.6676 35.2699 20.6904 35.4248C20.7155 35.5775 20.728 35.7142 20.728 35.835V35.8726C20.728 35.9386 20.7257 35.991 20.7212 36.0298C20.7189 36.0662 20.7098 36.1243 20.6938 36.2041C20.8123 36.1175 20.932 36.0309 21.0527 35.9443C21.2373 35.8145 21.4025 35.7096 21.5483 35.6299C21.7397 35.5251 21.8856 35.4727 21.9858 35.4727C22.2547 35.4727 22.4701 35.5422 22.6318 35.6812C22.8141 35.8384 22.9053 36.0651 22.9053 36.3613V37.9985ZM22.4302 36.7202C22.4302 36.6405 22.3459 36.5664 22.1772 36.498C22.0086 36.4274 21.8605 36.3921 21.7329 36.3921C21.5825 36.3921 21.4128 36.4411 21.2236 36.5391C21.0368 36.6348 20.7645 36.8114 20.4067 37.0688H21.3022C22.0542 37.0688 22.4302 36.9526 22.4302 36.7202ZM26.2002 34.3652C26.2002 34.5247 26.1842 34.6854 26.1523 34.8472C26.1387 34.9155 26.1068 35.0397 26.0566 35.2197L25.8105 35.124C25.8105 35.3929 25.7786 35.6606 25.7148 35.9272C25.651 36.1938 25.5485 36.457 25.4072 36.7168C25.5326 36.9424 25.6055 37.0745 25.626 37.1133C25.6807 37.2181 25.708 37.3127 25.708 37.397V37.5029C25.708 37.5599 25.6898 37.7923 25.6533 38.2002C25.3936 38.3232 25.1611 38.403 24.9561 38.4395C24.7533 38.4759 24.4502 38.4941 24.0469 38.4941V37.4824C24.277 37.3639 24.4411 37.2648 24.5391 37.1851C24.6393 37.103 24.7692 36.9629 24.9287 36.7646C24.6689 36.4365 24.4798 36.2052 24.3613 36.0708C24.2656 35.9614 24.1426 35.835 23.9922 35.6914C23.9557 35.7666 23.9284 35.8167 23.9102 35.8418C23.8942 35.8646 23.8783 35.876 23.8623 35.876C23.8076 35.876 23.7051 35.8293 23.5547 35.7358C23.4202 35.6515 23.3166 35.5763 23.2437 35.5103C23.1707 35.4442 23.1149 35.3211 23.0762 35.1411C23.0397 34.9588 23.0215 34.7275 23.0215 34.4473C23.0215 34.3242 23.0283 34.2388 23.042 34.1909C23.0579 34.1431 23.0898 34.1191 23.1377 34.1191C23.2266 34.1191 23.4066 34.2467 23.6777 34.502C23.9102 34.7207 24.1175 34.9395 24.2998 35.1582C24.4434 35.3154 24.5732 35.4727 24.6895 35.6299C24.7943 35.7689 24.9583 36.0081 25.1816 36.3477C25.2842 36.154 25.3548 35.9067 25.3936 35.606C25.4163 35.4237 25.4277 35.2061 25.4277 34.9531C25.3457 34.9144 25.2899 34.8768 25.2603 34.8403C25.2306 34.8016 25.2158 34.7503 25.2158 34.6865C25.2158 34.5498 25.2306 34.4108 25.2603 34.2695C25.2899 34.1283 25.3389 33.9801 25.4072 33.8252L25.5508 33.873C25.5508 34.0189 25.585 34.1157 25.6533 34.1636C25.708 34.2023 25.8903 34.2695 26.2002 34.3652ZM25.3047 37.3389L25.1406 37.0859C25.0404 37.1976 24.9629 37.2773 24.9082 37.3252C24.8558 37.3708 24.7624 37.4414 24.6279 37.5371C24.8011 37.5189 24.9242 37.4995 24.9971 37.479C25.0723 37.4562 25.1748 37.4095 25.3047 37.3389ZM24.0571 33.415C24.0321 33.4811 24.0024 33.5312 23.9683 33.5654C23.9432 33.5905 23.9045 33.611 23.8521 33.627L23.1138 33.8525C23.1593 33.7705 23.1992 33.7147 23.2334 33.6851C23.2676 33.6532 23.3291 33.6247 23.418 33.5996C23.3542 33.5586 23.3075 33.521 23.2778 33.4868C23.2505 33.4504 23.2368 33.415 23.2368 33.3809C23.2368 33.3512 23.2459 33.3182 23.2642 33.2817C23.2824 33.243 23.3063 33.2054 23.3359 33.1689C23.484 32.9707 23.631 32.8716 23.7769 32.8716C23.8201 32.8716 23.8543 32.8864 23.8794 32.916C23.9067 32.9434 23.9204 32.9798 23.9204 33.0254C23.9204 33.0618 23.9147 33.0938 23.9033 33.1211C23.8942 33.1462 23.8737 33.1849 23.8418 33.2373C23.7279 33.1803 23.6504 33.1519 23.6094 33.1519C23.5684 33.1519 23.5273 33.1621 23.4863 33.1826C23.459 33.1963 23.4339 33.2145 23.4111 33.2373C23.4111 33.2669 23.4658 33.3125 23.5752 33.374C23.6846 33.4355 23.7632 33.4663 23.811 33.4663C23.8407 33.4663 23.9227 33.4492 24.0571 33.415ZM27.5742 37.0039C27.5742 37.2067 27.5503 37.3924 27.5024 37.561C27.4546 37.7274 27.3623 37.9518 27.2256 38.2344L27.0205 38.1523C27.0752 37.8607 27.1025 37.6237 27.1025 37.4414C27.1025 37.3024 27.0911 37.0985 27.0684 36.8296C27.0456 36.5607 27.0171 36.2952 26.9829 36.0332C26.9487 35.7689 26.8929 35.4544 26.8154 35.0898C26.7881 34.9622 26.7744 34.8745 26.7744 34.8267C26.7744 34.756 26.8097 34.6364 26.8804 34.4678C26.951 34.2969 27.0501 34.0907 27.1777 33.8491L27.3828 35.0591C27.458 35.5194 27.5104 35.9181 27.54 36.2554C27.5628 36.5151 27.5742 36.7646 27.5742 37.0039ZM32.6807 37.9985H32.2329C32.1509 37.9985 32.0757 37.9814 32.0073 37.9473C31.8752 37.8812 31.7635 37.7604 31.6724 37.585C31.5493 37.3434 31.4696 37.013 31.4331 36.5938C31.2782 36.7852 31.1574 36.9207 31.0708 37.0005C30.9455 37.1167 30.8407 37.1748 30.7563 37.1748C30.7131 37.1748 30.6584 37.168 30.5923 37.1543L30.1753 37.0723C29.9976 37.0358 29.8882 37.0096 29.8472 36.9937C29.8062 36.9777 29.7856 36.9492 29.7856 36.9082C29.7856 36.8467 29.8643 36.653 30.0215 36.3271C30.181 35.999 30.2961 35.7962 30.3667 35.7188C30.4237 35.6572 30.5251 35.5775 30.6709 35.4795C30.7575 35.4202 30.8805 35.3439 31.04 35.2505L31.2212 35.1445C31.2144 35.1126 31.2087 35.0807 31.2041 35.0488C31.2018 35.0146 31.2007 34.9827 31.2007 34.9531C31.2007 34.8665 31.2201 34.7583 31.2588 34.6284C31.2998 34.4963 31.3716 34.3333 31.4741 34.1396L31.8022 36.2725C31.8547 36.6074 31.923 36.8341 32.0073 36.9526C32.062 37.0301 32.1372 37.0688 32.2329 37.0688H32.6807V37.9985ZM31.3511 36.0674L31.2827 35.6572C31.2098 35.6914 31.1528 35.7188 31.1118 35.7393C30.9865 35.8053 30.8862 35.8669 30.811 35.9238C30.7563 35.9694 30.7108 36.0116 30.6743 36.0503C30.6287 36.1004 30.606 36.138 30.606 36.1631C30.606 36.195 30.6458 36.2201 30.7256 36.2383C30.8053 36.2565 30.884 36.2656 30.9614 36.2656C31.0116 36.2656 31.064 36.252 31.1187 36.2246C31.1733 36.195 31.2508 36.1426 31.3511 36.0674ZM34.5811 37.9985H32.4414V37.0688H34.2393C34.2142 36.9139 34.1686 36.7829 34.1025 36.6758C34.0684 36.6165 33.9886 36.514 33.8633 36.3682L34.1367 35.5547C34.3076 35.7484 34.4238 35.9512 34.4854 36.1631C34.5492 36.375 34.5811 36.6895 34.5811 37.1064V37.9985ZM34.2358 38.7095L33.8257 39.4751L33.0259 39.0581L33.4395 38.2856L34.2358 38.7095Z" fill="#808080"/>
<defs>
<clipPath id="clip0_212:11">
<rect width="12.0417" height="17" fill="white" transform="translate(18 6)"/>
</clipPath>
</defs>
</svg>
