<svg width="77" height="28" viewBox="0 0 77 28" fill="none" xmlns="http://www.w3.org/2000/svg">
<path fill-rule="evenodd" clip-rule="evenodd" d="M2.96092 3.74306C0.345004 9.74516 -1.18708 21.2355 2.82215 25.3045C8.22502 30.7845 25.7208 22.4587 27.0572 13.7898C28.3527 5.3658 7.20641 -5.98571 2.96092 3.74306Z" fill="#0075BF"/>
<path fill-rule="evenodd" clip-rule="evenodd" d="M27.0737 12.4121C26.2834 5.48024 12.4465 -2.51956 5.7724 0.758544C5.65028 4.39564 6.97038 8.0737 9.74103 10.8463C14.4591 15.568 21.777 16.0898 27.0737 12.4121Z" fill="#0087CE"/>
<path fill-rule="evenodd" clip-rule="evenodd" d="M21.7283 21.5617C24.5395 19.303 26.6256 16.5626 27.0576 13.79C27.4406 11.3028 25.8679 8.56285 23.3499 6.18152C19.6095 10.5283 19.0634 16.6932 21.7283 21.5617Z" fill="#0087CE"/>
<path fill-rule="evenodd" clip-rule="evenodd" d="M27.0819 12.4121C26.8373 10.3161 25.4114 8.13061 23.3495 6.18152C21.2145 8.66076 20.1226 11.7267 20.0737 14.8094C22.5349 14.6792 24.9635 13.88 27.0819 12.4121Z" fill="#0075BF"/>
<path fill-rule="evenodd" clip-rule="evenodd" d="M2.95991 3.74298C0.580601 9.20695 -0.902909 19.2291 1.8844 24.0487C5.29064 23.9917 8.6726 22.6704 11.2719 20.0693C16.5769 14.7605 16.5769 6.14861 11.2719 0.839836C10.9947 0.554451 10.7015 0.293369 10.4 0.0406198C7.09923 -0.220115 4.2474 0.790883 2.95991 3.74298Z" fill="#008BD2"/>
<path fill-rule="evenodd" clip-rule="evenodd" d="M14.7768 14.0349C16.0154 9.48433 14.8421 4.41199 11.2728 0.840173C10.9956 0.554788 10.7024 0.293707 10.4009 0.0409576C8.68148 -0.0975684 7.08418 0.114213 5.7724 0.758585C5.65028 4.39567 6.97038 8.07373 9.74103 10.8463C11.2159 12.3142 12.9353 13.3825 14.7768 14.0349Z" fill="#0075BF"/>
<path fill-rule="evenodd" clip-rule="evenodd" d="M0.6875 20.5586C1.04623 22.5157 1.73074 24.1874 2.82256 25.3046C4.97393 27.4818 9.03207 27.4738 13.2207 26.1365C12.8293 25.6147 12.3974 25.1088 11.9169 24.636C8.84472 21.5617 4.70505 20.2 0.6875 20.5586Z" fill="#0068B3"/>
<path fill-rule="evenodd" clip-rule="evenodd" d="M0.6875 20.5588C0.932092 21.8798 1.31511 23.0707 1.88548 24.0491C4.20788 24.0084 6.52231 23.3804 8.58382 22.1572C6.13929 20.8525 3.38495 20.3224 0.6875 20.5588Z" fill="#007CC5"/>
<path fill-rule="evenodd" clip-rule="evenodd" d="M19.3477 11.0257H15.3142V6.98097C15.3142 6.58136 14.9881 6.255 14.5888 6.255H10.7017C10.3107 6.255 9.98457 6.58136 9.98457 6.98097V11.0257H5.94273C5.54341 11.0257 5.21729 11.352 5.21729 11.7516V15.6335C5.21729 16.0331 5.54341 16.3594 5.94273 16.3594H9.98457V20.4041C9.98457 20.8037 10.3103 21.1217 10.7017 21.1217H14.5888C14.9881 21.1217 15.3142 20.8037 15.3142 20.4041V16.3594H19.3477C19.7471 16.3594 20.0732 16.0334 20.0732 15.6335V11.7513C20.0732 11.3517 19.7471 11.0257 19.3477 11.0257Z" fill="white"/>
<mask id="mask0" mask-type="alpha" maskUnits="userSpaceOnUse" x="33" y="8" width="42" height="10">
<path d="M37.5304 15.6546H35.7768V17.6893H33.0788V9.25816H37.3281C39.2616 9.25816 40.2284 10.2961 40.2284 12.3721C40.2284 12.8292 40.1835 13.2564 40.0935 13.6536C40.0036 14.0508 39.85 14.3993 39.6326 14.6991C39.4228 14.9914 39.1455 15.2237 38.8007 15.3961C38.4635 15.5684 38.0401 15.6546 37.5304 15.6546ZM36.3951 11.4165H35.7768V13.4962H36.3951C36.7248 13.4962 36.9609 13.4625 37.1033 13.3951C37.2532 13.3276 37.3281 13.1702 37.3281 12.9229V11.9786C37.3281 11.7388 37.2532 11.5852 37.1033 11.5177C36.9609 11.4503 36.7248 11.4165 36.3951 11.4165ZM43.7359 17.6893H41.0379V11.2816L43.7359 10.9444V17.6893ZM40.8918 9.6741C40.8918 9.47175 40.9142 9.30313 40.9592 9.16823C41.0042 9.02584 41.0829 8.91342 41.1953 8.83098C41.3077 8.74105 41.4613 8.67735 41.6562 8.63988C41.851 8.6024 42.0984 8.58367 42.3981 8.58367C42.6979 8.58367 42.9415 8.6024 43.1288 8.63988C43.3237 8.67735 43.4773 8.74105 43.5897 8.83098C43.7022 8.91342 43.7808 9.02584 43.8258 9.16823C43.8708 9.30313 43.8933 9.47175 43.8933 9.6741C43.8933 9.87645 43.8708 10.0451 43.8258 10.18C43.7808 10.3149 43.7022 10.4273 43.5897 10.5172C43.4773 10.5997 43.3237 10.6596 43.1288 10.6971C42.9415 10.7271 42.6979 10.742 42.3981 10.742C42.1808 10.742 41.9784 10.7346 41.7911 10.7196C41.6112 10.7046 41.4538 10.6634 41.3189 10.5959C41.184 10.521 41.0791 10.4123 41.0042 10.2699C40.9292 10.1275 40.8918 9.92891 40.8918 9.6741ZM45.0888 8.92092L47.7868 8.71857V15.7558C47.9292 15.7858 48.0566 15.8082 48.169 15.8232C48.2814 15.8382 48.3751 15.8495 48.45 15.857L48.3264 17.8355C47.1797 17.8355 46.4191 17.768 46.0443 17.6331C45.7296 17.5207 45.4898 17.3746 45.3249 17.1947C45.1675 17.0148 45.0888 16.7563 45.0888 16.419V8.92092ZM49.2605 8.92092L51.9585 8.71857V15.7558C52.1009 15.7858 52.2283 15.8082 52.3407 15.8232C52.4531 15.8382 52.5468 15.8495 52.6217 15.857L52.4981 17.8355C51.3514 17.8355 50.5907 17.768 50.216 17.6331C49.9013 17.5207 49.6614 17.3746 49.4966 17.1947C49.3392 17.0148 49.2605 16.7563 49.2605 16.419V8.92092ZM54.0842 11.2142C54.6612 10.8994 55.4519 10.742 56.4561 10.742C57.4679 10.742 58.3934 10.8807 59.2328 11.158L58.918 12.9904C58.5658 12.8854 58.2173 12.8105 57.8726 12.7655C57.5278 12.7206 57.1756 12.6981 56.8159 12.6981C56.7109 12.6981 56.5798 12.7018 56.4224 12.7093C56.2725 12.7168 56.1002 12.7318 55.9053 12.7543V13.1815C56.3175 13.1815 56.7409 13.2039 57.1756 13.2489C57.6103 13.2864 58.0037 13.3838 58.356 13.5412C58.7157 13.6911 59.008 13.9197 59.2328 14.2269C59.4651 14.5267 59.5813 14.9389 59.5813 15.4635C59.5813 15.8307 59.5401 16.1605 59.4576 16.4528C59.3752 16.7375 59.2478 16.9661 59.0754 17.1385C58.8956 17.3109 58.7082 17.4495 58.5133 17.5544C58.326 17.6594 58.0787 17.7343 57.7714 17.7793C57.5316 17.8167 57.273 17.843 56.9957 17.858C56.7259 17.8804 56.4337 17.8917 56.1189 17.8917C55.0172 17.8917 54.0092 17.7605 53.0949 17.4982L53.4322 15.5872C53.8144 15.6996 54.2078 15.7858 54.6125 15.8457C55.0172 15.9057 55.4406 15.9356 55.8828 15.9356C56.0852 15.9356 56.2763 15.9319 56.4561 15.9244C56.6435 15.9169 56.8234 15.9019 56.9957 15.8794V15.4523C56.2763 15.4523 55.673 15.4073 55.1858 15.3174C54.7062 15.2199 54.3165 15.0738 54.0167 14.8789C53.7244 14.6841 53.5146 14.4293 53.3872 14.1145C53.2673 13.7998 53.2073 13.425 53.2073 12.9904C53.2073 12.121 53.4996 11.529 54.0842 11.2142Z" fill="#0087CE"/>
<path d="M63.1545 15.3961V15.8682C63.2894 15.8832 63.4243 15.8944 63.5592 15.9019C63.6941 15.9094 63.829 15.9132 63.9639 15.9132C64.8033 15.9132 65.6502 15.7783 66.5045 15.5085L66.8193 17.487C65.8075 17.7568 64.8108 17.8917 63.829 17.8917C62.57 17.8917 61.6594 17.5994 61.0973 17.0148C60.5352 16.4228 60.2542 15.5235 60.2542 14.3169C60.2542 13.1103 60.5352 12.2147 61.0973 11.6301C61.6669 11.0381 62.5775 10.742 63.829 10.742C64.4585 10.742 64.9832 10.7833 65.4028 10.8657C65.8225 10.9406 66.1598 11.0718 66.4146 11.2592C66.6769 11.439 66.8605 11.6863 66.9654 12.0011C67.0778 12.3084 67.134 12.6981 67.134 13.1702C67.134 13.5599 67.0666 13.8972 66.9317 14.182C66.8043 14.4593 66.5869 14.6878 66.2797 14.8677C65.9724 15.0476 65.564 15.1825 65.0543 15.2724C64.5447 15.3548 63.9115 15.3961 63.1545 15.3961ZM63.1545 13.2826V13.8335H63.7054C64.0351 13.8335 64.2712 13.7998 64.4136 13.7323C64.5635 13.6649 64.6384 13.5075 64.6384 13.2602V12.7093H64.0876C63.7578 12.7093 63.518 12.743 63.3681 12.8105C63.2257 12.8779 63.1545 13.0353 63.1545 13.2826ZM68.1428 10.9444H69.4918L70.1663 11.6189C70.9981 11.0343 71.8975 10.742 72.8642 10.742C73.5013 10.742 73.9959 10.8807 74.3481 11.158C74.7079 11.4278 74.8877 11.8062 74.8877 12.2934V17.6893H72.1898V12.9679H71.7738C71.4665 12.9679 71.2342 13.0016 71.0768 13.0691C70.9195 13.129 70.8408 13.2677 70.8408 13.485V17.6893H68.1428V10.9444Z" fill="#0068B3"/>
</mask>
<g mask="url(#mask0)">
<rect x="29.6304" y="5.08911" width="49.93" height="16.6433" fill="url(#paint0_linear)"/>
</g>
<defs>
<linearGradient id="paint0_linear" x1="37.2586" y1="8.55648" x2="65.691" y2="18.9586" gradientUnits="userSpaceOnUse">
<stop stop-color="#008BD2"/>
<stop offset="1" stop-color="#0068B3"/>
</linearGradient>
</defs>
</svg>
