<svg width="129" height="45" viewBox="0 0 129 45" fill="none" xmlns="http://www.w3.org/2000/svg">
<rect width="129" height="45" rx="5" fill="#EB4B35"/>
<rect x="2.5" y="2.5" width="124" height="40" rx="4.5" fill="#EB4B35" stroke="white" stroke-dasharray="5 5"/>
<path d="M15.0864 17.5234C15.0864 15.9202 15.4364 14.7321 16.1362 13.959C16.8442 13.1859 17.8005 12.7993 19.0049 12.7993C20.25 12.7993 21.2225 13.1859 21.9224 13.959C22.6304 14.724 22.9844 15.9121 22.9844 17.5234C22.9844 19.1266 22.6304 20.3148 21.9224 21.0879C21.2225 21.861 20.2703 22.2476 19.0659 22.2476C17.8208 22.2476 16.8442 21.8651 16.1362 21.1001C15.4364 20.327 15.0864 19.1348 15.0864 17.5234ZM17.7598 17.499C17.7598 18.6628 17.894 19.444 18.1626 19.8428C18.366 20.1357 18.6468 20.2822 19.0049 20.2822C19.3711 20.2822 19.6559 20.1357 19.8594 19.8428C20.1198 19.444 20.25 18.6628 20.25 17.499C20.25 16.3353 20.1198 15.5581 19.8594 15.1675C19.6559 14.8664 19.3711 14.7158 19.0049 14.7158C18.6468 14.7158 18.366 14.8623 18.1626 15.1553C17.894 15.554 17.7598 16.3353 17.7598 17.499ZM21.6172 31.6836H19.0781L28.6118 12.7993H31.0776L21.6172 31.6836ZM27.1592 26.9839C27.1592 25.3807 27.5091 24.1925 28.209 23.4194C28.917 22.6463 29.8813 22.2598 31.1021 22.2598C32.3309 22.2598 33.2952 22.6463 33.9951 23.4194C34.7031 24.1925 35.0571 25.3807 35.0571 26.9839C35.0571 28.5952 34.7031 29.7874 33.9951 30.5605C33.2952 31.3337 32.3431 31.7202 31.1387 31.7202C29.8936 31.7202 28.917 31.3337 28.209 30.5605C27.5091 29.7874 27.1592 28.5952 27.1592 26.9839ZM29.8325 26.9717C29.8325 28.1354 29.9668 28.9126 30.2354 29.3032C30.4388 29.6043 30.7196 29.7549 31.0776 29.7549C31.4438 29.7549 31.7246 29.6084 31.9199 29.3154C32.1885 28.9167 32.3228 28.1354 32.3228 26.9717C32.3228 25.8079 32.1925 25.0267 31.9321 24.6279C31.7287 24.335 31.4438 24.1885 31.0776 24.1885C30.7114 24.1885 30.4307 24.335 30.2354 24.6279C29.9668 25.0267 29.8325 25.8079 29.8325 26.9717ZM37.3521 26.3979L40.77 26.0439C40.8677 26.8171 41.1566 27.4315 41.6367 27.8872C42.1169 28.3348 42.6702 28.5586 43.2969 28.5586C44.013 28.5586 44.6193 28.2697 45.1157 27.6919C45.6121 27.106 45.8604 26.2271 45.8604 25.0552C45.8604 23.9565 45.6121 23.1346 45.1157 22.5894C44.6274 22.036 43.9886 21.7593 43.1992 21.7593C42.2145 21.7593 41.3315 22.1947 40.5503 23.0654L37.7671 22.6626L39.5249 13.3486H48.5947V16.5591H42.125L41.5879 19.5986C42.3529 19.2161 43.1341 19.0249 43.9316 19.0249C45.4535 19.0249 46.7433 19.5783 47.8013 20.6851C48.8592 21.7918 49.3882 23.2282 49.3882 24.9941C49.3882 26.4671 48.9609 27.7814 48.1064 28.937C46.9427 30.5158 45.3273 31.3052 43.2603 31.3052C41.6082 31.3052 40.2614 30.8617 39.2197 29.9746C38.1781 29.0876 37.5555 27.8953 37.3521 26.3979ZM57.0176 13.0312C58.751 13.0312 60.106 13.6497 61.0825 14.8867C62.2463 16.3516 62.8281 18.7808 62.8281 22.1743C62.8281 25.5597 62.2422 27.993 61.0703 29.4741C60.1019 30.6948 58.751 31.3052 57.0176 31.3052C55.276 31.3052 53.8722 30.6379 52.8062 29.3032C51.7401 27.9604 51.207 25.5719 51.207 22.1377C51.207 18.7686 51.793 16.3434 52.9648 14.8623C53.9333 13.6416 55.2842 13.0312 57.0176 13.0312ZM57.0176 15.8755C56.6025 15.8755 56.2323 16.0098 55.9067 16.2783C55.5812 16.5387 55.3289 17.0107 55.1499 17.6943C54.9139 18.5814 54.7959 20.0747 54.7959 22.1743C54.7959 24.2739 54.9017 25.7184 55.1133 26.5078C55.3249 27.2891 55.5894 27.8099 55.9067 28.0703C56.2323 28.3307 56.6025 28.4609 57.0176 28.4609C57.4326 28.4609 57.8029 28.3307 58.1284 28.0703C58.4539 27.8018 58.7062 27.3257 58.8853 26.6421C59.1213 25.7632 59.2393 24.2739 59.2393 22.1743C59.2393 20.0747 59.1335 18.6343 58.9219 17.853C58.7103 17.0636 58.4417 16.5387 58.1162 16.2783C57.7988 16.0098 57.4326 15.8755 57.0176 15.8755ZM80.04 27.4233L78.4531 27.4111C76.9639 27.4111 75.6455 27.5373 74.498 27.7896C73.3506 28.0418 72.7769 28.3307 72.7769 28.6562C73.0942 29.6328 73.375 30.5483 73.6191 31.4028C73.8714 32.2573 73.9976 33.0671 73.9976 33.832C73.9976 34.3854 73.9406 34.833 73.8267 35.1748C73.7209 35.5166 73.5174 35.891 73.2163 36.2979C73.1268 35.2236 72.9274 34.0965 72.6182 32.9165C72.5124 32.5015 72.2479 31.6266 71.8247 30.292C71.5643 29.4701 71.4341 28.9248 71.4341 28.6562C71.4341 28.2738 71.5399 27.7977 71.7515 27.228C71.9224 26.7642 72.1177 26.3532 72.3374 25.9951C72.5978 25.5882 73.0495 25.2668 73.6924 25.0308C74.3434 24.7948 75.3322 24.6035 76.6587 24.457C76.0076 23.5456 75.438 23.0898 74.9497 23.0898C74.7381 23.0898 74.5387 23.1712 74.3516 23.334C74.1644 23.4967 73.8592 23.8548 73.436 24.4082L72.8501 24.1152C73.2082 22.8701 73.6476 21.9139 74.1685 21.2466C74.6974 20.5711 75.2752 20.2334 75.9019 20.2334C76.4471 20.2334 77.0534 20.5467 77.7207 21.1733C78.388 21.8 79.1611 22.7765 80.04 24.103V27.4233ZM99.3271 27.4233H86.3999C85.8221 27.4233 85.3582 27.2809 85.0083 26.9961C84.6665 26.7031 84.3735 26.2311 84.1294 25.5801C83.6086 26.3044 83.1121 26.7967 82.6401 27.0571C82.2088 27.2931 81.6392 27.4111 80.9312 27.4111L79.1855 27.4233V24.103L80.9312 24.0908C81.8752 24.0908 82.5913 23.8548 83.0796 23.3828C83.6493 22.8294 84.0155 21.8773 84.1782 20.5264L85.0083 20.6484C84.9839 20.9414 84.9676 21.1774 84.9595 21.3564C84.9269 21.8936 84.9106 22.3249 84.9106 22.6504C84.9106 23.1143 85.0327 23.4723 85.2769 23.7246C85.521 23.9769 85.8424 24.103 86.2412 24.103C86.64 24.103 87.0062 24.0216 87.3398 23.8589C87.6816 23.6961 88.2147 23.3584 88.939 22.8457L93.3091 19.7207C93.8218 19.3545 94.2083 19.0941 94.4688 18.9395C95.0628 18.5814 95.6366 18.4023 96.1899 18.4023C97.1014 18.4023 97.8298 18.7238 98.375 19.3667C99.0098 20.1154 99.3271 21.2425 99.3271 22.748V27.4233ZM97.6182 22.8579C97.6182 22.4917 97.3293 22.1947 96.7515 21.9668C96.2713 21.7796 95.7342 21.686 95.1401 21.686C94.603 21.686 93.9967 21.861 93.3213 22.2109C92.654 22.5527 91.6815 23.1834 90.4038 24.103H93.6021C96.2795 24.103 97.6182 23.688 97.6182 22.8579ZM107.506 14.4229L106.041 17.1572L103.185 15.668L104.662 12.9092L107.506 14.4229ZM112.413 27.4233H98.4727V24.103H107.152C106.167 23.0858 105.256 22.3534 104.417 21.9058C103.677 21.507 102.953 21.3076 102.245 21.3076C102.033 21.3076 101.838 21.3198 101.659 21.3442C101.488 21.3605 101.236 21.4053 100.902 21.4785C101.349 20.4531 101.846 19.6963 102.391 19.208C102.944 18.7197 103.571 18.4756 104.271 18.4756C104.808 18.4756 105.325 18.6058 105.821 18.8662C106.318 19.1266 106.875 19.5457 107.494 20.1235C107.982 20.5793 108.674 21.2913 109.569 22.2598C110.179 22.9434 110.643 23.3869 110.96 23.5903C111.286 23.7938 111.77 23.9647 112.413 24.103V27.4233Z" fill="white"/>
</svg>
